<svg width="248" height="67" viewBox="0 0 248 67" fill="none" xmlns="http://www.w3.org/2000/svg">
<path d="M105.094 14.9159C109.214 14.9159 112.815 15.7325 115.896 17.3656C118.976 18.9988 121.352 21.3 123.022 24.2694C124.729 27.2016 125.583 30.5978 125.583 34.458C125.583 38.281 124.729 41.6772 123.022 44.6465C121.352 47.6159 118.958 49.9171 115.84 51.5503C112.759 53.1834 109.177 54 105.094 54H90.4519V14.9159H105.094ZM104.482 45.76C108.082 45.76 110.885 44.7765 112.889 42.8093C114.893 40.8421 115.896 38.0583 115.896 34.458C115.896 30.8576 114.893 28.0553 112.889 26.051C110.885 24.0467 108.082 23.0445 104.482 23.0445H99.9724V45.76H104.482Z" fill="#D64741"/>
<path d="M141.983 46.6509H154.454V54H132.462V14.9159H141.983V46.6509ZM172.302 14.9159V54H162.781V14.9159H172.302ZM194.345 54.3897C191.487 54.3897 188.926 53.9258 186.661 52.9978C184.397 52.0699 182.579 50.6966 181.205 48.8779C179.869 47.0591 179.164 44.8692 179.09 42.3082H189.223C189.371 43.7557 189.872 44.8692 190.726 45.6487C191.579 46.391 192.693 46.7622 194.066 46.7622C195.477 46.7622 196.59 46.4467 197.407 45.8157C198.223 45.1476 198.632 44.2383 198.632 43.0876C198.632 42.1226 198.298 41.3246 197.63 40.6936C196.999 40.0626 196.201 39.543 195.235 39.1347C194.308 38.7264 192.971 38.2624 191.227 37.7428C188.703 36.9633 186.643 36.1839 185.047 35.4044C183.451 34.625 182.078 33.4744 180.927 31.9526C179.776 30.4308 179.201 28.445 179.201 25.9953C179.201 22.3578 180.519 19.5184 183.154 17.477C185.789 15.3984 189.223 14.3592 193.454 14.3592C197.759 14.3592 201.23 15.3984 203.865 17.477C206.5 19.5184 207.911 22.3764 208.096 26.051H197.797C197.722 24.789 197.258 23.8054 196.405 23.1002C195.551 22.3578 194.456 21.9867 193.12 21.9867C191.969 21.9867 191.041 22.3022 190.336 22.9332C189.631 23.527 189.278 24.3993 189.278 25.5499C189.278 26.8119 189.872 27.7955 191.06 28.5007C192.248 29.2059 194.103 29.9668 196.627 30.7834C199.151 31.6371 201.193 32.4536 202.752 33.2331C204.348 34.0125 205.721 35.1446 206.872 36.6293C208.022 38.114 208.598 40.0255 208.598 42.3639C208.598 44.5909 208.022 46.6137 206.872 48.4325C205.758 50.2512 204.125 51.6988 201.972 52.7751C199.819 53.8515 197.277 54.3897 194.345 54.3897ZM243.018 14.9159V22.5434H232.662V54H223.142V22.5434H212.786V14.9159H243.018Z" fill="#0E1011"/>
<path d="M23.3836 54L15.255 39.246H12.9724V54H3.45187V14.9159H19.4307C22.5114 14.9159 25.1281 15.4541 27.2809 16.5305C29.4708 17.6069 31.104 19.0916 32.1804 20.9845C33.2567 22.8404 33.7949 24.9189 33.7949 27.2202C33.7949 29.8183 33.0526 32.1381 31.5679 34.1796C30.1204 36.221 27.9676 37.6686 25.1096 38.5223L34.129 54H23.3836ZM12.9724 32.5093H18.8739C20.6184 32.5093 21.9175 32.0825 22.7712 31.2288C23.662 30.3751 24.1074 29.1688 24.1074 27.6099C24.1074 26.1252 23.662 24.956 22.7712 24.1023C21.9175 23.2487 20.6184 22.8218 18.8739 22.8218H12.9724V32.5093Z" fill="#D64741"/>
<path fill-rule="evenodd" clip-rule="evenodd" d="M51.5869 19.4465C51.5869 17.5247 53.1448 15.9668 55.0666 15.9668H80.1205C82.0423 15.9668 83.6002 17.5247 83.6002 19.4465C83.6002 21.3683 82.0423 22.9262 80.1205 22.9262H55.0666C53.1448 22.9262 51.5869 21.3683 51.5869 19.4465ZM51.5869 34.7572C51.5869 32.8354 53.1448 31.2775 55.0666 31.2775H80.1205C82.0423 31.2775 83.6002 32.8354 83.6002 34.7572C83.6002 36.679 82.0423 38.2369 80.1205 38.2369H55.0666C53.1448 38.2369 51.5869 36.679 51.5869 34.7572ZM51.5869 50.0679C51.5869 48.1462 53.1448 46.5882 55.0666 46.5882H80.1205C82.0423 46.5882 83.6002 48.1462 83.6002 50.0679C83.6002 51.9897 82.0423 53.5476 80.1205 53.5476H55.0666C53.1448 53.5476 51.5869 51.9897 51.5869 50.0679Z" fill="#D64741"/>
<circle cx="43.9369" cy="19.4432" r="4.17565" fill="#D64741"/>
<circle cx="43.9369" cy="34.7577" r="4.17565" fill="#D64741"/>
<circle cx="43.9369" cy="50.0682" r="4.17565" fill="#D64741"/>
</svg>
