<svg width="32" height="32" viewBox="0 0 32 32" fill="none" xmlns="http://www.w3.org/2000/svg">
<ellipse cx="10" cy="14.8992" rx="4" ry="4.2" stroke="black" stroke-width="2"/>
<ellipse cx="22" cy="14.8992" rx="4" ry="4.2" stroke="black" stroke-width="2"/>
<path d="M11.7038 11.098L11.225 10.2202L9.53664 11.1412L11.2603 11.9943L11.7038 11.098ZM20.2973 11.0979L20.7408 11.9942L22.4649 11.1411L20.7762 10.22L20.2973 11.0979ZM24.5502 18.1355L25.4727 18.5214L23.894 17.3809L24.5502 18.1355ZM7.45117 18.136L8.10722 17.3813L6.52865 18.5219L7.45117 18.136ZM16.0007 9C14.2781 9 12.6528 9.44127 11.225 10.2202L12.1827 11.9759C13.3271 11.3516 14.6244 11 16.0007 11V9ZM20.7762 10.22C19.3484 9.44121 17.7232 9 16.0007 9V11C17.377 11 18.6742 11.3516 19.8185 11.9758L20.7762 10.22ZM19.0003 14.8993C19.0003 13.5943 19.7288 12.4949 20.7408 11.9942L19.8539 10.2016C18.1509 11.0442 17.0003 12.8442 17.0003 14.8993H19.0003ZM22.0003 18.0993C20.3889 18.0993 19.0003 16.7132 19.0003 14.8993H17.0003C17.0003 17.7247 19.1935 20.0993 22.0003 20.0993V18.0993ZM23.894 17.3809C23.3727 17.8342 22.714 18.0993 22.0003 18.0993V20.0993C23.2247 20.0993 24.3432 19.6408 25.2064 18.8901L23.894 17.3809ZM16.0006 24.9984C20.2607 24.9984 23.8876 22.3111 25.4727 18.5214L23.6276 17.7496C22.3249 20.864 19.3824 22.9984 16.0006 22.9984V24.9984ZM6.52865 18.5219C8.11393 22.3114 11.7407 24.9984 16.0006 24.9984V22.9984C12.6189 22.9984 9.67649 20.8642 8.3737 17.7501L6.52865 18.5219ZM10.0003 18.0992C9.28685 18.0992 8.62836 17.8343 8.10722 17.3813L6.79512 18.8907C7.65824 19.641 8.77635 20.0992 10.0003 20.0992V18.0992ZM13.0003 14.8992C13.0003 16.7131 11.6118 18.0992 10.0003 18.0992V20.0992C12.8072 20.0992 15.0003 17.7246 15.0003 14.8992H13.0003ZM11.2603 11.9943C12.272 12.4951 13.0003 13.5944 13.0003 14.8992H15.0003C15.0003 12.8443 13.8501 11.0445 12.1474 10.2018L11.2603 11.9943Z" fill="black"/>
<mask id="path-4-inside-1_944_2612" fill="white">
<ellipse cx="14" cy="20.1496" rx="1" ry="1.05"/>
</mask>
<ellipse cx="14" cy="20.1496" rx="1" ry="1.05" fill="black"/>
<path d="M13 20.1496C13 19.718 13.3569 19.1996 14 19.1996V23.1996C15.7477 23.1996 17 21.741 17 20.1496H13ZM14 19.1996C14.6431 19.1996 15 19.718 15 20.1496H11C11 21.741 12.2523 23.1996 14 23.1996V19.1996ZM15 20.1496C15 20.5812 14.6431 21.0996 14 21.0996V17.0996C12.2523 17.0996 11 18.5582 11 20.1496H15ZM14 21.0996C13.3569 21.0996 13 20.5812 13 20.1496H17C17 18.5582 15.7477 17.0996 14 17.0996V21.0996Z" fill="black" mask="url(#path-4-inside-1_944_2612)"/>
<mask id="path-6-inside-2_944_2612" fill="white">
<ellipse cx="18" cy="20.1496" rx="1" ry="1.05"/>
</mask>
<ellipse cx="18" cy="20.1496" rx="1" ry="1.05" fill="black"/>
<path d="M17 20.1496C17 19.718 17.3569 19.1996 18 19.1996V23.1996C19.7477 23.1996 21 21.741 21 20.1496H17ZM18 19.1996C18.6431 19.1996 19 19.718 19 20.1496H15C15 21.741 16.2523 23.1996 18 23.1996V19.1996ZM19 20.1496C19 20.5812 18.6431 21.0996 18 21.0996V17.0996C16.2523 17.0996 15 18.5582 15 20.1496H19ZM18 21.0996C17.3569 21.0996 17 20.5812 17 20.1496H21C21 18.5582 19.7477 17.0996 18 17.0996V21.0996Z" fill="black" mask="url(#path-6-inside-2_944_2612)"/>
<mask id="path-8-inside-3_944_2612" fill="white">
<ellipse cx="22" cy="14.8996" rx="1" ry="1.05"/>
</mask>
<ellipse cx="22" cy="14.8996" rx="1" ry="1.05" fill="black"/>
<path d="M21 14.8996C21 14.468 21.3569 13.9496 22 13.9496V17.9496C23.7477 17.9496 25 16.491 25 14.8996H21ZM22 13.9496C22.6431 13.9496 23 14.468 23 14.8996H19C19 16.491 20.2523 17.9496 22 17.9496V13.9496ZM23 14.8996C23 15.3312 22.6431 15.8496 22 15.8496V11.8496C20.2523 11.8496 19 13.3082 19 14.8996H23ZM22 15.8496C21.3569 15.8496 21 15.3312 21 14.8996H25C25 13.3082 23.7477 11.8496 22 11.8496V15.8496Z" fill="black" mask="url(#path-8-inside-3_944_2612)"/>
<mask id="path-10-inside-4_944_2612" fill="white">
<ellipse cx="10" cy="14.8996" rx="1" ry="1.05"/>
</mask>
<ellipse cx="10" cy="14.8996" rx="1" ry="1.05" fill="black"/>
<path d="M9 14.8996C9 14.468 9.35688 13.9496 10 13.9496V17.9496C11.7477 17.9496 13 16.491 13 14.8996H9ZM10 13.9496C10.6431 13.9496 11 14.468 11 14.8996H7C7 16.491 8.25231 17.9496 10 17.9496V13.9496ZM11 14.8996C11 15.3312 10.6431 15.8496 10 15.8496V11.8496C8.25231 11.8496 7 13.3082 7 14.8996H11ZM10 15.8496C9.35688 15.8496 9 15.3312 9 14.8996H13C13 13.3082 11.7477 11.8496 10 11.8496V15.8496Z" fill="black" mask="url(#path-10-inside-4_944_2612)"/>
</svg>
