<svg width="32" height="32" viewBox="0 0 32 32" fill="none" xmlns="http://www.w3.org/2000/svg">
<path d="M14.1239 22.0338L9.63959 26.5102C8.26344 27.8839 6.02577 27.8867 4.64615 26.5165V26.5165L8.2086 22.9781" stroke="black" stroke-width="2"/>
<mask id="path-2-inside-1_944_1212" fill="white">
<path d="M26.2646 7.79297L28.2162 9.73127C28.5328 10.0458 28.3101 10.586 27.8638 10.586H26.2646V7.79297Z"/>
</mask>
<path d="M26.2646 7.79297L28.2162 9.73127C28.5328 10.0458 28.3101 10.586 27.8638 10.586H26.2646V7.79297Z" fill="black"/>
<path d="M26.2646 7.79297L27.6741 6.37396L24.2646 2.98764V7.79297H26.2646ZM26.2646 10.586H24.2646V12.586H26.2646V10.586ZM24.8552 9.21198L26.8068 11.1503L29.6256 8.31226L27.6741 6.37396L24.8552 9.21198ZM27.8638 8.58602H26.2646V12.586H27.8638V8.58602ZM28.2646 10.586V7.79297H24.2646V10.586H28.2646ZM26.8068 11.1503C25.8569 10.2068 26.525 8.58602 27.8638 8.58602V12.586C30.0952 12.586 31.2087 9.8847 29.6256 8.31226L26.8068 11.1503Z" fill="black" mask="url(#path-2-inside-1_944_1212)"/>
<path d="M12.2041 21.7583H15.3272C20.85 21.7583 25.3272 17.2812 25.3272 11.7583V10.2921M12.6728 13.3792L19.7096 6.00875C20.3247 5.3645 21.1766 5 22.0674 5H22.6811C24.1425 5 25.3272 6.18468 25.3272 7.64605V7.64605M25.3272 10.2921V8.96907V7.64605M25.3272 10.2921V7.64605" stroke="black" stroke-width="2"/>
<path d="M14.0704 12.0745C14.4006 12.5173 14.6759 12.9996 14.8891 13.5111C15.2312 14.3314 15.4073 15.2105 15.4073 16.0984C15.4073 16.9863 15.2312 17.8655 14.8891 18.6858C14.547 19.5061 14.0456 20.2515 13.4135 20.8793C12.7814 21.5071 12.031 22.0051 11.2051 22.3449C10.3792 22.6847 9.49403 22.8596 8.60009 22.8596C7.70615 22.8596 6.82097 22.6847 5.99508 22.3449C5.48017 22.1331 4.99459 21.8597 4.54873 21.5318L14.0704 12.0745Z" stroke="black" stroke-width="2"/>
<path d="M17.5156 21.7578V27.0153H20.1715" stroke="black" stroke-width="2"/>
<ellipse cx="22.2811" cy="8.49123" rx="0.703022" ry="0.698263" fill="black"/>
</svg>
