<svg width="32" height="32" viewBox="0 0 32 32" fill="none" xmlns="http://www.w3.org/2000/svg">
<line x1="3" y1="19" x2="3" y2="29" stroke="#0E1011" stroke-width="2"/>
<line x1="29" y1="29" x2="29" y2="17" stroke="#0E1011" stroke-width="2"/>
<line x1="2" y1="28" x2="30" y2="28" stroke="#0E1011" stroke-width="2"/>
<path d="M2.5 20C4.5931 19.195 7.21503 15.6524 10.6363 11.4459C10.828 11.2102 11.1838 11.1981 11.4029 11.4085C13.7908 13.7021 19.989 17.8709 23 19C24 19.5 27.9 21.1 29.5 21.5" stroke="#0E1011" stroke-width="2"/>
<path d="M12.5001 20L13.3322 19.4453L12.5001 20ZM10.0457 10.7017C9.12006 13.6636 9.50469 17.3096 11.668 20.5547L13.3322 19.4453C11.4956 16.6904 11.2136 13.6697 11.9546 11.2983L10.0457 10.7017ZM11.668 20.5547C12.2251 21.3903 12.7224 22.1055 13.1375 22.7886C13.5508 23.4686 13.8332 24.0396 13.9736 24.5474C14.1085 25.0356 14.1052 25.4387 13.9709 25.8199C13.8321 26.2138 13.5183 26.6831 12.8599 27.2318L14.1403 28.7682C14.9819 28.0669 15.5638 27.3174 15.8572 26.4846C16.1552 25.6391 16.1205 24.8077 15.9013 24.0145C15.6874 23.241 15.2927 22.4839 14.8466 21.7499C14.4025 21.019 13.8582 20.2344 13.3322 19.4453L11.668 20.5547Z" fill="#0E1011"/>
<path d="M29.5 18C28.2521 17.3761 25.7488 15.4674 23.4655 12.6021C23.2414 12.3208 22.789 12.3418 22.5636 12.6222C21.5998 13.8215 19.682 15.4908 18 16.5" stroke="#0E1011" stroke-width="2"/>
<path d="M23.5001 17L24.4487 16.6837L23.5001 17ZM22.03 12.2574C21.7477 13.3864 21.7392 14.2802 21.8912 15.1164C22.033 15.8967 22.3256 16.6389 22.5514 17.3163L24.4487 16.6837C24.1745 15.8611 23.967 15.3533 23.8589 14.7586C23.761 14.2198 23.7525 13.6136 23.9703 12.7426L22.03 12.2574ZM22.5514 17.3163C22.8728 18.2805 23.0565 18.8789 23.1291 19.2693C23.214 19.7256 23.0691 19.5168 23.293 19.2929L24.7073 20.7071C25.2644 20.1499 25.1858 19.3897 25.0954 18.9037C24.9928 18.3518 24.7598 17.6169 24.4487 16.6837L22.5514 17.3163Z" fill="#0E1011"/>
</svg>
