<svg width="32" height="32" viewBox="0 0 32 32" fill="none" xmlns="http://www.w3.org/2000/svg">
<mask id="path-1-inside-1_944_1213" fill="white">
<ellipse cx="9.75982" cy="16.2234" rx="0.960019" ry="1.02222"/>
</mask>
<ellipse cx="9.75982" cy="16.2234" rx="0.960019" ry="1.02222" fill="black"/>
<path d="M8.71984 16.2234C8.71984 15.8035 9.06903 15.2456 9.75982 15.2456V19.2456C11.511 19.2456 12.7198 17.7724 12.7198 16.2234H8.71984ZM9.75982 15.2456C10.4506 15.2456 10.7998 15.8035 10.7998 16.2234H6.7998C6.7998 17.7724 8.00862 19.2456 9.75982 19.2456V15.2456ZM10.7998 16.2234C10.7998 16.6433 10.4506 17.2012 9.75982 17.2012V13.2012C8.00862 13.2012 6.7998 14.6744 6.7998 16.2234H10.7998ZM9.75982 17.2012C9.06903 17.2012 8.71984 16.6433 8.71984 16.2234H12.7198C12.7198 14.6744 11.511 13.2012 9.75982 13.2012V17.2012Z" fill="black" mask="url(#path-1-inside-1_944_1213)"/>
<path d="M15.5195 10.6L19.5737 8.44155C21.1899 7.58114 23.0167 9.16441 22.3947 10.8864L21.7597 12.6444" stroke="black" stroke-width="2"/>
<path d="M14.5596 24.4L19.1895 26.7352C20.805 27.55 22.5859 25.9718 21.9712 24.2701L21.2797 22.3556" stroke="black" stroke-width="2"/>
<path d="M4 17.2442L3.24381 16.5899C2.92745 16.9555 2.91795 17.4951 3.22124 17.8716L4 17.2442ZM6.20916 14.6913L6.96535 15.3456L6.20916 14.6913ZM6.24501 20.0312L5.46625 20.6585L5.46625 20.6585L6.24501 20.0312ZM23.2782 20.7246L22.5493 20.04L22.5493 20.04L23.2782 20.7246ZM23.2867 20.7156L23.9931 20.0079C23.8017 19.8168 23.541 19.7114 23.2705 19.7158C23.0001 19.7201 22.7429 19.8339 22.5577 20.0311L23.2867 20.7156ZM25.44 22.8652L26.1465 22.1575L26.1465 22.1575L25.44 22.8652ZM25.44 12.6423L26.1465 13.3501L26.1465 13.3501L25.44 12.6423ZM23.3479 14.7308L22.6189 15.4154C22.8041 15.6126 23.0613 15.7263 23.3317 15.7307C23.6022 15.735 23.8629 15.6296 24.0544 15.4385L23.3479 14.7308ZM22.968 14.3264L22.2391 15.011L22.2391 15.011L22.968 14.3264ZM4.75619 17.8986L6.96535 15.3456L5.45297 14.0369L3.24381 16.5899L4.75619 17.8986ZM7.02377 19.4039L4.77876 16.6169L3.22124 17.8716L5.46625 20.6585L7.02377 19.4039ZM22.5493 20.04C18.1846 24.6875 11.0512 24.4036 7.02377 19.4039L5.46625 20.6585C10.2486 26.5954 18.8035 26.95 24.0072 21.4092L22.5493 20.04ZM22.5577 20.0311L22.5493 20.04L24.0071 21.4092L24.0156 21.4002L22.5577 20.0311ZM22.5802 21.4234L24.7335 23.5729L26.1465 22.1575L23.9931 20.0079L22.5802 21.4234ZM24.7335 23.5729C26.3091 25.1457 28.9997 24.0298 28.9997 21.8036H26.9997C26.9997 22.2489 26.4616 22.472 26.1465 22.1575L24.7335 23.5729ZM28.9997 21.8036V13.7039H26.9997V21.8036H28.9997ZM28.9997 13.7039C28.9997 11.4777 26.3091 10.3618 24.7335 11.9346L26.1465 13.3501C26.4616 13.0355 26.9997 13.2587 26.9997 13.7039H28.9997ZM24.7335 11.9346L22.6414 14.0231L24.0544 15.4385L26.1465 13.3501L24.7335 11.9346ZM22.2391 15.011L22.6189 15.4154L24.0768 14.0462L23.697 13.6418L22.2391 15.011ZM6.96535 15.3456C11.0531 10.6217 17.9783 10.4741 22.2391 15.011L23.697 13.6418C18.6203 8.23613 10.3132 8.42021 5.45297 14.0369L6.96535 15.3456Z" fill="black"/>
<path d="M13.1187 10.0898V10.0898C14.6643 14.4061 14.5658 19.1405 12.842 23.3888L12.6387 23.8898" stroke="black" stroke-width="2"/>
</svg>
