<svg width="47" height="47" viewBox="0 0 47 47" fill="none" xmlns="http://www.w3.org/2000/svg">
<path d="M18.6283 36.3955H9.78906V10.582H35.7175V19.3821" stroke="black" stroke-width="3" stroke-linecap="round" stroke-linejoin="round"/>
<path d="M17.1777 8V13.0972" stroke="black" stroke-width="3" stroke-linecap="round"/>
<path d="M28.001 8V13.0972" stroke="black" stroke-width="3" stroke-linecap="round"/>
<line x1="24.9494" y1="30.0371" x2="33.4347" y2="38.5224" stroke="black" stroke-width="3" stroke-linecap="round"/>
<path fill-rule="evenodd" clip-rule="evenodd" d="M25.3146 32.5236C25.1479 32.6458 24.9886 32.7824 24.8383 32.9332C23.264 34.5132 23.274 37.0648 24.8606 38.6323C26.4473 40.1999 29.0097 40.1898 30.5839 38.6098C30.7224 38.4708 30.8487 38.3243 30.9626 38.1716L28.737 35.946C28.7023 36.1491 28.6066 36.344 28.4498 36.5014C28.045 36.9077 27.3861 36.9103 26.9781 36.5072C26.5701 36.1041 26.5676 35.448 26.9724 35.0417C27.1324 34.8811 27.3321 34.7836 27.5403 34.7493L25.3146 32.5236Z" fill="black"/>
<path fill-rule="evenodd" clip-rule="evenodd" d="M32.3728 27.1402C33.4113 26.098 35.1055 26.0905 36.1571 27.1293C37.2086 28.1682 37.2143 29.8553 36.1758 30.8975C35.4808 31.595 34.492 31.8309 33.5931 31.5949C33.0739 31.4586 32.521 31.6084 32.1428 31.988L30.7548 33.381L29.9203 32.5566L31.3089 31.163C31.687 30.7835 31.8332 30.2321 31.6925 29.7163C31.4489 28.8234 31.6782 27.8375 32.3728 27.1402ZM38.2745 25.0042C36.0471 22.8035 32.4493 22.8132 30.2387 25.0318C28.9877 26.2874 28.4519 27.9797 28.6236 29.6078L27.6348 30.6001L32.7068 35.6722L33.7253 34.65C35.3623 34.8088 37.0584 34.262 38.3099 33.006C40.5205 30.7874 40.502 27.2048 38.2745 25.0042Z" fill="black"/>
</svg>
