<svg width="32" height="32" viewBox="0 0 32 32" fill="none" xmlns="http://www.w3.org/2000/svg">
<line x1="2" y1="28" x2="30" y2="28" stroke="#0E1011" stroke-width="2"/>
<path d="M10.457 27.5004L10.457 20.2731C10.457 18.9836 10.0415 17.7284 9.27224 16.6935L6.9655 13.5905" stroke="#0E1011" stroke-width="2"/>
<path d="M14.5 27.5L14.5 18.1869C14.5 17.4032 14.3465 16.6271 14.0481 15.9025L11 8.5" stroke="#0E1011" stroke-width="2"/>
<path d="M26 8.5L27.5 6.5" stroke="#0E1011" stroke-width="2"/>
<path d="M6.50024 27.4995L6.60366 24.746C6.63605 23.8836 6.44465 23.0274 6.04807 22.2609L4.98047 20.1973" stroke="#0E1011" stroke-width="2"/>
<path d="M26.5393 11.2318L23.8282 15.433C23.2293 16.3611 21.9914 16.6279 21.0633 16.029C20.1352 15.4301 19.8684 14.1922 20.4673 13.2641L23.1784 9.06293C23.7773 8.13483 25.0152 7.86798 25.9433 8.4669C26.8714 9.06583 27.1383 10.3037 26.5393 11.2318Z" stroke="#0E1011" stroke-width="2"/>
<path d="M22 27V26.2828C22 24.5179 22.777 22.8425 24.1243 21.7025L28.5 18M18 27.5V23.8178C18 22.9496 18.1884 22.0918 18.5522 21.3035L21 16" stroke="#0E1011" stroke-width="2" stroke-linejoin="round"/>
</svg>
