<svg width="47" height="47" viewBox="0 0 47 47" fill="none" xmlns="http://www.w3.org/2000/svg">
<path d="M5.00195 44H40.9999" stroke="black" stroke-width="3" stroke-linecap="round"/>
<path d="M12.7139 43.9964V37.6328" stroke="black" stroke-width="3"/>
<path d="M20.2133 31.9062C20.2133 35.6323 17.1578 38.6788 13.3567 38.6788C9.5555 38.6788 6.5 35.6323 6.5 31.9062C6.5 29.8799 7.36884 25.7831 8.83741 22.1664C9.56665 20.3705 10.4028 18.7979 11.2767 17.7019C12.1917 16.5544 12.9047 16.2246 13.3567 16.2246C13.8086 16.2246 14.5217 16.5544 15.4367 17.7019C16.3106 18.7979 17.1467 20.3705 17.8759 22.1664C19.3445 25.7831 20.2133 29.8799 20.2133 31.9062Z" fill="white" stroke="black" stroke-width="3"/>
<path d="M34.5693 43.9983V37.6348" stroke="black" stroke-width="3"/>
<path d="M19.3656 13.6675C20.7817 10.5403 25.2231 10.5403 26.6392 13.6675L31.4549 24.3022C34.2363 30.4444 29.745 37.4085 23.0024 37.4085C16.2598 37.4085 11.7685 30.4444 14.5499 24.3022L19.3656 13.6675Z" fill="white" stroke="black" stroke-width="3"/>
<path d="M23.0005 44.0001V38.9092V34.4547V31.273M23.0005 23.6367V26.1821V31.273M23.0005 31.273L19.1436 27.4548" stroke="black" stroke-width="3" stroke-linecap="round"/>
<path d="M39.5 32.7045C39.5 35.2531 37.3441 37.409 34.5718 37.409C31.7995 37.409 29.6436 35.2531 29.6436 32.7045C29.6436 31.256 30.2931 28.2375 31.411 25.5531C31.9645 24.2243 32.5906 23.0823 33.2308 22.2996C33.9083 21.4711 34.3697 21.3184 34.5718 21.3184C34.7739 21.3184 35.2353 21.4711 35.9128 22.2996C36.5529 23.0823 37.1791 24.2243 37.7325 25.5531C38.8504 28.2375 39.5 31.256 39.5 32.7045Z" fill="white" stroke="black" stroke-width="3"/>
</svg>
