<svg width="32" height="32" viewBox="0 0 32 32" fill="none" xmlns="http://www.w3.org/2000/svg">
<rect x="10.0771" y="9.14258" width="11.8461" height="17.1429" rx="5.92304" stroke="black" stroke-width="2"/>
<path d="M10.077 21.1445V21.1445C8.20772 21.1445 6.69238 22.6599 6.69238 24.5291V28.0017" stroke="black" stroke-width="2"/>
<path d="M21.923 21.1445V21.1445C23.7923 21.1445 25.3076 22.6599 25.3076 24.5291V28.0017" stroke="black" stroke-width="2"/>
<path d="M21.923 14.2871V14.2871C23.7923 14.2871 25.3076 12.7718 25.3076 10.9025V7.42996" stroke="black" stroke-width="2"/>
<path d="M10.077 14.2871V14.2871C8.20772 14.2871 6.69238 12.7718 6.69238 10.9025V7.42996" stroke="black" stroke-width="2"/>
<path d="M9.23074 17.7148H5" stroke="black" stroke-width="2"/>
<path d="M27.0003 17.7148H22.7695" stroke="black" stroke-width="2"/>
<path d="M10.0771 14.2871H16.0002M21.9232 14.2871H16.0002M16.0002 14.2871V26.2871" stroke="black" stroke-width="2"/>
<path d="M20.231 4V5.71429V5.71429C20.231 7.60784 18.696 9.14286 16.8024 9.14286H15.1981C13.3046 9.14286 11.7695 7.60784 11.7695 5.71429V5.71429V4" stroke="black" stroke-width="2"/>
</svg>
