<svg width="47" height="47" viewBox="0 0 47 47" fill="none" xmlns="http://www.w3.org/2000/svg">
<path d="M24.16 8C32.9152 8 40 15.1564 40 24C40 32.8436 32.9152 40 24.16 40C15.4048 40 8.32 34.2982 8.32 25.4545V19.6364M4 24L8.32 19.6364M8.32 19.6364L12.64 24" stroke="black" stroke-width="3" stroke-miterlimit="10" stroke-linecap="round" stroke-linejoin="round"/>
<path d="M18.6993 25.3121L17.6723 26.4053L17.6723 26.4053L18.6993 25.3121ZM18.6993 20.6254L17.6723 19.5322L18.6993 20.6254ZM24.0454 31.003L23.0183 32.0963C23.5856 32.7001 24.5052 32.7001 25.0724 32.0963L24.0454 31.003ZM28.448 26.3163L29.475 27.4096C29.7474 27.1197 29.9004 26.7264 29.9004 26.3163C29.9004 25.9063 29.7474 25.513 29.475 25.2231L28.448 26.3163ZM28.4472 26.3156L27.4202 25.2223C27.1479 25.5123 26.9948 25.9055 26.9948 26.3156C26.9948 26.7256 27.1479 27.1189 27.4202 27.4089L28.4472 26.3156ZM29.3908 25.3112L28.3637 24.2179L29.3908 25.3112ZM24.9882 20.6246L23.9611 19.5313L24.9882 20.6246ZM24.0446 21.6289L23.0176 22.7222C23.5848 23.326 24.5045 23.326 25.0717 22.7222L24.0446 21.6289ZM19.7264 24.2188C19.0778 23.5284 19.0778 22.4091 19.7264 21.7187L17.6723 19.5322C15.8894 21.4301 15.8894 24.5074 17.6723 26.4053L19.7264 24.2188ZM25.0724 29.9097L19.7264 24.2188L17.6723 26.4053L23.0183 32.0963L25.0724 29.9097ZM27.4209 25.2231L23.0183 29.9097L25.0724 32.0963L29.475 27.4096L27.4209 25.2231ZM27.4202 27.4089L27.4209 27.4096L29.475 25.2231L29.4743 25.2223L27.4202 27.4089ZM28.3637 24.2179L27.4202 25.2223L29.4743 27.4089L30.4178 26.4045L28.3637 24.2179ZM28.3637 21.7178C29.0123 22.4082 29.0123 23.5276 28.3637 24.2179L30.4178 26.4045C32.2007 24.5065 32.2007 21.4293 30.4178 19.5313L28.3637 21.7178ZM26.0152 21.7178C26.6637 21.0275 27.7152 21.0275 28.3637 21.7178L30.4178 19.5313C28.6348 17.6333 25.7441 17.6333 23.9611 19.5313L26.0152 21.7178ZM25.0717 22.7222L26.0152 21.7178L23.9611 19.5313L23.0176 20.5357L25.0717 22.7222ZM22.0749 21.7187L23.0176 22.7222L25.0717 20.5357L24.129 19.5322L22.0749 21.7187ZM19.7264 21.7187C20.3749 21.0283 21.4264 21.0283 22.0749 21.7187L24.129 19.5322C22.346 17.6342 19.4553 17.6342 17.6723 19.5322L19.7264 21.7187Z" fill="black"/>
</svg>
