<svg width="32" height="32" viewBox="0 0 32 32" fill="none" xmlns="http://www.w3.org/2000/svg">
<path d="M25 18.6176C25 22.8057 20.8667 26 16 26C11.1333 26 7 22.8057 7 18.6176C7 16.4515 8.06741 14.0271 9.79101 12.1294C11.5142 10.2321 13.7641 9 16 9C18.2359 9 20.4858 10.2321 22.209 12.1294C23.9326 14.0271 25 16.4515 25 18.6176Z" stroke="black" stroke-width="2"/>
<path fill-rule="evenodd" clip-rule="evenodd" d="M24.3957 15.8405C25.8115 15.3913 26.8374 14.0664 26.8374 12.5019C26.8374 10.5679 25.2695 9 23.3355 9C21.924 9 20.7075 9.83508 20.1532 11.0381C19.5687 10.7254 18.9464 10.4741 18.2949 10.293C19.1458 8.35417 21.0825 7 23.3355 7C26.3741 7 28.8374 9.4633 28.8374 12.5019C28.8374 14.9956 27.1784 17.1018 24.904 17.777C24.8047 17.105 24.6325 16.4567 24.3957 15.8405Z" fill="black"/>
<path fill-rule="evenodd" clip-rule="evenodd" d="M11.7216 10.7933C11.1223 9.72328 9.97765 9 8.66403 9C6.72997 9 5.16211 10.5679 5.16211 12.5019C5.16211 14.3003 6.51773 15.7821 8.26285 15.9811C8.10672 16.6187 8.01725 17.2824 8.00226 17.9645C5.27566 17.6376 3.16211 15.3166 3.16211 12.5019C3.16211 9.4633 5.62541 7 8.66403 7C10.7149 7 12.5037 8.12213 13.45 9.78592C12.8352 10.0591 12.2562 10.3978 11.7216 10.7933Z" fill="black"/>
<circle cx="12.25" cy="18.25" r="1.25" fill="black"/>
<circle cx="19.75" cy="18.25" r="1.25" fill="black"/>
<rect x="15" y="19" width="2" height="4" rx="1" fill="black" stroke="black"/>
</svg>
