<svg width="32" height="32" viewBox="0 0 32 32" fill="none" xmlns="http://www.w3.org/2000/svg">
<path d="M2 20C3.8 20 4.7 18 6.5 18C8.3 18 9.2 20 11 20" stroke="black" stroke-width="2"/>
<path d="M11 20C13 20 14 18 16 18C18 18 19 20 21 20" stroke="black" stroke-width="2"/>
<path d="M21 20C22.8 20 23.7 18 25.5 18C27.3 18 28.2 20 30 20" stroke="black" stroke-width="2"/>
<path d="M2 15C3.8 15 4.7 13 6.5 13C8.3 13 9.2 15 11 15" stroke="black" stroke-width="2"/>
<path d="M11 15C13 15 14 13 16 13C18 13 19 15 21 15" stroke="black" stroke-width="2"/>
<path d="M21 15C22.8 15 23.7 13 25.5 13C27.3 13 28.2 15 30 15" stroke="black" stroke-width="2"/>
<path d="M2 25C3.8 25 4.7 23 6.5 23C8.3 23 9.2 25 11 25" stroke="black" stroke-width="2"/>
<path d="M11 25C13 25 14 23 16 23C18 23 19 25 21 25" stroke="black" stroke-width="2"/>
<path d="M21 25C22.8 25 23.7 23 25.5 23C27.3 23 28.2 25 30 25" stroke="black" stroke-width="2"/>
</svg>
