<svg width="47" height="47" viewBox="0 0 47 47" fill="none" xmlns="http://www.w3.org/2000/svg">
<g clip-path="url(#clip0_719_3750)">
<circle cx="23.4463" cy="23.4941" r="16.4941" stroke="black" stroke-width="3"/>
<path d="M15.6558 8.57031C15.6558 10.3047 14.915 13.585 18.4737 13.123C20.9785 12.7978 20.6656 15.3993 23.1704 14.749C25.2298 14.1504 25.1751 11.3936 27.5538 13.123C30.0587 14.9441 33.3985 13.123 34.4422 12.1474" stroke="black" stroke-width="3"/>
<path d="M36.7987 33.7041C36.406 32.395 34.678 29.6984 30.9079 29.3842C26.1953 28.9915 23.4463 30.1696 23.4463 32.9186C23.4463 35.6677 28.9443 34.4895 25.8026 39.9875" stroke="black" stroke-width="3"/>
<path d="M6.55957 24.2791C7.86863 22.9701 9.93694 19.6451 12.4503 21.5301C15.5921 23.8864 15.8905 22.5708 17.5556 21.5301C20.6974 19.5665 24.2318 28.599 18.3411 28.2063C14.345 27.9399 12.6378 29.9646 14.8066 32.1335C15.9848 33.3116 17.5556 34.4898 15.9848 37.2388" stroke="black" stroke-width="3"/>
</g>
<defs>
<clipPath id="clip0_719_3750">
<rect width="47" height="47" fill="white"/>
</clipPath>
</defs>
</svg>
