<svg width="32" height="32" viewBox="0 0 32 32" fill="none" xmlns="http://www.w3.org/2000/svg">
<mask id="path-1-inside-1_944_2611" fill="white">
<path fill-rule="evenodd" clip-rule="evenodd" d="M11.0218 8.35254C11.5073 8.12606 12.046 8 12.6132 8C14.3625 8 15.8409 9.19913 16.3204 10.8453L25.7001 12.2812C26.1421 12.0998 26.6241 12 27.1287 12C29.2666 12 30.9997 13.7909 30.9997 16C30.9997 17.8646 29.7651 19.4312 28.0945 19.8745C28.0957 19.9162 28.0964 19.958 28.0964 20C28.0964 22.209 26.3635 23.9997 24.2259 24H24.2254H8.74212H8.74194C4.46618 24 1 20.4183 1 16C1 11.5817 4.46618 8 8.74194 8C9.53545 8 10.3011 8.12336 11.0218 8.35254Z"/>
</mask>
<path d="M11.0218 8.35254L10.4158 10.2585L11.1599 10.4951L11.8675 10.165L11.0218 8.35254ZM16.3204 10.8453L14.4002 11.4047L14.7569 12.6293L16.0178 12.8223L16.3204 10.8453ZM25.7001 12.2812L25.3974 14.2582L25.9462 14.3422L26.4597 14.1314L25.7001 12.2812ZM28.0945 19.8745L27.5815 17.9414L26.0481 18.3484L26.0954 19.9342L28.0945 19.8745ZM24.2259 24L24.2259 26L24.2261 26L24.2259 24ZM11.8675 10.165C12.0949 10.0588 12.3456 10 12.6132 10V6C11.7463 6 10.9196 6.19327 10.1762 6.54011L11.8675 10.165ZM12.6132 10C13.4118 10 14.1517 10.5515 14.4002 11.4047L18.2406 10.286C17.5301 7.84677 15.3133 6 12.6132 6V10ZM16.0178 12.8223L25.3974 14.2582L26.0027 10.3043L16.623 8.86837L16.0178 12.8223ZM26.4597 14.1314C26.6658 14.0467 26.8902 14 27.1287 14V10C26.3581 10 25.6184 10.1528 24.9405 10.4311L26.4597 14.1314ZM27.1287 14C28.1007 14 28.9997 14.8331 28.9997 16H32.9997C32.9997 12.7486 30.4325 10 27.1287 10V14ZM28.9997 16C28.9997 16.9755 28.3583 17.7353 27.5815 17.9414L28.6075 21.8076C31.1719 21.1271 32.9997 18.7537 32.9997 16H28.9997ZM26.0954 19.9342C26.096 19.9559 26.0964 19.9779 26.0964 20H30.0964C30.0964 19.9381 30.0954 19.8764 30.0936 19.8148L26.0954 19.9342ZM26.0964 20C26.0964 21.1668 25.1975 21.9999 24.2256 22L24.2261 26C27.5295 25.9996 30.0964 23.2511 30.0964 20H26.0964ZM24.2259 22H24.2254V26H24.2259V22ZM24.2254 22H8.74212V26H24.2254V22ZM8.74212 22H8.74194V26H8.74212V22ZM8.74194 22C5.63206 22 3 19.376 3 16H-1C-1 21.4605 3.3003 26 8.74194 26V22ZM3 16C3 12.624 5.63206 10 8.74194 10V6C3.3003 6 -1 10.5395 -1 16H3ZM8.74194 10C9.3269 10 9.88824 10.0908 10.4158 10.2585L11.6279 6.44656C10.7139 6.15596 9.744 6 8.74194 6V10Z" fill="black" mask="url(#path-1-inside-1_944_2611)"/>
<mask id="path-3-inside-2_944_2611" fill="white">
<path d="M14.0649 21L12.6133 20H15.5165L14.0649 21Z"/>
</mask>
<path d="M12.6133 20V19H9.39895L12.046 20.8235L12.6133 20ZM14.0649 21L13.4976 21.8235L14.0649 22.2143L14.6322 21.8235L14.0649 21ZM15.5165 20L16.0838 20.8235L18.7308 19H15.5165V20ZM12.046 20.8235L13.4976 21.8235L14.6322 20.1765L13.1806 19.1765L12.046 20.8235ZM14.6322 21.8235L16.0838 20.8235L14.9492 19.1765L13.4976 20.1765L14.6322 21.8235ZM15.5165 19H12.6133V21H15.5165V19Z" fill="black" mask="url(#path-3-inside-2_944_2611)"/>
<mask id="path-5-inside-3_944_2611" fill="white">
<path d="M18.9028 21L17.4512 20H20.3544L18.9028 21Z"/>
</mask>
<path d="M17.4512 20V19H14.2368L16.8839 20.8235L17.4512 20ZM18.9028 21L18.3355 21.8235L18.9028 22.2143L19.4701 21.8235L18.9028 21ZM20.3544 20L20.9217 20.8235L23.5687 19H20.3544V20ZM16.8839 20.8235L18.3355 21.8235L19.4701 20.1765L18.0185 19.1765L16.8839 20.8235ZM19.4701 21.8235L20.9217 20.8235L19.7871 19.1765L18.3355 20.1765L19.4701 21.8235ZM20.3544 19H17.4512V21H20.3544V19Z" fill="black" mask="url(#path-5-inside-3_944_2611)"/>
<mask id="path-7-inside-4_944_2611" fill="white">
<path d="M23.7417 21L22.29 20H25.1933L23.7417 21Z"/>
</mask>
<path d="M22.29 20V19H19.0757L21.7227 20.8235L22.29 20ZM23.7417 21L23.1743 21.8235L23.7417 22.2143L24.309 21.8235L23.7417 21ZM25.1933 20L25.7606 20.8235L28.4076 19H25.1933V20ZM21.7227 20.8235L23.1743 21.8235L24.309 20.1765L22.8573 19.1765L21.7227 20.8235ZM24.309 21.8235L25.7606 20.8235L24.626 19.1765L23.1743 20.1765L24.309 21.8235ZM25.1933 19H22.29V21H25.1933V19Z" fill="black" mask="url(#path-7-inside-4_944_2611)"/>
<line x1="10.6777" y1="19" x2="28.0971" y2="19" stroke="black" stroke-width="2"/>
<ellipse cx="12.6132" cy="12" rx="0.967742" ry="1" fill="black"/>
<ellipse cx="27.1289" cy="16" rx="0.967742" ry="1" fill="black"/>
</svg>
