<svg width="32" height="32" viewBox="0 0 32 32" fill="none" xmlns="http://www.w3.org/2000/svg">
<line x1="2" y1="28" x2="30" y2="28" stroke="black" stroke-width="2"/>
<mask id="path-2-inside-1_944_2265" fill="white">
<path d="M13 8C13 6.34315 14.3431 5 16 5V5C17.6569 5 19 6.34315 19 8V29H13V8Z"/>
</mask>
<path d="M19 29V31H21V29H19ZM13 29H11V31H13V29ZM17 8V29H21V8H17ZM19 27H13V31H19V27ZM15 29V8H11V29H15ZM16 7C16.5523 7 17 7.44772 17 8H21C21 5.23858 18.7614 3 16 3V7ZM16 3C13.2386 3 11 5.23858 11 8H15C15 7.44772 15.4477 7 16 7V3Z" fill="black" mask="url(#path-2-inside-1_944_2265)"/>
<mask id="path-4-inside-2_944_2265" fill="white">
<path fill-rule="evenodd" clip-rule="evenodd" d="M15 14V18V19V22H12C10.3431 22 9 20.6569 9 19V14C9 12.3431 10.3431 11 12 11C13.6569 11 15 12.3431 15 14Z"/>
</mask>
<path d="M15 22V24H17V22H15ZM17 18V14H13V18H17ZM17 19V18H13V19H17ZM17 22V19H13V22H17ZM12 24H15V20H12V24ZM7 19C7 21.7614 9.23858 24 12 24V20C11.4477 20 11 19.5523 11 19H7ZM7 14V19H11V14H7ZM12 9C9.23858 9 7 11.2386 7 14H11C11 13.4477 11.4477 13 12 13V9ZM17 14C17 11.2386 14.7614 9 12 9V13C12.5523 13 13 13.4477 13 14H17Z" fill="black" mask="url(#path-4-inside-2_944_2265)"/>
<line x1="14" y1="18" x2="14" y2="12" stroke="black" stroke-width="2"/>
<line x1="13" y1="19" x2="17" y2="19" stroke="white" stroke-width="2"/>
<mask id="path-8-inside-3_944_2265" fill="white">
<path fill-rule="evenodd" clip-rule="evenodd" d="M17 17V21V22V25H20C21.6569 25 23 23.6569 23 22V17C23 15.3431 21.6569 14 20 14C18.3431 14 17 15.3431 17 17Z"/>
</mask>
<path d="M17 25V27H15V25H17ZM15 21V17H19V21H15ZM15 22V21H19V22H15ZM15 25V22H19V25H15ZM20 27H17V23H20V27ZM25 22C25 24.7614 22.7614 27 20 27V23C20.5523 23 21 22.5523 21 22H25ZM25 17V22H21V17H25ZM20 12C22.7614 12 25 14.2386 25 17H21C21 16.4477 20.5523 16 20 16V12ZM15 17C15 14.2386 17.2386 12 20 12V16C19.4477 16 19 16.4477 19 17H15Z" fill="black" mask="url(#path-8-inside-3_944_2265)"/>
<line y1="-1" x2="6" y2="-1" transform="matrix(-1.19249e-08 -1 -1 2.11998e-08 17 21)" stroke="black" stroke-width="2"/>
<line y1="-1" x2="4" y2="-1" transform="matrix(-1 -3.09534e-09 -2.36987e-09 1 19 23)" stroke="white" stroke-width="2"/>
</svg>
