<svg width="47" height="47" viewBox="0 0 47 47" fill="none" xmlns="http://www.w3.org/2000/svg">
<path d="M30.8166 29.3943L31.9013 28.3583C31.6183 28.0619 31.2263 27.8943 30.8166 27.8943V29.3943ZM35.9076 34.7246L34.8229 35.7606C35.2463 36.2039 35.8968 36.3449 36.4657 36.1169C37.0347 35.8888 37.4076 35.3375 37.4076 34.7246H35.9076ZM35.9076 29.3943V27.8943C35.0792 27.8943 34.4076 28.5659 34.4076 29.3943H35.9076ZM17.0371 12C17.0371 10.067 18.6041 8.5 20.5371 8.5V5.5C16.9473 5.5 14.0371 8.41016 14.0371 12H17.0371ZM17.0371 24.3943V12H14.0371V24.3943H17.0371ZM20.5371 27.8943C18.6041 27.8943 17.0371 26.3273 17.0371 24.3943H14.0371C14.0371 27.9842 16.9473 30.8943 20.5371 30.8943V27.8943ZM30.8166 27.8943H20.5371V30.8943H30.8166V27.8943ZM29.7319 30.4304L34.8229 35.7606L36.9924 33.6885L31.9013 28.3583L29.7319 30.4304ZM37.4076 34.7246V29.3943H34.4076V34.7246H37.4076ZM36.0007 27.8943H35.9076V30.8943H36.0007V27.8943ZM39.5007 24.3943C39.5007 26.3273 37.9337 27.8943 36.0007 27.8943V30.8943C39.5905 30.8943 42.5007 27.9842 42.5007 24.3943H39.5007ZM39.5007 12V24.3943H42.5007V12H39.5007ZM36.0007 8.5C37.9337 8.5 39.5007 10.067 39.5007 12H42.5007C42.5007 8.41015 39.5905 5.5 36.0007 5.5V8.5ZM20.5371 8.5H36.0007V5.5H20.5371V8.5Z" fill="black"/>
<path d="M15.5371 21H17.0371C17.0371 20.1716 16.3655 19.5 15.5371 19.5V21ZM25 29.3943H26.5C26.5 28.5659 25.8284 27.8943 25 27.8943V29.3943ZM13 38V36.5C12.6022 36.5 12.2206 36.658 11.9393 36.9393L13 38ZM9 42H7.5C7.5 42.6067 7.86546 43.1536 8.42597 43.3858C8.98649 43.618 9.63166 43.4897 10.0607 43.0607L9 42ZM9 37.9H10.5C10.5 37.1866 9.99754 36.5719 9.2984 36.43L9 37.9ZM14.0371 21V24.3943H17.0371V21H14.0371ZM14.0371 24.3943C14.0371 27.9842 16.9473 30.8943 20.5371 30.8943V27.8943C18.6041 27.8943 17.0371 26.3273 17.0371 24.3943H14.0371ZM20.5371 30.8943H25V27.8943H20.5371V30.8943ZM26.5 33V29.3943H23.5V33H26.5ZM20 39.5C23.5898 39.5 26.5 36.5899 26.5 33H23.5C23.5 34.933 21.933 36.5 20 36.5V39.5ZM13 39.5H20V36.5H13V39.5ZM10.0607 43.0607L14.0607 39.0607L11.9393 36.9393L7.93934 40.9393L10.0607 43.0607ZM7.5 37.9V42H10.5V37.9H7.5ZM3.5 33C3.5 36.1464 5.73406 38.7676 8.7016 39.37L9.2984 36.43C7.70146 36.1058 6.5 34.6915 6.5 33H3.5ZM3.5 26V33H6.5V26H3.5ZM10 19.5C6.41015 19.5 3.5 22.4101 3.5 26H6.5C6.5 24.067 8.067 22.5 10 22.5V19.5ZM15.5371 19.5H10V22.5H15.5371V19.5Z" fill="black"/>
</svg>
