<svg width="216" height="70" viewBox="0 0 216 70" fill="none" xmlns="http://www.w3.org/2000/svg">
<path d="M75.8921 15.6789C78.7721 15.6789 81.2888 16.2497 83.4423 17.3913C85.5958 18.533 87.2564 20.1416 88.424 22.2173C89.6175 24.267 90.2142 26.6411 90.2142 29.3395C90.2142 32.0119 89.6175 34.3859 88.424 36.4616C87.2564 38.5373 85.5829 40.1459 83.4034 41.2876C81.2499 42.4292 78.7461 43 75.8921 43H65.6564V15.6789H75.8921ZM75.464 37.24C77.9807 37.24 79.9396 36.5524 81.3407 35.1773C82.7418 33.8022 83.4423 31.8562 83.4423 29.3395C83.4423 26.8227 82.7418 24.8638 81.3407 23.4627C79.9396 22.0616 77.9807 21.3611 75.464 21.3611H72.3115V37.24H75.464Z" fill="#D64741"/>
<path d="M100.9 37.8627H109.618V43H94.2448V15.6789H100.9V37.8627ZM121.705 15.6789V43H115.049V15.6789H121.705ZM138.67 43.2724C136.672 43.2724 134.882 42.9481 133.299 42.2995C131.717 41.6508 130.445 40.6908 129.485 39.4195C128.551 38.1481 128.058 36.6173 128.006 34.827H135.09C135.193 35.8389 135.544 36.6173 136.14 37.1622C136.737 37.6811 137.516 37.9405 138.476 37.9405C139.461 37.9405 140.24 37.72 140.811 37.2789C141.381 36.8119 141.667 36.1762 141.667 35.3719C141.667 34.6973 141.433 34.1395 140.966 33.6984C140.525 33.2573 139.967 32.8941 139.293 32.6086C138.644 32.3232 137.71 31.9989 136.491 31.6357C134.726 31.0908 133.286 30.5459 132.171 30.0011C131.055 29.4562 130.095 28.6519 129.291 27.5881C128.486 26.5243 128.084 25.1362 128.084 23.4238C128.084 20.8811 129.005 18.8962 130.847 17.4692C132.69 16.0162 135.09 15.2897 138.047 15.2897C141.057 15.2897 143.483 16.0162 145.325 17.4692C147.167 18.8962 148.153 20.894 148.283 23.4627H141.083C141.031 22.5805 140.707 21.893 140.11 21.4C139.513 20.8811 138.748 20.6216 137.814 20.6216C137.01 20.6216 136.361 20.8422 135.868 21.2832C135.375 21.6984 135.128 22.3081 135.128 23.1124C135.128 23.9946 135.544 24.6822 136.374 25.1751C137.204 25.6681 138.501 26.2 140.266 26.7708C142.03 27.3676 143.457 27.9384 144.547 28.4832C145.663 29.0281 146.623 29.8195 147.427 30.8573C148.231 31.8951 148.633 33.2313 148.633 34.8659C148.633 36.4227 148.231 37.8368 147.427 39.1081C146.648 40.3795 145.507 41.3914 144.002 42.1438C142.497 42.8962 140.72 43.2724 138.67 43.2724ZM172.694 15.6789V21.0108H165.455V43H158.8V21.0108H151.561V15.6789H172.694Z" fill="black"/>
<path d="M16.346 43L10.6638 32.6865H9.06811V43H2.41297V15.6789H13.5827C15.7362 15.6789 17.5654 16.0551 19.0703 16.8076C20.6011 17.56 21.7427 18.5978 22.4951 19.9211C23.2476 21.2184 23.6238 22.6713 23.6238 24.28C23.6238 26.0962 23.1049 27.7178 22.067 29.1449C21.0551 30.5719 19.5503 31.5838 17.5524 32.1805L23.8573 43H16.346ZM9.06811 27.9773H13.1935C14.413 27.9773 15.3211 27.6789 15.9178 27.0822C16.5405 26.4854 16.8519 25.6422 16.8519 24.5524C16.8519 23.5146 16.5405 22.6973 15.9178 22.1005C15.3211 21.5038 14.413 21.2054 13.1935 21.2054H9.06811V27.9773Z" fill="#D64741"/>
<path fill-rule="evenodd" clip-rule="evenodd" d="M37.46 18.4871C37.46 17.1437 38.549 16.0547 39.8924 16.0547H57.4059C58.7493 16.0547 59.8383 17.1437 59.8383 18.4871C59.8383 19.8305 58.7493 20.9196 57.4059 20.9196H39.8924C38.549 20.9196 37.46 19.8305 37.46 18.4871ZM37.46 29.1898C37.46 27.8464 38.549 26.7574 39.8924 26.7574H57.4059C58.7493 26.7574 59.8383 27.8464 59.8383 29.1898C59.8383 30.5332 58.7493 31.6223 57.4059 31.6223H39.8924C38.549 31.6223 37.46 30.5332 37.46 29.1898ZM37.46 39.8925C37.46 38.5491 38.549 37.4601 39.8924 37.4601H57.4059C58.7493 37.4601 59.8383 38.5491 59.8383 39.8925C59.8383 41.2359 58.7493 42.325 57.4059 42.325H39.8924C38.549 42.325 37.46 41.2359 37.46 39.8925Z" fill="#D64741"/>
<circle cx="32.1084" cy="18.4853" r="2.91892" fill="#D64741"/>
<circle cx="32.1084" cy="29.1904" r="2.91892" fill="#D64741"/>
<circle cx="32.1084" cy="39.8935" r="2.91892" fill="#D64741"/>
</svg>
