<svg width="171" height="29" viewBox="0 0 171 29" fill="none" xmlns="http://www.w3.org/2000/svg">
<path d="M73.8919 0.678984H63.6562V28.0001H73.8919C82.6098 28.0001 88.2141 22.4347 88.2141 14.3395C88.2141 6.20547 82.6098 0.678984 73.8919 0.678984ZM70.3114 22.2401V6.36115H73.4638C78.4844 6.36115 81.4422 9.31899 81.4422 14.3395C81.4422 19.3601 78.4844 22.2401 73.4638 22.2401H70.3114Z" fill="black"/>
<path d="M92.2446 0.678984V28.0001H107.618V22.8628H98.8998V0.678984H92.2446Z" fill="black"/>
<path d="M113.049 28.0001H119.704V0.678984H113.049V28.0001Z" fill="black"/>
<path d="M146.633 19.866C146.633 10.7201 133.128 12.8606 133.128 8.1125C133.128 6.40007 134.335 5.58277 135.931 5.62169C137.721 5.66061 138.966 6.71142 139.083 8.46277H146.283C146.011 3.24763 142.002 0.289795 136.047 0.289795C130.326 0.289795 126.084 3.16979 126.084 8.34601C126.006 18.0368 139.667 15.3125 139.667 20.372C139.667 21.9676 138.421 22.9406 136.475 22.9406C134.607 22.9406 133.284 21.9287 133.089 19.8271H126.006C126.201 25.3536 130.793 28.2725 136.67 28.2725C143.053 28.2725 146.633 24.4585 146.633 19.866Z" fill="black"/>
<path d="M149.561 6.01088H156.8V28.0001H163.455V6.01088H170.694V0.678984H149.561V6.01088Z" fill="black"/>
<path d="M14.852 9.55247C14.852 11.693 13.6844 12.9773 11.1936 12.9773H7.06822V6.20544H11.1936C13.6844 6.20544 14.852 7.52869 14.852 9.55247ZM0.413086 0.678955V28H7.06822V17.6865H8.6639L14.3461 28H21.8574L15.5526 17.1806C19.7558 15.9352 21.6239 12.7049 21.6239 9.28004C21.6239 4.53193 18.2769 0.678955 11.5828 0.678955H0.413086Z" fill="#D64741"/>
<path fill-rule="evenodd" clip-rule="evenodd" d="M35.46 3.48639C35.46 2.14299 36.549 1.05396 37.8924 1.05396H55.4059C56.7493 1.05396 57.8383 2.14299 57.8383 3.48639C57.8383 4.82978 56.7493 5.91882 55.4059 5.91882H37.8924C36.549 5.91882 35.46 4.82978 35.46 3.48639ZM35.46 14.1891C35.46 12.8457 36.549 11.7567 37.8924 11.7567H55.4059C56.7493 11.7567 57.8383 12.8457 57.8383 14.1891C57.8383 15.5325 56.7493 16.6215 55.4059 16.6215H37.8924C36.549 16.6215 35.46 15.5325 35.46 14.1891ZM35.46 24.8918C35.46 23.5484 36.549 22.4594 37.8924 22.4594H55.4059C56.7493 22.4594 57.8383 23.5484 57.8383 24.8918C57.8383 26.2352 56.7493 27.3242 55.4059 27.3242H37.8924C36.549 27.3242 35.46 26.2352 35.46 24.8918Z" fill="#D64741"/>
<circle cx="30.1084" cy="3.48533" r="2.91892" fill="#D64741"/>
<circle cx="30.1084" cy="14.1904" r="2.91892" fill="#D64741"/>
<circle cx="30.1084" cy="24.8935" r="2.91892" fill="#D64741"/>
</svg>
