<svg width="1108" height="554" viewBox="0 0 1108 554" fill="none" xmlns="http://www.w3.org/2000/svg">
<path d="M28.8975 69.3496V66.7256H24.4015V65.4776L28.4335 59.1736H30.6255V65.3016H31.9055V66.7256H30.6255V69.3496H28.8975ZM26.2255 65.3016H28.8975V62.9976C28.8975 62.6989 28.9029 62.3469 28.9135 61.9416C28.9349 61.5363 28.9562 61.1843 28.9775 60.8856H28.9135C28.7855 61.1523 28.6522 61.4136 28.5135 61.6696C28.3749 61.9256 28.2309 62.1923 28.0815 62.4696L26.2255 65.3016ZM36.4127 69.5416C35.346 69.5416 34.5033 69.0883 33.8847 68.1816C33.266 67.2643 32.9567 65.9416 32.9567 64.2136C32.9567 62.4856 33.266 61.1843 33.8847 60.3096C34.5033 59.4243 35.346 58.9816 36.4127 58.9816C37.4793 58.9816 38.322 59.4243 38.9407 60.3096C39.5593 61.1949 39.8687 62.4963 39.8687 64.2136C39.8687 65.9416 39.5593 67.2643 38.9407 68.1816C38.322 69.0883 37.4793 69.5416 36.4127 69.5416ZM36.4127 68.1016C36.658 68.1016 36.882 68.0376 37.0847 67.9096C37.298 67.7709 37.4793 67.5469 37.6287 67.2376C37.778 66.9283 37.8953 66.5283 37.9807 66.0376C38.066 65.5469 38.1087 64.9389 38.1087 64.2136C38.1087 63.4989 38.066 62.9016 37.9807 62.4216C37.8953 61.9309 37.778 61.5363 37.6287 61.2376C37.4793 60.9389 37.298 60.7309 37.0847 60.6136C36.882 60.4856 36.658 60.4216 36.4127 60.4216C36.1673 60.4216 35.938 60.4856 35.7247 60.6136C35.522 60.7309 35.346 60.9389 35.1967 61.2376C35.0473 61.5363 34.93 61.9309 34.8447 62.4216C34.7593 62.9016 34.7167 63.4989 34.7167 64.2136C34.7167 64.9389 34.7593 65.5469 34.8447 66.0376C34.93 66.5283 35.0473 66.9283 35.1967 67.2376C35.346 67.5469 35.522 67.7709 35.7247 67.9096C35.938 68.0376 36.1673 68.1016 36.4127 68.1016ZM44.6158 69.5416C43.5491 69.5416 42.7064 69.0883 42.0878 68.1816C41.4691 67.2643 41.1598 65.9416 41.1598 64.2136C41.1598 62.4856 41.4691 61.1843 42.0878 60.3096C42.7064 59.4243 43.5491 58.9816 44.6158 58.9816C45.6824 58.9816 46.5251 59.4243 47.1438 60.3096C47.7624 61.1949 48.0718 62.4963 48.0718 64.2136C48.0718 65.9416 47.7624 67.2643 47.1438 68.1816C46.5251 69.0883 45.6824 69.5416 44.6158 69.5416ZM44.6158 68.1016C44.8611 68.1016 45.0851 68.0376 45.2878 67.9096C45.5011 67.7709 45.6824 67.5469 45.8318 67.2376C45.9811 66.9283 46.0984 66.5283 46.1838 66.0376C46.2691 65.5469 46.3118 64.9389 46.3118 64.2136C46.3118 63.4989 46.2691 62.9016 46.1838 62.4216C46.0984 61.9309 45.9811 61.5363 45.8318 61.2376C45.6824 60.9389 45.5011 60.7309 45.2878 60.6136C45.0851 60.4856 44.8611 60.4216 44.6158 60.4216C44.3704 60.4216 44.1411 60.4856 43.9278 60.6136C43.7251 60.7309 43.5491 60.9389 43.3998 61.2376C43.2504 61.5363 43.1331 61.9309 43.0478 62.4216C42.9624 62.9016 42.9198 63.4989 42.9198 64.2136C42.9198 64.9389 42.9624 65.5469 43.0478 66.0376C43.1331 66.5283 43.2504 66.9283 43.3998 67.2376C43.5491 67.5469 43.7251 67.7709 43.9278 67.9096C44.1411 68.0376 44.3704 68.1016 44.6158 68.1016ZM52.8189 69.5416C51.7522 69.5416 50.9096 69.0883 50.2909 68.1816C49.6722 67.2643 49.3629 65.9416 49.3629 64.2136C49.3629 62.4856 49.6722 61.1843 50.2909 60.3096C50.9096 59.4243 51.7522 58.9816 52.8189 58.9816C53.8856 58.9816 54.7282 59.4243 55.3469 60.3096C55.9656 61.1949 56.2749 62.4963 56.2749 64.2136C56.2749 65.9416 55.9656 67.2643 55.3469 68.1816C54.7282 69.0883 53.8856 69.5416 52.8189 69.5416ZM52.8189 68.1016C53.0642 68.1016 53.2882 68.0376 53.4909 67.9096C53.7042 67.7709 53.8856 67.5469 54.0349 67.2376C54.1842 66.9283 54.3016 66.5283 54.3869 66.0376C54.4722 65.5469 54.5149 64.9389 54.5149 64.2136C54.5149 63.4989 54.4722 62.9016 54.3869 62.4216C54.3016 61.9309 54.1842 61.5363 54.0349 61.2376C53.8856 60.9389 53.7042 60.7309 53.4909 60.6136C53.2882 60.4856 53.0642 60.4216 52.8189 60.4216C52.5736 60.4216 52.3442 60.4856 52.1309 60.6136C51.9282 60.7309 51.7522 60.9389 51.6029 61.2376C51.4536 61.5363 51.3362 61.9309 51.2509 62.4216C51.1656 62.9016 51.1229 63.4989 51.1229 64.2136C51.1229 64.9389 51.1656 65.5469 51.2509 66.0376C51.3362 66.5283 51.4536 66.9283 51.6029 67.2376C51.7522 67.5469 51.9282 67.7709 52.1309 67.9096C52.3442 68.0376 52.5736 68.1016 52.8189 68.1016ZM61.022 69.5416C59.9554 69.5416 59.1127 69.0883 58.494 68.1816C57.8754 67.2643 57.566 65.9416 57.566 64.2136C57.566 62.4856 57.8754 61.1843 58.494 60.3096C59.1127 59.4243 59.9554 58.9816 61.022 58.9816C62.0887 58.9816 62.9314 59.4243 63.55 60.3096C64.1687 61.1949 64.478 62.4963 64.478 64.2136C64.478 65.9416 64.1687 67.2643 63.55 68.1816C62.9314 69.0883 62.0887 69.5416 61.022 69.5416ZM61.022 68.1016C61.2674 68.1016 61.4914 68.0376 61.694 67.9096C61.9074 67.7709 62.0887 67.5469 62.238 67.2376C62.3874 66.9283 62.5047 66.5283 62.59 66.0376C62.6754 65.5469 62.718 64.9389 62.718 64.2136C62.718 63.4989 62.6754 62.9016 62.59 62.4216C62.5047 61.9309 62.3874 61.5363 62.238 61.2376C62.0887 60.9389 61.9074 60.7309 61.694 60.6136C61.4914 60.4856 61.2674 60.4216 61.022 60.4216C60.7767 60.4216 60.5474 60.4856 60.334 60.6136C60.1314 60.7309 59.9554 60.9389 59.806 61.2376C59.6567 61.5363 59.5394 61.9309 59.454 62.4216C59.3687 62.9016 59.326 63.4989 59.326 64.2136C59.326 64.9389 59.3687 65.5469 59.454 66.0376C59.5394 66.5283 59.6567 66.9283 59.806 67.2376C59.9554 67.5469 60.1314 67.7709 60.334 67.9096C60.5474 68.0376 60.7767 68.1016 61.022 68.1016Z" fill="#A9AEB8"/>
<path d="M19.9689 14.8541C19.2755 14.8541 18.7155 14.6461 18.2889 14.2301C17.8622 13.8034 17.6489 13.2434 17.6489 12.5501C17.6489 12.1341 17.7342 11.7661 17.9049 11.4461C18.0862 11.1154 18.3635 10.8328 18.7369 10.5981C19.1209 10.3634 19.6009 10.1661 20.1769 10.0061C20.7635 9.84611 21.4622 9.72344 22.2729 9.63811C22.2622 9.43544 22.2302 9.24344 22.1769 9.06211C22.1342 8.87011 22.0542 8.70478 21.9369 8.56611C21.8302 8.41678 21.6862 8.30478 21.5049 8.23011C21.3235 8.14478 21.0995 8.10211 20.8329 8.10211C20.4489 8.10211 20.0702 8.17678 19.6969 8.32611C19.3342 8.47544 18.9769 8.65678 18.6249 8.87011L17.9529 7.63811C18.3902 7.36078 18.8809 7.12078 19.4249 6.91811C19.9689 6.71544 20.5555 6.61411 21.1849 6.61411C22.1662 6.61411 22.8969 6.90744 23.3769 7.49411C23.8675 8.07011 24.1129 8.90744 24.1129 10.0061V14.6621H22.5929L22.4649 13.7981H22.4009C22.0489 14.0968 21.6702 14.3474 21.2649 14.5501C20.8702 14.7528 20.4382 14.8541 19.9689 14.8541ZM20.5609 13.4141C20.8809 13.4141 21.1689 13.3394 21.4249 13.1901C21.6915 13.0408 21.9742 12.8274 22.2729 12.5501V10.7901C21.7395 10.8541 21.2915 10.9394 20.9289 11.0461C20.5662 11.1528 20.2729 11.2754 20.0489 11.4141C19.8249 11.5421 19.6649 11.6914 19.5689 11.8621C19.4729 12.0328 19.4249 12.2141 19.4249 12.4061C19.4249 12.7581 19.5315 13.0141 19.7449 13.1741C19.9582 13.3341 20.2302 13.4141 20.5609 13.4141ZM26.3149 14.6621V6.80611H27.8349L27.9629 7.86211H28.0269C28.3789 7.52078 28.7575 7.22744 29.1629 6.98211C29.5789 6.73678 30.0589 6.61411 30.6029 6.61411C31.4455 6.61411 32.0589 6.88611 32.4429 7.43011C32.8269 7.96344 33.0189 8.73144 33.0189 9.73411V14.6621H31.1789V9.97411C31.1789 9.32344 31.0829 8.86478 30.8909 8.59811C30.6989 8.33144 30.3842 8.19811 29.9469 8.19811C29.6055 8.19811 29.3015 8.28344 29.0349 8.45411C28.7789 8.61411 28.4855 8.85411 28.1549 9.17411V14.6621H26.3149ZM35.268 14.6621V6.80611H37.108V14.6621H35.268ZM36.196 5.43011C35.8653 5.43011 35.5933 5.33411 35.38 5.14211C35.1667 4.95011 35.06 4.69944 35.06 4.39011C35.06 4.08078 35.1667 3.83011 35.38 3.63811C35.5933 3.43544 35.8653 3.33411 36.196 3.33411C36.5267 3.33411 36.7987 3.43544 37.012 3.63811C37.2253 3.83011 37.332 4.08078 37.332 4.39011C37.332 4.69944 37.2253 4.95011 37.012 5.14211C36.7987 5.33411 36.5267 5.43011 36.196 5.43011ZM39.4555 14.6621V6.80611H40.9755L41.1035 7.87811H41.1675C41.4982 7.52611 41.8555 7.22744 42.2395 6.98211C42.6342 6.73678 43.0768 6.61411 43.5675 6.61411C44.1435 6.61411 44.6022 6.73678 44.9435 6.98211C45.2955 7.22744 45.5622 7.57411 45.7435 8.02211C46.1168 7.61678 46.5062 7.28078 46.9115 7.01411C47.3168 6.74744 47.7702 6.61411 48.2715 6.61411C49.1035 6.61411 49.7168 6.88611 50.1115 7.43011C50.5062 7.96344 50.7035 8.73144 50.7035 9.73411V14.6621H48.8475V9.97411C48.8475 9.32344 48.7462 8.86478 48.5435 8.59811C48.3515 8.33144 48.0528 8.19811 47.6475 8.19811C47.1568 8.19811 46.6075 8.52344 45.9995 9.17411V14.6621H44.1595V9.97411C44.1595 9.32344 44.0582 8.86478 43.8555 8.59811C43.6635 8.33144 43.3595 8.19811 42.9435 8.19811C42.4528 8.19811 41.9035 8.52344 41.2955 9.17411V14.6621H39.4555ZM54.8439 14.8541C54.1505 14.8541 53.5905 14.6461 53.1639 14.2301C52.7372 13.8034 52.5239 13.2434 52.5239 12.5501C52.5239 12.1341 52.6092 11.7661 52.7799 11.4461C52.9612 11.1154 53.2385 10.8328 53.6119 10.5981C53.9959 10.3634 54.4759 10.1661 55.0519 10.0061C55.6385 9.84611 56.3372 9.72344 57.1479 9.63811C57.1372 9.43544 57.1052 9.24344 57.0519 9.06211C57.0092 8.87011 56.9292 8.70478 56.8119 8.56611C56.7052 8.41678 56.5612 8.30478 56.3799 8.23011C56.1985 8.14478 55.9745 8.10211 55.7079 8.10211C55.3239 8.10211 54.9452 8.17678 54.5719 8.32611C54.2092 8.47544 53.8519 8.65678 53.4999 8.87011L52.8279 7.63811C53.2652 7.36078 53.7559 7.12078 54.2999 6.91811C54.8439 6.71544 55.4305 6.61411 56.0599 6.61411C57.0412 6.61411 57.7719 6.90744 58.2519 7.49411C58.7425 8.07011 58.9879 8.90744 58.9879 10.0061V14.6621H57.4679L57.3399 13.7981H57.2759C56.9239 14.0968 56.5452 14.3474 56.1399 14.5501C55.7452 14.7528 55.3132 14.8541 54.8439 14.8541ZM55.4359 13.4141C55.7559 13.4141 56.0439 13.3394 56.2999 13.1901C56.5665 13.0408 56.8492 12.8274 57.1479 12.5501V10.7901C56.6145 10.8541 56.1665 10.9394 55.8039 11.0461C55.4412 11.1528 55.1479 11.2754 54.9239 11.4141C54.6999 11.5421 54.5399 11.6914 54.4439 11.8621C54.3479 12.0328 54.2999 12.2141 54.2999 12.4061C54.2999 12.7581 54.4065 13.0141 54.6199 13.1741C54.8332 13.3341 55.1052 13.4141 55.4359 13.4141ZM62.9819 14.8541C62.3205 14.8541 61.8565 14.6568 61.5899 14.2621C61.3232 13.8674 61.1899 13.3288 61.1899 12.6461V3.36611H63.0299V12.7421C63.0299 12.9661 63.0725 13.1261 63.1579 13.2221C63.2432 13.3074 63.3339 13.3501 63.4299 13.3501C63.4725 13.3501 63.5099 13.3501 63.5419 13.3501C63.5845 13.3501 63.6432 13.3394 63.7179 13.3181L63.9579 14.6941C63.7125 14.8008 63.3872 14.8541 62.9819 14.8541ZM67.7256 14.8541C67.1816 14.8541 66.643 14.7528 66.1096 14.5501C65.587 14.3368 65.1336 14.0754 64.7496 13.7661L65.6136 12.5821C65.9656 12.8594 66.3123 13.0781 66.6536 13.2381C67.0056 13.3874 67.3843 13.4621 67.7896 13.4621C68.2163 13.4621 68.531 13.3768 68.7336 13.2061C68.9363 13.0248 69.0376 12.7954 69.0376 12.5181C69.0376 12.3581 68.9896 12.2194 68.8936 12.1021C68.7976 11.9741 68.6696 11.8621 68.5096 11.7661C68.3496 11.6701 68.1683 11.5848 67.9656 11.5101C67.763 11.4248 67.5603 11.3394 67.3576 11.2541C67.1016 11.1581 66.8403 11.0461 66.5736 10.9181C66.307 10.7901 66.067 10.6354 65.8536 10.4541C65.651 10.2728 65.4803 10.0648 65.3416 9.83011C65.2136 9.58478 65.1496 9.29678 65.1496 8.96611C65.1496 8.27278 65.4056 7.70744 65.9176 7.27011C66.4296 6.83278 67.1283 6.61411 68.0136 6.61411C68.5576 6.61411 69.0483 6.71011 69.4856 6.90211C69.923 7.09411 70.3016 7.31278 70.6216 7.55811L69.7736 8.67811C69.4963 8.47544 69.2136 8.31544 68.9256 8.19811C68.6483 8.07011 68.355 8.00611 68.0456 8.00611C67.651 8.00611 67.3576 8.09144 67.1656 8.26211C66.9843 8.42211 66.8936 8.62478 66.8936 8.87011C66.8936 9.03011 66.9363 9.16878 67.0216 9.28611C67.1176 9.39278 67.2403 9.48878 67.3896 9.57411C67.539 9.65944 67.7096 9.73944 67.9016 9.81411C68.1043 9.88878 68.3123 9.96344 68.5256 10.0381C68.7923 10.1341 69.059 10.2461 69.3256 10.3741C69.5923 10.4914 69.8323 10.6408 70.0456 10.8221C70.2696 11.0034 70.4456 11.2274 70.5736 11.4941C70.7123 11.7501 70.7816 12.0594 70.7816 12.4221C70.7816 12.7634 70.7123 13.0834 70.5736 13.3821C70.4456 13.6701 70.2536 13.9261 69.9976 14.1501C69.7416 14.3634 69.4216 14.5341 69.0376 14.6621C68.6536 14.7901 68.2163 14.8541 67.7256 14.8541Z" fill="#BCBCBC"/>
<path d="M25.2975 347.301V345.797H27.5695V339.109H25.6975V337.957C26.2095 337.861 26.6469 337.749 27.0095 337.621C27.3829 337.482 27.7295 337.317 28.0495 337.125H29.4255V345.797H31.4255V347.301H25.2975ZM36.4127 347.493C35.346 347.493 34.5033 347.039 33.8847 346.133C33.266 345.215 32.9567 343.893 32.9567 342.165C32.9567 340.437 33.266 339.135 33.8847 338.261C34.5033 337.375 35.346 336.933 36.4127 336.933C37.4793 336.933 38.322 337.375 38.9407 338.261C39.5593 339.146 39.8687 340.447 39.8687 342.165C39.8687 343.893 39.5593 345.215 38.9407 346.133C38.322 347.039 37.4793 347.493 36.4127 347.493ZM36.4127 346.053C36.658 346.053 36.882 345.989 37.0847 345.861C37.298 345.722 37.4793 345.498 37.6287 345.189C37.778 344.879 37.8953 344.479 37.9807 343.989C38.066 343.498 38.1087 342.89 38.1087 342.165C38.1087 341.45 38.066 340.853 37.9807 340.373C37.8953 339.882 37.778 339.487 37.6287 339.189C37.4793 338.89 37.298 338.682 37.0847 338.565C36.882 338.437 36.658 338.373 36.4127 338.373C36.1673 338.373 35.938 338.437 35.7247 338.565C35.522 338.682 35.346 338.89 35.1967 339.189C35.0473 339.487 34.93 339.882 34.8447 340.373C34.7593 340.853 34.7167 341.45 34.7167 342.165C34.7167 342.89 34.7593 343.498 34.8447 343.989C34.93 344.479 35.0473 344.879 35.1967 345.189C35.346 345.498 35.522 345.722 35.7247 345.861C35.938 345.989 36.1673 346.053 36.4127 346.053ZM44.6158 347.493C43.5491 347.493 42.7064 347.039 42.0878 346.133C41.4691 345.215 41.1598 343.893 41.1598 342.165C41.1598 340.437 41.4691 339.135 42.0878 338.261C42.7064 337.375 43.5491 336.933 44.6158 336.933C45.6824 336.933 46.5251 337.375 47.1438 338.261C47.7624 339.146 48.0718 340.447 48.0718 342.165C48.0718 343.893 47.7624 345.215 47.1438 346.133C46.5251 347.039 45.6824 347.493 44.6158 347.493ZM44.6158 346.053C44.8611 346.053 45.0851 345.989 45.2878 345.861C45.5011 345.722 45.6824 345.498 45.8318 345.189C45.9811 344.879 46.0984 344.479 46.1838 343.989C46.2691 343.498 46.3118 342.89 46.3118 342.165C46.3118 341.45 46.2691 340.853 46.1838 340.373C46.0984 339.882 45.9811 339.487 45.8318 339.189C45.6824 338.89 45.5011 338.682 45.2878 338.565C45.0851 338.437 44.8611 338.373 44.6158 338.373C44.3704 338.373 44.1411 338.437 43.9278 338.565C43.7251 338.682 43.5491 338.89 43.3998 339.189C43.2504 339.487 43.1331 339.882 43.0478 340.373C42.9624 340.853 42.9198 341.45 42.9198 342.165C42.9198 342.89 42.9624 343.498 43.0478 343.989C43.1331 344.479 43.2504 344.879 43.3998 345.189C43.5491 345.498 43.7251 345.722 43.9278 345.861C44.1411 345.989 44.3704 346.053 44.6158 346.053ZM52.8189 347.493C51.7522 347.493 50.9096 347.039 50.2909 346.133C49.6722 345.215 49.3629 343.893 49.3629 342.165C49.3629 340.437 49.6722 339.135 50.2909 338.261C50.9096 337.375 51.7522 336.933 52.8189 336.933C53.8856 336.933 54.7282 337.375 55.3469 338.261C55.9656 339.146 56.2749 340.447 56.2749 342.165C56.2749 343.893 55.9656 345.215 55.3469 346.133C54.7282 347.039 53.8856 347.493 52.8189 347.493ZM52.8189 346.053C53.0642 346.053 53.2882 345.989 53.4909 345.861C53.7042 345.722 53.8856 345.498 54.0349 345.189C54.1842 344.879 54.3016 344.479 54.3869 343.989C54.4722 343.498 54.5149 342.89 54.5149 342.165C54.5149 341.45 54.4722 340.853 54.3869 340.373C54.3016 339.882 54.1842 339.487 54.0349 339.189C53.8856 338.89 53.7042 338.682 53.4909 338.565C53.2882 338.437 53.0642 338.373 52.8189 338.373C52.5736 338.373 52.3442 338.437 52.1309 338.565C51.9282 338.682 51.7522 338.89 51.6029 339.189C51.4536 339.487 51.3362 339.882 51.2509 340.373C51.1656 340.853 51.1229 341.45 51.1229 342.165C51.1229 342.89 51.1656 343.498 51.2509 343.989C51.3362 344.479 51.4536 344.879 51.6029 345.189C51.7522 345.498 51.9282 345.722 52.1309 345.861C52.3442 345.989 52.5736 346.053 52.8189 346.053ZM61.022 347.493C59.9554 347.493 59.1127 347.039 58.494 346.133C57.8754 345.215 57.566 343.893 57.566 342.165C57.566 340.437 57.8754 339.135 58.494 338.261C59.1127 337.375 59.9554 336.933 61.022 336.933C62.0887 336.933 62.9314 337.375 63.55 338.261C64.1687 339.146 64.478 340.447 64.478 342.165C64.478 343.893 64.1687 345.215 63.55 346.133C62.9314 347.039 62.0887 347.493 61.022 347.493ZM61.022 346.053C61.2674 346.053 61.4914 345.989 61.694 345.861C61.9074 345.722 62.0887 345.498 62.238 345.189C62.3874 344.879 62.5047 344.479 62.59 343.989C62.6754 343.498 62.718 342.89 62.718 342.165C62.718 341.45 62.6754 340.853 62.59 340.373C62.5047 339.882 62.3874 339.487 62.238 339.189C62.0887 338.89 61.9074 338.682 61.694 338.565C61.4914 338.437 61.2674 338.373 61.022 338.373C60.7767 338.373 60.5474 338.437 60.334 338.565C60.1314 338.682 59.9554 338.89 59.806 339.189C59.6567 339.487 59.5394 339.882 59.454 340.373C59.3687 340.853 59.326 341.45 59.326 342.165C59.326 342.89 59.3687 343.498 59.454 343.989C59.5394 344.479 59.6567 344.879 59.806 345.189C59.9554 345.498 60.1314 345.722 60.334 345.861C60.5474 345.989 60.7767 346.053 61.022 346.053Z" fill="#A9AEB8"/>
<path d="M584.957 493.23L583.453 493.23L583.453 490.958L576.765 490.958L576.765 492.83L575.613 492.83C575.517 492.318 575.405 491.881 575.277 491.518C575.138 491.145 574.973 490.798 574.781 490.478L574.781 489.102L583.453 489.102L583.453 487.102L584.957 487.102L584.957 493.23ZM579.741 482.307C579.741 482.008 579.65 481.699 579.469 481.379C579.277 481.048 578.973 480.75 578.557 480.483C577.661 480.579 577.01 480.803 576.605 481.155C576.199 481.496 575.997 481.912 575.997 482.403C575.997 482.819 576.162 483.176 576.493 483.475C576.823 483.774 577.298 483.923 577.917 483.923C578.525 483.923 578.983 483.784 579.293 483.507C579.591 483.219 579.741 482.819 579.741 482.307ZM585.149 482.739C585.149 483.347 585.037 483.875 584.813 484.323C584.589 484.771 584.317 485.15 583.997 485.459L582.877 484.467C583.101 484.275 583.287 484.035 583.437 483.747C583.575 483.448 583.645 483.144 583.645 482.835C583.645 482.515 583.581 482.216 583.453 481.939C583.325 481.651 583.117 481.4 582.829 481.187C582.53 480.974 582.141 480.803 581.661 480.675C581.181 480.536 580.589 480.456 579.885 480.435C580.258 480.734 580.551 481.086 580.765 481.491C580.967 481.896 581.069 482.286 581.069 482.659C581.069 483.096 581.005 483.496 580.877 483.859C580.749 484.222 580.557 484.536 580.301 484.803C580.034 485.059 579.703 485.262 579.309 485.411C578.914 485.55 578.45 485.619 577.917 485.619C577.405 485.619 576.946 485.534 576.541 485.363C576.125 485.192 575.773 484.963 575.485 484.675C575.197 484.387 574.978 484.051 574.829 483.667C574.669 483.272 574.589 482.856 574.589 482.419C574.589 481.928 574.69 481.459 574.893 481.011C575.085 480.563 575.383 480.174 575.789 479.843C576.194 479.502 576.711 479.235 577.341 479.043C577.959 478.84 578.695 478.739 579.549 478.739C580.541 478.739 581.389 478.851 582.093 479.075C582.797 479.288 583.378 479.582 583.837 479.955C584.285 480.318 584.615 480.744 584.829 481.235C585.042 481.715 585.149 482.216 585.149 482.739ZM579.741 474.104C579.741 473.805 579.65 473.496 579.469 473.176C579.277 472.845 578.973 472.546 578.557 472.28C577.661 472.376 577.01 472.6 576.605 472.952C576.199 473.293 575.997 473.709 575.997 474.2C575.997 474.616 576.162 474.973 576.493 475.272C576.823 475.57 577.298 475.72 577.917 475.72C578.525 475.72 578.983 475.581 579.293 475.304C579.591 475.016 579.741 474.616 579.741 474.104ZM585.149 474.536C585.149 475.144 585.037 475.672 584.813 476.12C584.589 476.568 584.317 476.946 583.997 477.256L582.877 476.264C583.101 476.072 583.287 475.832 583.437 475.544C583.575 475.245 583.645 474.941 583.645 474.632C583.645 474.312 583.581 474.013 583.453 473.736C583.325 473.448 583.117 473.197 582.829 472.984C582.53 472.77 582.141 472.6 581.661 472.472C581.181 472.333 580.589 472.253 579.885 472.232C580.258 472.53 580.551 472.882 580.765 473.288C580.967 473.693 581.069 474.082 581.069 474.456C581.069 474.893 581.005 475.293 580.877 475.656C580.749 476.018 580.557 476.333 580.301 476.6C580.034 476.856 579.703 477.058 579.309 477.208C578.914 477.346 578.45 477.416 577.917 477.416C577.405 477.416 576.946 477.33 576.541 477.16C576.125 476.989 575.773 476.76 575.485 476.472C575.197 476.184 574.978 475.848 574.829 475.464C574.669 475.069 574.589 474.653 574.589 474.216C574.589 473.725 574.69 473.256 574.893 472.808C575.085 472.36 575.383 471.97 575.789 471.64C576.194 471.298 576.711 471.032 577.341 470.84C577.959 470.637 578.695 470.536 579.549 470.536C580.541 470.536 581.389 470.648 582.093 470.872C582.797 471.085 583.378 471.378 583.837 471.752C584.285 472.114 584.615 472.541 584.829 473.032C585.042 473.512 585.149 474.013 585.149 474.536ZM585.149 465.949C585.149 466.77 585.01 467.463 584.733 468.029C584.445 468.583 584.114 469.047 583.741 469.421L582.557 468.573C582.845 468.263 583.101 467.917 583.325 467.533C583.538 467.149 583.645 466.701 583.645 466.189C583.645 465.613 583.474 465.143 583.133 464.781C582.791 464.407 582.311 464.221 581.693 464.221C581.085 464.221 580.615 464.391 580.285 464.733C579.954 465.074 579.789 465.527 579.789 466.093C579.789 466.423 579.837 466.701 579.933 466.925C580.018 467.149 580.162 467.415 580.365 467.725L579.805 468.605L574.781 468.301L574.781 462.861L576.333 462.861L576.333 466.701L578.797 466.909C578.69 466.695 578.61 466.487 578.557 466.285C578.493 466.071 578.461 465.831 578.461 465.565C578.461 465.127 578.525 464.717 578.653 464.333C578.781 463.938 578.978 463.597 579.245 463.309C579.501 463.021 579.831 462.791 580.237 462.621C580.631 462.45 581.101 462.365 581.645 462.365C582.199 462.365 582.695 462.466 583.133 462.669C583.57 462.861 583.938 463.122 584.237 463.453C584.535 463.783 584.765 464.167 584.925 464.605C585.074 465.031 585.149 465.479 585.149 465.949Z" fill="#A9AEB8"/>
<path d="M1030.31 494.919L1029.24 494.919C1028.55 494.215 1027.92 493.581 1027.35 493.015C1026.77 492.439 1026.24 491.954 1025.75 491.559C1025.26 491.154 1024.8 490.845 1024.37 490.631C1023.95 490.418 1023.54 490.311 1023.16 490.311C1022.61 490.311 1022.19 490.455 1021.88 490.743C1021.56 491.031 1021.4 491.447 1021.4 491.991C1021.4 492.386 1021.51 492.749 1021.73 493.079C1021.96 493.399 1022.22 493.698 1022.53 493.975L1021.51 494.999C1021.01 494.53 1020.62 494.05 1020.36 493.559C1020.08 493.058 1019.94 492.455 1019.94 491.751C1019.94 491.261 1020.02 490.818 1020.16 490.423C1020.31 490.029 1020.53 489.693 1020.8 489.415C1021.07 489.138 1021.4 488.925 1021.78 488.775C1022.16 488.615 1022.59 488.535 1023.06 488.535C1023.51 488.535 1023.97 488.637 1024.44 488.839C1024.9 489.031 1025.36 489.298 1025.84 489.639C1026.31 489.97 1026.8 490.359 1027.3 490.807C1027.8 491.255 1028.32 491.73 1028.85 492.231C1028.83 491.965 1028.81 491.677 1028.79 491.367C1028.76 491.058 1028.74 490.781 1028.74 490.535L1028.74 488.039L1030.31 488.039L1030.31 494.919ZM1030.5 483.228C1030.5 484.295 1030.05 485.138 1029.14 485.756C1028.22 486.375 1026.9 486.684 1025.17 486.684C1023.44 486.684 1022.14 486.375 1021.27 485.756C1020.38 485.138 1019.94 484.295 1019.94 483.228C1019.94 482.162 1020.38 481.319 1021.27 480.7C1022.15 480.082 1023.46 479.772 1025.17 479.772C1026.9 479.772 1028.22 480.082 1029.14 480.7C1030.05 481.319 1030.5 482.162 1030.5 483.228ZM1029.06 483.228C1029.06 482.983 1029 482.759 1028.87 482.556C1028.73 482.343 1028.51 482.162 1028.2 482.012C1027.89 481.863 1027.49 481.746 1027 481.66C1026.51 481.575 1025.9 481.532 1025.17 481.532C1024.46 481.532 1023.86 481.575 1023.38 481.66C1022.89 481.746 1022.5 481.863 1022.2 482.012C1021.9 482.162 1021.69 482.343 1021.57 482.556C1021.44 482.759 1021.38 482.983 1021.38 483.228C1021.38 483.474 1021.44 483.703 1021.57 483.916C1021.69 484.119 1021.9 484.295 1022.2 484.444C1022.5 484.594 1022.89 484.711 1023.38 484.796C1023.86 484.882 1024.46 484.924 1025.17 484.924C1025.9 484.924 1026.51 484.882 1027 484.796C1027.49 484.711 1027.89 484.594 1028.2 484.444C1028.51 484.295 1028.73 484.119 1028.87 483.916C1029 483.703 1029.06 483.474 1029.06 483.228ZM1030.31 477.937L1028.8 477.937L1028.8 475.665L1022.12 475.665L1022.12 477.537L1020.96 477.537C1020.87 477.025 1020.76 476.588 1020.63 476.225C1020.49 475.852 1020.32 475.505 1020.13 475.185L1020.13 473.809L1028.8 473.809L1028.8 471.809L1030.31 471.809L1030.31 477.937ZM1030.5 467.062C1030.5 467.883 1030.36 468.577 1030.08 469.142C1029.8 469.697 1029.47 470.161 1029.09 470.534L1027.91 469.686C1028.2 469.377 1028.45 469.03 1028.68 468.646C1028.89 468.262 1029 467.814 1029 467.302C1029 466.726 1028.83 466.257 1028.48 465.894C1028.14 465.521 1027.66 465.334 1027.04 465.334C1026.44 465.334 1025.97 465.505 1025.64 465.846C1025.31 466.187 1025.14 466.641 1025.14 467.206C1025.14 467.537 1025.19 467.814 1025.28 468.038C1025.37 468.262 1025.51 468.529 1025.72 468.838L1025.16 469.718L1020.13 469.414L1020.13 463.974L1021.68 463.974L1021.68 467.814L1024.15 468.022C1024.04 467.809 1023.96 467.601 1023.91 467.398C1023.84 467.185 1023.81 466.945 1023.81 466.678C1023.81 466.241 1023.88 465.83 1024 465.446C1024.13 465.051 1024.33 464.71 1024.6 464.422C1024.85 464.134 1025.18 463.905 1025.59 463.734C1025.98 463.563 1026.45 463.478 1027 463.478C1027.55 463.478 1028.05 463.579 1028.48 463.782C1028.92 463.974 1029.29 464.235 1029.59 464.566C1029.89 464.897 1030.12 465.281 1030.28 465.718C1030.43 466.145 1030.5 466.593 1030.5 467.062Z" fill="#A9AEB8"/>
<path d="M149.605 493.229L148.101 493.229L148.101 490.957L141.413 490.957L141.413 492.829L140.261 492.829C140.165 492.317 140.053 491.879 139.925 491.517C139.787 491.143 139.621 490.797 139.429 490.477L139.429 489.101L148.101 489.101L148.101 487.101L149.605 487.101L149.605 493.229ZM144.389 482.306C144.389 482.007 144.299 481.698 144.117 481.378C143.925 481.047 143.621 480.748 143.205 480.482C142.309 480.578 141.659 480.802 141.253 481.154C140.848 481.495 140.645 481.911 140.645 482.402C140.645 482.818 140.811 483.175 141.141 483.474C141.472 483.772 141.947 483.922 142.565 483.922C143.173 483.922 143.632 483.783 143.941 483.506C144.24 483.218 144.389 482.818 144.389 482.306ZM149.797 482.738C149.797 483.346 149.685 483.874 149.461 484.322C149.237 484.77 148.965 485.148 148.645 485.458L147.525 484.466C147.749 484.274 147.936 484.034 148.085 483.746C148.224 483.447 148.293 483.143 148.293 482.834C148.293 482.514 148.229 482.215 148.101 481.938C147.973 481.65 147.765 481.399 147.477 481.186C147.179 480.972 146.789 480.802 146.309 480.674C145.829 480.535 145.237 480.455 144.533 480.434C144.907 480.732 145.2 481.084 145.413 481.49C145.616 481.895 145.717 482.284 145.717 482.658C145.717 483.095 145.653 483.495 145.525 483.858C145.397 484.22 145.205 484.535 144.949 484.802C144.683 485.058 144.352 485.26 143.957 485.41C143.563 485.548 143.099 485.618 142.565 485.618C142.053 485.618 141.595 485.532 141.189 485.362C140.773 485.191 140.421 484.962 140.133 484.674C139.845 484.386 139.627 484.05 139.477 483.666C139.317 483.271 139.237 482.855 139.237 482.418C139.237 481.927 139.339 481.458 139.541 481.01C139.733 480.562 140.032 480.172 140.437 479.842C140.843 479.5 141.36 479.234 141.989 479.042C142.608 478.839 143.344 478.738 144.197 478.738C145.189 478.738 146.037 478.85 146.741 479.074C147.445 479.287 148.027 479.58 148.485 479.954C148.933 480.316 149.264 480.743 149.477 481.234C149.691 481.714 149.797 482.215 149.797 482.738ZM149.605 475.319C148.699 475.276 147.872 475.196 147.125 475.079C146.368 474.961 145.648 474.796 144.965 474.583C144.283 474.359 143.621 474.076 142.981 473.735C142.331 473.393 141.664 472.977 140.981 472.487L140.981 477.303L139.429 477.303L139.429 470.471L140.549 470.471C141.285 471.068 141.989 471.553 142.661 471.927C143.323 472.289 144.005 472.577 144.709 472.791C145.403 473.004 146.144 473.159 146.933 473.255C147.723 473.34 148.613 473.404 149.605 473.447L149.605 475.319ZM149.797 465.947C149.797 466.769 149.659 467.462 149.381 468.027C149.093 468.582 148.763 469.046 148.389 469.419L147.205 468.571C147.493 468.262 147.749 467.915 147.973 467.531C148.187 467.147 148.293 466.699 148.293 466.187C148.293 465.611 148.123 465.142 147.781 464.779C147.44 464.406 146.96 464.219 146.341 464.219C145.733 464.219 145.264 464.39 144.933 464.731C144.603 465.073 144.437 465.526 144.437 466.091C144.437 466.422 144.485 466.699 144.581 466.923C144.667 467.147 144.811 467.414 145.013 467.723L144.453 468.603L139.429 468.299L139.429 462.859L140.981 462.859L140.981 466.699L143.445 466.907C143.339 466.694 143.259 466.486 143.205 466.283C143.141 466.07 143.109 465.83 143.109 465.563C143.109 465.126 143.173 464.715 143.301 464.331C143.429 463.937 143.627 463.595 143.893 463.307C144.149 463.019 144.48 462.79 144.885 462.619C145.28 462.449 145.749 462.363 146.293 462.363C146.848 462.363 147.344 462.465 147.781 462.667C148.219 462.859 148.587 463.121 148.885 463.451C149.184 463.782 149.413 464.166 149.573 464.603C149.723 465.03 149.797 465.478 149.797 465.947Z" fill="#A9AEB8"/>
<path d="M363.395 493.229L361.891 493.229L361.891 490.957L355.203 490.957L355.203 492.829L354.051 492.829C353.955 492.317 353.843 491.88 353.715 491.517C353.576 491.144 353.411 490.797 353.219 490.477L353.219 489.101L361.891 489.101L361.891 487.101L363.395 487.101L363.395 493.229ZM358.179 482.306C358.179 482.007 358.088 481.698 357.907 481.378C357.715 481.047 357.411 480.749 356.995 480.482C356.099 480.578 355.448 480.802 355.043 481.154C354.637 481.495 354.435 481.911 354.435 482.402C354.435 482.818 354.6 483.175 354.931 483.474C355.261 483.773 355.736 483.922 356.355 483.922C356.963 483.922 357.421 483.783 357.731 483.506C358.029 483.218 358.179 482.818 358.179 482.306ZM363.587 482.738C363.587 483.346 363.475 483.874 363.251 484.322C363.027 484.77 362.755 485.149 362.435 485.458L361.315 484.466C361.539 484.274 361.725 484.034 361.875 483.746C362.013 483.447 362.083 483.143 362.083 482.834C362.083 482.514 362.019 482.215 361.891 481.938C361.763 481.65 361.555 481.399 361.267 481.186C360.968 480.973 360.579 480.802 360.099 480.674C359.619 480.535 359.027 480.455 358.323 480.434C358.696 480.733 358.989 481.085 359.203 481.49C359.405 481.895 359.507 482.285 359.507 482.658C359.507 483.095 359.443 483.495 359.315 483.858C359.187 484.221 358.995 484.535 358.739 484.802C358.472 485.058 358.141 485.261 357.747 485.41C357.352 485.549 356.888 485.618 356.355 485.618C355.843 485.618 355.384 485.533 354.979 485.362C354.563 485.191 354.211 484.962 353.923 484.674C353.635 484.386 353.416 484.05 353.267 483.666C353.107 483.271 353.027 482.855 353.027 482.418C353.027 481.927 353.128 481.458 353.331 481.01C353.523 480.562 353.821 480.173 354.227 479.842C354.632 479.501 355.149 479.234 355.779 479.042C356.397 478.839 357.133 478.738 357.987 478.738C358.979 478.738 359.827 478.85 360.531 479.074C361.235 479.287 361.816 479.581 362.275 479.954C362.723 480.317 363.053 480.743 363.267 481.234C363.48 481.714 363.587 482.215 363.587 482.738ZM363.587 473.895C363.587 474.396 363.517 474.86 363.379 475.287C363.24 475.703 363.048 476.066 362.803 476.375C362.557 476.674 362.264 476.914 361.923 477.095C361.581 477.266 361.203 477.351 360.787 477.351C360.467 477.351 360.179 477.303 359.923 477.207C359.656 477.1 359.416 476.962 359.203 476.791C358.989 476.62 358.797 476.428 358.627 476.215C358.456 475.991 358.307 475.756 358.179 475.511L358.115 475.511C357.837 475.906 357.507 476.242 357.123 476.519C356.739 476.786 356.275 476.919 355.731 476.919C355.315 476.919 354.941 476.844 354.611 476.695C354.28 476.535 353.997 476.322 353.763 476.055C353.528 475.778 353.347 475.452 353.219 475.079C353.091 474.695 353.027 474.284 353.027 473.847C353.027 473.388 353.096 472.978 353.235 472.615C353.363 472.242 353.549 471.927 353.795 471.671C354.029 471.404 354.317 471.202 354.659 471.063C354.989 470.924 355.363 470.855 355.779 470.855C356.035 470.855 356.28 470.898 356.515 470.983C356.739 471.058 356.952 471.159 357.155 471.287C357.347 471.415 357.528 471.564 357.699 471.735C357.859 471.895 357.997 472.055 358.115 472.215L358.179 472.215C358.307 471.98 358.456 471.756 358.627 471.543C358.787 471.33 358.973 471.143 359.187 470.983C359.4 470.823 359.64 470.695 359.907 470.599C360.173 470.503 360.477 470.455 360.819 470.455C361.213 470.455 361.581 470.54 361.923 470.711C362.253 470.871 362.547 471.1 362.803 471.399C363.048 471.698 363.24 472.06 363.379 472.487C363.517 472.914 363.587 473.383 363.587 473.895ZM357.651 473.223C357.373 472.946 357.091 472.738 356.803 472.599C356.515 472.45 356.211 472.375 355.891 472.375C355.443 472.375 355.075 472.508 354.787 472.775C354.488 473.031 354.339 473.399 354.339 473.879C354.339 474.274 354.461 474.604 354.707 474.871C354.941 475.138 355.283 475.271 355.731 475.271C355.987 475.271 356.211 475.218 356.403 475.111C356.595 475.004 356.765 474.86 356.915 474.679C357.053 474.487 357.187 474.268 357.315 474.023C357.432 473.778 357.544 473.511 357.651 473.223ZM362.275 473.863C362.275 473.372 362.141 472.972 361.875 472.663C361.608 472.343 361.235 472.183 360.755 472.183C360.477 472.183 360.243 472.247 360.051 472.375C359.848 472.503 359.672 472.679 359.523 472.903C359.363 473.116 359.219 473.372 359.091 473.671C358.963 473.97 358.829 474.29 358.691 474.631C358.925 474.951 359.203 475.218 359.523 475.431C359.843 475.634 360.2 475.735 360.595 475.735C361.107 475.735 361.517 475.554 361.827 475.191C362.125 474.828 362.275 474.386 362.275 473.863ZM363.587 465.948C363.587 466.769 363.448 467.462 363.171 468.028C362.883 468.582 362.552 469.046 362.179 469.42L360.995 468.572C361.283 468.262 361.539 467.916 361.763 467.532C361.976 467.148 362.083 466.7 362.083 466.188C362.083 465.612 361.912 465.142 361.571 464.78C361.229 464.406 360.749 464.22 360.131 464.22C359.523 464.22 359.053 464.39 358.723 464.732C358.392 465.073 358.227 465.526 358.227 466.092C358.227 466.422 358.275 466.7 358.371 466.924C358.456 467.148 358.6 467.414 358.803 467.724L358.243 468.604L353.219 468.3L353.219 462.86L354.771 462.86L354.771 466.7L357.235 466.908C357.128 466.694 357.048 466.486 356.995 466.284C356.931 466.07 356.899 465.83 356.899 465.564C356.899 465.126 356.963 464.716 357.091 464.332C357.219 463.937 357.416 463.596 357.683 463.308C357.939 463.02 358.269 462.79 358.675 462.62C359.069 462.449 359.539 462.364 360.083 462.364C360.637 462.364 361.133 462.465 361.571 462.668C362.008 462.86 362.376 463.121 362.675 463.452C362.973 463.782 363.203 464.166 363.363 464.604C363.512 465.03 363.587 465.478 363.587 465.948Z" fill="#A9AEB8"/>
<path d="M811.633 493.805L810.561 493.805C809.878 493.101 809.249 492.467 808.673 491.901C808.097 491.325 807.563 490.84 807.073 490.445C806.582 490.04 806.123 489.731 805.697 489.517C805.27 489.304 804.865 489.197 804.481 489.197C803.937 489.197 803.51 489.341 803.201 489.629C802.881 489.917 802.721 490.333 802.721 490.877C802.721 491.272 802.833 491.635 803.057 491.965C803.281 492.285 803.547 492.584 803.857 492.861L802.833 493.885C802.331 493.416 801.947 492.936 801.681 492.445C801.403 491.944 801.265 491.341 801.265 490.637C801.265 490.147 801.339 489.704 801.489 489.309C801.638 488.915 801.851 488.579 802.129 488.301C802.395 488.024 802.721 487.811 803.105 487.661C803.489 487.501 803.915 487.421 804.385 487.421C804.833 487.421 805.291 487.523 805.761 487.725C806.219 487.917 806.689 488.184 807.169 488.525C807.638 488.856 808.123 489.245 808.625 489.693C809.126 490.141 809.643 490.616 810.177 491.117C810.155 490.851 810.134 490.563 810.113 490.253C810.081 489.944 810.065 489.667 810.065 489.421L810.065 486.925L811.633 486.925L811.633 493.805ZM811.825 482.114C811.825 483.181 811.371 484.023 810.465 484.642C809.547 485.261 808.225 485.57 806.497 485.57C804.769 485.57 803.467 485.261 802.593 484.642C801.707 484.023 801.265 483.181 801.265 482.114C801.265 481.047 801.707 480.205 802.593 479.586C803.478 478.967 804.779 478.658 806.497 478.658C808.225 478.658 809.547 478.967 810.465 479.586C811.371 480.205 811.825 481.047 811.825 482.114ZM810.385 482.114C810.385 481.869 810.321 481.645 810.193 481.442C810.054 481.229 809.83 481.047 809.521 480.898C809.211 480.749 808.811 480.631 808.321 480.546C807.83 480.461 807.222 480.418 806.497 480.418C805.782 480.418 805.185 480.461 804.705 480.546C804.214 480.631 803.819 480.749 803.521 480.898C803.222 481.047 803.014 481.229 802.897 481.442C802.769 481.645 802.705 481.869 802.705 482.114C802.705 482.359 802.769 482.589 802.897 482.802C803.014 483.005 803.222 483.181 803.521 483.33C803.819 483.479 804.214 483.597 804.705 483.682C805.185 483.767 805.782 483.81 806.497 483.81C807.222 483.81 807.83 483.767 808.321 483.682C808.811 483.597 809.211 483.479 809.521 483.33C809.83 483.181 810.054 483.005 810.193 482.802C810.321 482.589 810.385 482.359 810.385 482.114ZM811.825 473.911C811.825 474.978 811.371 475.82 810.465 476.439C809.547 477.058 808.225 477.367 806.497 477.367C804.769 477.367 803.467 477.058 802.593 476.439C801.707 475.82 801.265 474.978 801.265 473.911C801.265 472.844 801.707 472.002 802.593 471.383C803.478 470.764 804.779 470.455 806.497 470.455C808.225 470.455 809.547 470.764 810.465 471.383C811.371 472.002 811.825 472.844 811.825 473.911ZM810.385 473.911C810.385 473.666 810.321 473.442 810.193 473.239C810.054 473.026 809.83 472.844 809.521 472.695C809.211 472.546 808.811 472.428 808.321 472.343C807.83 472.258 807.222 472.215 806.497 472.215C805.782 472.215 805.185 472.258 804.705 472.343C804.214 472.428 803.819 472.546 803.521 472.695C803.222 472.844 803.014 473.026 802.897 473.239C802.769 473.442 802.705 473.666 802.705 473.911C802.705 474.156 802.769 474.386 802.897 474.599C803.014 474.802 803.222 474.978 803.521 475.127C803.819 475.276 804.214 475.394 804.705 475.479C805.185 475.564 805.782 475.607 806.497 475.607C807.222 475.607 807.83 475.564 808.321 475.479C808.811 475.394 809.211 475.276 809.521 475.127C809.83 474.978 810.054 474.802 810.193 474.599C810.321 474.386 810.385 474.156 810.385 473.911ZM811.825 465.948C811.825 466.769 811.686 467.462 811.409 468.028C811.121 468.582 810.79 469.046 810.417 469.42L809.233 468.572C809.521 468.262 809.777 467.916 810.001 467.532C810.214 467.148 810.321 466.7 810.321 466.188C810.321 465.612 810.15 465.142 809.809 464.78C809.467 464.406 808.987 464.22 808.369 464.22C807.761 464.22 807.291 464.39 806.961 464.732C806.63 465.073 806.465 465.526 806.465 466.092C806.465 466.422 806.513 466.7 806.609 466.924C806.694 467.148 806.838 467.414 807.041 467.724L806.481 468.604L801.457 468.3L801.457 462.86L803.009 462.86L803.009 466.7L805.473 466.908C805.366 466.694 805.286 466.486 805.233 466.284C805.169 466.07 805.137 465.83 805.137 465.564C805.137 465.126 805.201 464.716 805.329 464.332C805.457 463.937 805.654 463.596 805.921 463.308C806.177 463.02 806.507 462.79 806.913 462.62C807.307 462.449 807.777 462.364 808.321 462.364C808.875 462.364 809.371 462.465 809.809 462.668C810.246 462.86 810.614 463.121 810.913 463.452C811.211 463.782 811.441 464.166 811.601 464.604C811.75 465.03 811.825 465.478 811.825 465.948Z" fill="#A9AEB8"/>
<path d="M28.2095 440.592C27.1429 440.592 26.3002 440.139 25.6815 439.232C25.0629 438.315 24.7535 436.992 24.7535 435.264C24.7535 433.536 25.0629 432.235 25.6815 431.36C26.3002 430.475 27.1429 430.032 28.2095 430.032C29.2762 430.032 30.1189 430.475 30.7375 431.36C31.3562 432.246 31.6655 433.547 31.6655 435.264C31.6655 436.992 31.3562 438.315 30.7375 439.232C30.1189 440.139 29.2762 440.592 28.2095 440.592ZM28.2095 439.152C28.4549 439.152 28.6789 439.088 28.8815 438.96C29.0949 438.822 29.2762 438.598 29.4255 438.288C29.5749 437.979 29.6922 437.579 29.7775 437.088C29.8629 436.598 29.9055 435.99 29.9055 435.264C29.9055 434.55 29.8629 433.952 29.7775 433.472C29.6922 432.982 29.5749 432.587 29.4255 432.288C29.2762 431.99 29.0949 431.782 28.8815 431.664C28.6789 431.536 28.4549 431.472 28.2095 431.472C27.9642 431.472 27.7349 431.536 27.5215 431.664C27.3189 431.782 27.1429 431.99 26.9935 432.288C26.8442 432.587 26.7269 432.982 26.6415 433.472C26.5562 433.952 26.5135 434.55 26.5135 435.264C26.5135 435.99 26.5562 436.598 26.6415 437.088C26.7269 437.579 26.8442 437.979 26.9935 438.288C27.1429 438.598 27.3189 438.822 27.5215 438.96C27.7349 439.088 27.9642 439.152 28.2095 439.152Z" fill="#A9AEB8"/>
<path d="M27.9535 162.641C27.1215 162.641 26.4282 162.503 25.8735 162.225C25.3189 161.948 24.8602 161.607 24.4975 161.201L25.3775 160.017C25.6869 160.327 26.0389 160.593 26.4335 160.817C26.8282 161.031 27.2815 161.137 27.7935 161.137C28.3482 161.137 28.7962 161.004 29.1375 160.737C29.4895 160.46 29.6655 160.081 29.6655 159.601C29.6655 159.335 29.6175 159.095 29.5215 158.881C29.4255 158.668 29.2602 158.487 29.0255 158.337C28.8015 158.188 28.4975 158.076 28.1135 158.001C27.7295 157.916 27.2495 157.873 26.6735 157.873V156.529C27.1749 156.529 27.5909 156.492 27.9215 156.417C28.2629 156.332 28.5349 156.22 28.7375 156.081C28.9509 155.932 29.1002 155.756 29.1855 155.553C29.2815 155.351 29.3295 155.132 29.3295 154.897C29.3295 154.471 29.1962 154.14 28.9295 153.905C28.6629 153.66 28.2949 153.537 27.8255 153.537C27.4202 153.537 27.0522 153.628 26.7215 153.809C26.4015 153.98 26.0869 154.209 25.7775 154.497L24.8335 153.361C25.2709 152.977 25.7349 152.668 26.2255 152.433C26.7269 152.199 27.2815 152.081 27.8895 152.081C28.3802 152.081 28.8282 152.14 29.2335 152.257C29.6389 152.375 29.9855 152.551 30.2735 152.785C30.5615 153.009 30.7855 153.292 30.9455 153.633C31.1055 153.964 31.1855 154.343 31.1855 154.769C31.1855 155.345 31.0255 155.825 30.7055 156.209C30.3962 156.593 29.9642 156.892 29.4095 157.105V157.169C30.0175 157.329 30.5189 157.623 30.9135 158.049C31.3189 158.476 31.5215 159.025 31.5215 159.697C31.5215 160.167 31.4255 160.583 31.2335 160.945C31.0522 161.308 30.7962 161.617 30.4655 161.873C30.1455 162.119 29.7669 162.311 29.3295 162.449C28.9029 162.577 28.4442 162.641 27.9535 162.641ZM36.4127 162.641C35.346 162.641 34.5033 162.188 33.8847 161.281C33.266 160.364 32.9567 159.041 32.9567 157.313C32.9567 155.585 33.266 154.284 33.8847 153.409C34.5033 152.524 35.346 152.081 36.4127 152.081C37.4793 152.081 38.322 152.524 38.9407 153.409C39.5593 154.295 39.8687 155.596 39.8687 157.313C39.8687 159.041 39.5593 160.364 38.9407 161.281C38.322 162.188 37.4793 162.641 36.4127 162.641ZM36.4127 161.201C36.658 161.201 36.882 161.137 37.0847 161.009C37.298 160.871 37.4793 160.647 37.6287 160.337C37.778 160.028 37.8953 159.628 37.9807 159.137C38.066 158.647 38.1087 158.039 38.1087 157.313C38.1087 156.599 38.066 156.001 37.9807 155.521C37.8953 155.031 37.778 154.636 37.6287 154.337C37.4793 154.039 37.298 153.831 37.0847 153.713C36.882 153.585 36.658 153.521 36.4127 153.521C36.1673 153.521 35.938 153.585 35.7247 153.713C35.522 153.831 35.346 154.039 35.1967 154.337C35.0473 154.636 34.93 155.031 34.8447 155.521C34.7593 156.001 34.7167 156.599 34.7167 157.313C34.7167 158.039 34.7593 158.647 34.8447 159.137C34.93 159.628 35.0473 160.028 35.1967 160.337C35.346 160.647 35.522 160.871 35.7247 161.009C35.938 161.137 36.1673 161.201 36.4127 161.201ZM44.6158 162.641C43.5491 162.641 42.7064 162.188 42.0878 161.281C41.4691 160.364 41.1598 159.041 41.1598 157.313C41.1598 155.585 41.4691 154.284 42.0878 153.409C42.7064 152.524 43.5491 152.081 44.6158 152.081C45.6824 152.081 46.5251 152.524 47.1438 153.409C47.7624 154.295 48.0718 155.596 48.0718 157.313C48.0718 159.041 47.7624 160.364 47.1438 161.281C46.5251 162.188 45.6824 162.641 44.6158 162.641ZM44.6158 161.201C44.8611 161.201 45.0851 161.137 45.2878 161.009C45.5011 160.871 45.6824 160.647 45.8318 160.337C45.9811 160.028 46.0984 159.628 46.1838 159.137C46.2691 158.647 46.3118 158.039 46.3118 157.313C46.3118 156.599 46.2691 156.001 46.1838 155.521C46.0984 155.031 45.9811 154.636 45.8318 154.337C45.6824 154.039 45.5011 153.831 45.2878 153.713C45.0851 153.585 44.8611 153.521 44.6158 153.521C44.3704 153.521 44.1411 153.585 43.9278 153.713C43.7251 153.831 43.5491 154.039 43.3998 154.337C43.2504 154.636 43.1331 155.031 43.0478 155.521C42.9624 156.001 42.9198 156.599 42.9198 157.313C42.9198 158.039 42.9624 158.647 43.0478 159.137C43.1331 159.628 43.2504 160.028 43.3998 160.337C43.5491 160.647 43.7251 160.871 43.9278 161.009C44.1411 161.137 44.3704 161.201 44.6158 161.201ZM52.8189 162.641C51.7522 162.641 50.9096 162.188 50.2909 161.281C49.6722 160.364 49.3629 159.041 49.3629 157.313C49.3629 155.585 49.6722 154.284 50.2909 153.409C50.9096 152.524 51.7522 152.081 52.8189 152.081C53.8856 152.081 54.7282 152.524 55.3469 153.409C55.9656 154.295 56.2749 155.596 56.2749 157.313C56.2749 159.041 55.9656 160.364 55.3469 161.281C54.7282 162.188 53.8856 162.641 52.8189 162.641ZM52.8189 161.201C53.0642 161.201 53.2882 161.137 53.4909 161.009C53.7042 160.871 53.8856 160.647 54.0349 160.337C54.1842 160.028 54.3016 159.628 54.3869 159.137C54.4722 158.647 54.5149 158.039 54.5149 157.313C54.5149 156.599 54.4722 156.001 54.3869 155.521C54.3016 155.031 54.1842 154.636 54.0349 154.337C53.8856 154.039 53.7042 153.831 53.4909 153.713C53.2882 153.585 53.0642 153.521 52.8189 153.521C52.5736 153.521 52.3442 153.585 52.1309 153.713C51.9282 153.831 51.7522 154.039 51.6029 154.337C51.4536 154.636 51.3362 155.031 51.2509 155.521C51.1656 156.001 51.1229 156.599 51.1229 157.313C51.1229 158.039 51.1656 158.647 51.2509 159.137C51.3362 159.628 51.4536 160.028 51.6029 160.337C51.7522 160.647 51.9282 160.871 52.1309 161.009C52.3442 161.137 52.5736 161.201 52.8189 161.201ZM61.022 162.641C59.9554 162.641 59.1127 162.188 58.494 161.281C57.8754 160.364 57.566 159.041 57.566 157.313C57.566 155.585 57.8754 154.284 58.494 153.409C59.1127 152.524 59.9554 152.081 61.022 152.081C62.0887 152.081 62.9314 152.524 63.55 153.409C64.1687 154.295 64.478 155.596 64.478 157.313C64.478 159.041 64.1687 160.364 63.55 161.281C62.9314 162.188 62.0887 162.641 61.022 162.641ZM61.022 161.201C61.2674 161.201 61.4914 161.137 61.694 161.009C61.9074 160.871 62.0887 160.647 62.238 160.337C62.3874 160.028 62.5047 159.628 62.59 159.137C62.6754 158.647 62.718 158.039 62.718 157.313C62.718 156.599 62.6754 156.001 62.59 155.521C62.5047 155.031 62.3874 154.636 62.238 154.337C62.0887 154.039 61.9074 153.831 61.694 153.713C61.4914 153.585 61.2674 153.521 61.022 153.521C60.7767 153.521 60.5474 153.585 60.334 153.713C60.1314 153.831 59.9554 154.039 59.806 154.337C59.6567 154.636 59.5394 155.031 59.454 155.521C59.3687 156.001 59.326 156.599 59.326 157.313C59.326 158.039 59.3687 158.647 59.454 159.137C59.5394 159.628 59.6567 160.028 59.806 160.337C59.9554 160.647 60.1314 160.871 60.334 161.009C60.5474 161.137 60.7767 161.201 61.022 161.201Z" fill="#A9AEB8"/>
<path d="M24.7215 255.549V254.477C25.4255 253.794 26.0602 253.165 26.6255 252.589C27.2015 252.013 27.6869 251.479 28.0815 250.989C28.4869 250.498 28.7962 250.039 29.0095 249.613C29.2229 249.186 29.3295 248.781 29.3295 248.397C29.3295 247.853 29.1855 247.426 28.8975 247.117C28.6095 246.797 28.1935 246.637 27.6495 246.637C27.2549 246.637 26.8922 246.749 26.5615 246.973C26.2415 247.197 25.9429 247.463 25.6655 247.773L24.6415 246.749C25.1109 246.247 25.5909 245.863 26.0815 245.597C26.5829 245.319 27.1855 245.181 27.8895 245.181C28.3802 245.181 28.8229 245.255 29.2175 245.405C29.6122 245.554 29.9482 245.767 30.2255 246.045C30.5029 246.311 30.7162 246.637 30.8655 247.021C31.0255 247.405 31.1055 247.831 31.1055 248.301C31.1055 248.749 31.0042 249.207 30.8015 249.677C30.6095 250.135 30.3429 250.605 30.0015 251.085C29.6709 251.554 29.2815 252.039 28.8335 252.541C28.3855 253.042 27.9109 253.559 27.4095 254.093C27.6762 254.071 27.9642 254.05 28.2735 254.029C28.5829 253.997 28.8602 253.981 29.1055 253.981H31.6015V255.549H24.7215ZM36.4127 255.741C35.346 255.741 34.5033 255.287 33.8847 254.381C33.266 253.463 32.9567 252.141 32.9567 250.413C32.9567 248.685 33.266 247.383 33.8847 246.509C34.5033 245.623 35.346 245.181 36.4127 245.181C37.4793 245.181 38.322 245.623 38.9407 246.509C39.5593 247.394 39.8687 248.695 39.8687 250.413C39.8687 252.141 39.5593 253.463 38.9407 254.381C38.322 255.287 37.4793 255.741 36.4127 255.741ZM36.4127 254.301C36.658 254.301 36.882 254.237 37.0847 254.109C37.298 253.97 37.4793 253.746 37.6287 253.437C37.778 253.127 37.8953 252.727 37.9807 252.237C38.066 251.746 38.1087 251.138 38.1087 250.413C38.1087 249.698 38.066 249.101 37.9807 248.621C37.8953 248.13 37.778 247.735 37.6287 247.437C37.4793 247.138 37.298 246.93 37.0847 246.813C36.882 246.685 36.658 246.621 36.4127 246.621C36.1673 246.621 35.938 246.685 35.7247 246.813C35.522 246.93 35.346 247.138 35.1967 247.437C35.0473 247.735 34.93 248.13 34.8447 248.621C34.7593 249.101 34.7167 249.698 34.7167 250.413C34.7167 251.138 34.7593 251.746 34.8447 252.237C34.93 252.727 35.0473 253.127 35.1967 253.437C35.346 253.746 35.522 253.97 35.7247 254.109C35.938 254.237 36.1673 254.301 36.4127 254.301ZM44.6158 255.741C43.5491 255.741 42.7064 255.287 42.0878 254.381C41.4691 253.463 41.1598 252.141 41.1598 250.413C41.1598 248.685 41.4691 247.383 42.0878 246.509C42.7064 245.623 43.5491 245.181 44.6158 245.181C45.6824 245.181 46.5251 245.623 47.1438 246.509C47.7624 247.394 48.0718 248.695 48.0718 250.413C48.0718 252.141 47.7624 253.463 47.1438 254.381C46.5251 255.287 45.6824 255.741 44.6158 255.741ZM44.6158 254.301C44.8611 254.301 45.0851 254.237 45.2878 254.109C45.5011 253.97 45.6824 253.746 45.8318 253.437C45.9811 253.127 46.0984 252.727 46.1838 252.237C46.2691 251.746 46.3118 251.138 46.3118 250.413C46.3118 249.698 46.2691 249.101 46.1838 248.621C46.0984 248.13 45.9811 247.735 45.8318 247.437C45.6824 247.138 45.5011 246.93 45.2878 246.813C45.0851 246.685 44.8611 246.621 44.6158 246.621C44.3704 246.621 44.1411 246.685 43.9278 246.813C43.7251 246.93 43.5491 247.138 43.3998 247.437C43.2504 247.735 43.1331 248.13 43.0478 248.621C42.9624 249.101 42.9198 249.698 42.9198 250.413C42.9198 251.138 42.9624 251.746 43.0478 252.237C43.1331 252.727 43.2504 253.127 43.3998 253.437C43.5491 253.746 43.7251 253.97 43.9278 254.109C44.1411 254.237 44.3704 254.301 44.6158 254.301ZM52.8189 255.741C51.7522 255.741 50.9096 255.287 50.2909 254.381C49.6722 253.463 49.3629 252.141 49.3629 250.413C49.3629 248.685 49.6722 247.383 50.2909 246.509C50.9096 245.623 51.7522 245.181 52.8189 245.181C53.8856 245.181 54.7282 245.623 55.3469 246.509C55.9656 247.394 56.2749 248.695 56.2749 250.413C56.2749 252.141 55.9656 253.463 55.3469 254.381C54.7282 255.287 53.8856 255.741 52.8189 255.741ZM52.8189 254.301C53.0642 254.301 53.2882 254.237 53.4909 254.109C53.7042 253.97 53.8856 253.746 54.0349 253.437C54.1842 253.127 54.3016 252.727 54.3869 252.237C54.4722 251.746 54.5149 251.138 54.5149 250.413C54.5149 249.698 54.4722 249.101 54.3869 248.621C54.3016 248.13 54.1842 247.735 54.0349 247.437C53.8856 247.138 53.7042 246.93 53.4909 246.813C53.2882 246.685 53.0642 246.621 52.8189 246.621C52.5736 246.621 52.3442 246.685 52.1309 246.813C51.9282 246.93 51.7522 247.138 51.6029 247.437C51.4536 247.735 51.3362 248.13 51.2509 248.621C51.1656 249.101 51.1229 249.698 51.1229 250.413C51.1229 251.138 51.1656 251.746 51.2509 252.237C51.3362 252.727 51.4536 253.127 51.6029 253.437C51.7522 253.746 51.9282 253.97 52.1309 254.109C52.3442 254.237 52.5736 254.301 52.8189 254.301ZM61.022 255.741C59.9554 255.741 59.1127 255.287 58.494 254.381C57.8754 253.463 57.566 252.141 57.566 250.413C57.566 248.685 57.8754 247.383 58.494 246.509C59.1127 245.623 59.9554 245.181 61.022 245.181C62.0887 245.181 62.9314 245.623 63.55 246.509C64.1687 247.394 64.478 248.695 64.478 250.413C64.478 252.141 64.1687 253.463 63.55 254.381C62.9314 255.287 62.0887 255.741 61.022 255.741ZM61.022 254.301C61.2674 254.301 61.4914 254.237 61.694 254.109C61.9074 253.97 62.0887 253.746 62.238 253.437C62.3874 253.127 62.5047 252.727 62.59 252.237C62.6754 251.746 62.718 251.138 62.718 250.413C62.718 249.698 62.6754 249.101 62.59 248.621C62.5047 248.13 62.3874 247.735 62.238 247.437C62.0887 247.138 61.9074 246.93 61.694 246.813C61.4914 246.685 61.2674 246.621 61.022 246.621C60.7767 246.621 60.5474 246.685 60.334 246.813C60.1314 246.93 59.9554 247.138 59.806 247.437C59.6567 247.735 59.5394 248.13 59.454 248.621C59.3687 249.101 59.326 249.698 59.326 250.413C59.326 251.138 59.3687 251.746 59.454 252.237C59.5394 252.727 59.6567 253.127 59.806 253.437C59.9554 253.746 60.1314 253.97 60.334 254.109C60.5474 254.237 60.7767 254.301 61.022 254.301Z" fill="#A9AEB8"/>
<path d="M135.626 65.2383H1033.01" stroke="#E4E4E4" stroke-opacity="0.5" stroke-width="2.64"/>
<path d="M135.626 158.762H1033.01" stroke="#E4E4E4" stroke-opacity="0.5" stroke-width="2.64"/>
<path d="M135.626 252.285H1033.01" stroke="#E4E4E4" stroke-opacity="0.5" stroke-width="2.64"/>
<path d="M135.626 343.582H1033.01" stroke="#E4E4E4" stroke-opacity="0.5" stroke-width="2.64"/>
<path d="M135.626 437.107H1033.01" stroke="#E4E4E4" stroke-opacity="0.5" stroke-width="2.64"/>
<path d="M236.27 254.251L135.626 65.2383V436.55H1039.69V379.033H995.961L978.609 383.019H873.453L782.179 395.742H733.592L710.687 400.341H689.864L666.959 404.787H649.606L626.701 408.159H612.819H535.427L507.316 395.742L427.842 388.537L390.707 370.908L369.537 348.221L313.315 324.46L290.063 293.494L236.27 254.251Z" fill="#D64741" fill-opacity="0.05"/>
<path d="M135.626 65.2383L217.31 218.642C229.788 242.077 247.413 262.38 268.861 278.027L278.915 285.362C286.306 290.754 292.855 297.213 298.349 304.529V304.529C308.151 317.583 321.237 327.808 336.274 334.163L354.447 341.843C364.395 346.048 373.346 352.302 380.714 360.199V360.199C387.317 367.275 395.197 373.04 403.94 377.19L409.897 380.018C421.767 385.653 434.539 389.144 447.624 390.331L493.922 394.528C502.792 395.332 511.471 397.578 519.618 401.176V401.176C530.043 405.781 541.313 408.159 552.709 408.159H612.819H615.125C622.832 408.159 630.529 407.595 638.154 406.473L642.184 405.879C647.126 405.152 652.114 404.787 657.108 404.787V404.787C663.66 404.787 670.197 404.158 676.629 402.91L679.813 402.292C686.498 400.994 693.292 400.341 700.102 400.341V400.341C707.141 400.341 714.163 399.643 721.064 398.257L722.139 398.042C729.756 396.512 737.505 395.742 745.273 395.742H782.179L873.453 383.019H969.707C975.623 383.019 981.52 382.35 987.285 381.026V381.026C993.051 379.702 998.948 379.033 1004.86 379.033H1039.69" stroke="#D64741" stroke-width="3.94" stroke-linejoin="round"/>
<path d="M1079.19 489.874C1079.19 490.087 1079.17 490.274 1079.14 490.434C1079.12 490.594 1079.08 490.748 1079.03 490.898L1077.59 490.562C1077.61 490.487 1077.63 490.402 1077.65 490.306C1077.69 490.199 1077.7 490.098 1077.7 490.002C1077.7 489.586 1077.57 489.255 1077.32 489.01C1077.07 488.754 1076.75 488.562 1076.36 488.434L1075.86 488.29L1068.1 491.378L1068.1 489.506L1071.96 488.146C1072.3 488.028 1072.66 487.916 1073.05 487.81C1073.42 487.692 1073.79 487.575 1074.17 487.458L1074.17 487.394C1073.8 487.298 1073.43 487.202 1073.06 487.106C1072.68 486.999 1072.31 486.898 1071.96 486.802L1068.1 485.618L1068.1 483.842L1076.31 486.69C1076.76 486.85 1077.16 487.026 1077.51 487.218C1077.86 487.41 1078.16 487.634 1078.41 487.89C1078.66 488.135 1078.85 488.423 1078.98 488.754C1079.12 489.074 1079.19 489.447 1079.19 489.874ZM1076.15 479.213C1076.15 479.758 1076.06 480.264 1075.88 480.734C1075.69 481.203 1075.41 481.614 1075.06 481.966C1074.71 482.318 1074.28 482.595 1073.78 482.798C1073.27 482.99 1072.69 483.086 1072.04 483.086C1071.4 483.086 1070.82 482.984 1070.31 482.782C1069.8 482.579 1069.37 482.312 1069.01 481.982C1068.66 481.64 1068.39 481.251 1068.2 480.814C1068.01 480.376 1067.91 479.928 1067.91 479.47C1067.91 478.936 1068 478.467 1068.18 478.062C1068.36 477.656 1068.62 477.32 1068.95 477.054C1069.28 476.776 1069.67 476.568 1070.13 476.43C1070.59 476.291 1071.09 476.221 1071.64 476.221C1071.82 476.221 1071.99 476.232 1072.15 476.254C1072.31 476.264 1072.44 476.28 1072.53 476.301L1072.53 481.294C1073.24 481.208 1073.78 480.963 1074.17 480.558C1074.54 480.142 1074.73 479.614 1074.73 478.974C1074.73 478.632 1074.68 478.318 1074.58 478.029C1074.47 477.731 1074.33 477.437 1074.15 477.149L1075.3 476.525C1075.55 476.899 1075.75 477.315 1075.91 477.773C1076.07 478.232 1076.15 478.712 1076.15 479.213ZM1071.29 481.31L1071.29 477.822C1070.68 477.822 1070.2 477.955 1069.86 478.222C1069.51 478.478 1069.33 478.878 1069.33 479.422C1069.33 479.891 1069.5 480.302 1069.83 480.654C1070.16 481.006 1070.65 481.224 1071.29 481.31ZM1076.15 472.748C1076.15 473.441 1075.94 474.001 1075.53 474.428C1075.1 474.854 1074.54 475.068 1073.85 475.068C1073.43 475.068 1073.06 474.982 1072.74 474.812C1072.41 474.63 1072.13 474.353 1071.89 473.98C1071.66 473.596 1071.46 473.116 1071.3 472.54C1071.14 471.953 1071.02 471.254 1070.93 470.444C1070.73 470.454 1070.54 470.486 1070.36 470.54C1070.17 470.582 1070 470.662 1069.86 470.78C1069.71 470.886 1069.6 471.03 1069.53 471.212C1069.44 471.393 1069.4 471.617 1069.4 471.884C1069.4 472.268 1069.47 472.646 1069.62 473.02C1069.77 473.382 1069.95 473.74 1070.17 474.092L1068.93 474.764C1068.66 474.326 1068.42 473.836 1068.21 473.292C1068.01 472.748 1067.91 472.161 1067.91 471.532C1067.91 470.55 1068.2 469.82 1068.79 469.34C1069.37 468.849 1070.2 468.604 1071.3 468.604L1075.96 468.604L1075.96 470.124L1075.09 470.252L1075.09 470.316C1075.39 470.668 1075.64 471.046 1075.85 471.452C1076.05 471.846 1076.15 472.278 1076.15 472.748ZM1074.71 472.156C1074.71 471.836 1074.63 471.548 1074.49 471.292C1074.34 471.025 1074.12 470.742 1073.85 470.444L1072.09 470.444C1072.15 470.977 1072.23 471.425 1072.34 471.788C1072.45 472.15 1072.57 472.444 1072.71 472.668C1072.84 472.892 1072.99 473.052 1073.16 473.148C1073.33 473.244 1073.51 473.292 1073.7 473.292C1074.05 473.292 1074.31 473.185 1074.47 472.972C1074.63 472.758 1074.71 472.486 1074.71 472.156ZM1075.96 466.402L1068.1 466.402L1068.1 464.882L1069.49 464.754L1069.49 464.69C1068.98 464.412 1068.59 464.076 1068.33 463.682C1068.05 463.287 1067.91 462.882 1067.91 462.466C1067.91 462.092 1067.96 461.794 1068.07 461.57L1069.67 461.89C1069.63 462.028 1069.59 462.156 1069.57 462.274C1069.55 462.391 1069.54 462.535 1069.54 462.706C1069.54 463.015 1069.66 463.34 1069.91 463.682C1070.14 464.023 1070.56 464.316 1071.16 464.562L1075.96 464.562L1075.96 466.402Z" fill="#BCBCBC"/>
<circle cx="135.626" cy="63.0104" r="5.79365" fill="white" stroke="#D64741" stroke-width="4"/>
<circle cx="361.642" cy="343.583" r="6.90703" fill="white" stroke="#D64741" stroke-width="4"/>
<circle cx="582.091" cy="408.159" r="6.90703" fill="white" stroke="#D64741" stroke-width="4"/>
<circle cx="805.88" cy="391.458" r="5.79365" fill="white" stroke="#D64741" stroke-width="4"/>
<circle cx="1033.01" cy="378.098" r="5.79365" fill="white" stroke="#D64741" stroke-width="4"/>
<path d="M359.801 314.914V313.034H362.641V304.674H360.301V303.234C360.941 303.114 361.488 302.974 361.941 302.814C362.408 302.641 362.841 302.434 363.241 302.194H364.961V313.034H367.461V314.914H359.801ZM374.455 315.154C373.122 315.154 372.068 314.587 371.295 313.454C370.522 312.307 370.135 310.654 370.135 308.494C370.135 306.334 370.522 304.707 371.295 303.614C372.068 302.507 373.122 301.954 374.455 301.954C375.788 301.954 376.842 302.507 377.615 303.614C378.388 304.721 378.775 306.347 378.775 308.494C378.775 310.654 378.388 312.307 377.615 313.454C376.842 314.587 375.788 315.154 374.455 315.154ZM374.455 313.354C374.762 313.354 375.042 313.274 375.295 313.114C375.562 312.941 375.788 312.661 375.975 312.274C376.162 311.887 376.308 311.387 376.415 310.774C376.522 310.161 376.575 309.401 376.575 308.494C376.575 307.601 376.522 306.854 376.415 306.254C376.308 305.641 376.162 305.147 375.975 304.774C375.788 304.401 375.562 304.141 375.295 303.994C375.042 303.834 374.762 303.754 374.455 303.754C374.148 303.754 373.862 303.834 373.595 303.994C373.342 304.141 373.122 304.401 372.935 304.774C372.748 305.147 372.602 305.641 372.495 306.254C372.388 306.854 372.335 307.601 372.335 308.494C372.335 309.401 372.388 310.161 372.495 310.774C372.602 311.387 372.748 311.887 372.935 312.274C373.122 312.661 373.342 312.941 373.595 313.114C373.862 313.274 374.148 313.354 374.455 313.354ZM383.109 315.154C382.682 315.154 382.322 315.007 382.029 314.714C381.749 314.421 381.609 314.047 381.609 313.594C381.609 313.141 381.749 312.767 382.029 312.474C382.322 312.181 382.682 312.034 383.109 312.034C383.536 312.034 383.889 312.181 384.169 312.474C384.449 312.767 384.589 313.141 384.589 313.594C384.589 314.047 384.449 314.421 384.169 314.714C383.889 315.007 383.536 315.154 383.109 315.154ZM388.097 314.914V313.034H390.937V304.674H388.597V303.234C389.237 303.114 389.783 302.974 390.237 302.814C390.703 302.641 391.137 302.434 391.537 302.194H393.257V313.034H395.757V314.914H388.097ZM402.751 315.154C401.417 315.154 400.364 314.587 399.591 313.454C398.817 312.307 398.431 310.654 398.431 308.494C398.431 306.334 398.817 304.707 399.591 303.614C400.364 302.507 401.417 301.954 402.751 301.954C404.084 301.954 405.137 302.507 405.911 303.614C406.684 304.721 407.071 306.347 407.071 308.494C407.071 310.654 406.684 312.307 405.911 313.454C405.137 314.587 404.084 315.154 402.751 315.154ZM402.751 313.354C403.057 313.354 403.337 313.274 403.591 313.114C403.857 312.941 404.084 312.661 404.271 312.274C404.457 311.887 404.604 311.387 404.711 310.774C404.817 310.161 404.871 309.401 404.871 308.494C404.871 307.601 404.817 306.854 404.711 306.254C404.604 305.641 404.457 305.147 404.271 304.774C404.084 304.401 403.857 304.141 403.591 303.994C403.337 303.834 403.057 303.754 402.751 303.754C402.444 303.754 402.157 303.834 401.891 303.994C401.637 304.141 401.417 304.401 401.231 304.774C401.044 305.147 400.897 305.641 400.791 306.254C400.684 306.854 400.631 307.601 400.631 308.494C400.631 309.401 400.684 310.161 400.791 310.774C400.897 311.387 401.044 311.887 401.231 312.274C401.417 312.661 401.637 312.941 401.891 313.114C402.157 313.274 402.444 313.354 402.751 313.354ZM414.625 314.914V311.634H409.005V310.074L414.045 302.194H416.785V309.854H418.385V311.634H416.785V314.914H414.625ZM411.285 309.854H414.625V306.974C414.625 306.601 414.631 306.161 414.645 305.654C414.671 305.147 414.698 304.707 414.725 304.334H414.645C414.485 304.667 414.318 304.994 414.145 305.314C413.971 305.634 413.791 305.967 413.605 306.314L411.285 309.854Z" fill="#0E1011"/>
<path d="M589.031 380.717V377.437H583.411V375.877L588.451 367.997H591.191V375.657H592.791V377.437H591.191V380.717H589.031ZM585.691 375.657H589.031V372.777C589.031 372.403 589.037 371.963 589.051 371.457C589.077 370.95 589.104 370.51 589.131 370.137H589.051C588.891 370.47 588.724 370.797 588.551 371.117C588.377 371.437 588.197 371.77 588.011 372.117L585.691 375.657ZM596.824 380.957C596.398 380.957 596.038 380.81 595.744 380.517C595.464 380.223 595.324 379.85 595.324 379.397C595.324 378.943 595.464 378.57 595.744 378.277C596.038 377.983 596.398 377.837 596.824 377.837C597.251 377.837 597.604 377.983 597.884 378.277C598.164 378.57 598.304 378.943 598.304 379.397C598.304 379.85 598.164 380.223 597.884 380.517C597.604 380.81 597.251 380.957 596.824 380.957ZM601.092 380.717V379.377C601.972 378.523 602.766 377.737 603.472 377.017C604.192 376.297 604.799 375.63 605.292 375.017C605.799 374.403 606.186 373.83 606.452 373.297C606.719 372.763 606.852 372.257 606.852 371.777C606.852 371.097 606.672 370.563 606.312 370.177C605.952 369.777 605.432 369.577 604.752 369.577C604.259 369.577 603.806 369.717 603.392 369.997C602.992 370.277 602.619 370.61 602.272 370.997L600.992 369.717C601.579 369.09 602.179 368.61 602.792 368.277C603.419 367.93 604.172 367.757 605.052 367.757C605.666 367.757 606.219 367.85 606.712 368.037C607.206 368.223 607.626 368.49 607.972 368.837C608.319 369.17 608.586 369.577 608.772 370.057C608.972 370.537 609.072 371.07 609.072 371.657C609.072 372.217 608.946 372.79 608.692 373.377C608.452 373.95 608.119 374.537 607.692 375.137C607.279 375.723 606.792 376.33 606.232 376.957C605.672 377.583 605.079 378.23 604.452 378.897C604.786 378.87 605.146 378.843 605.532 378.817C605.919 378.777 606.266 378.757 606.572 378.757H609.692V380.717H601.092ZM616.226 374.197C616.599 374.197 616.986 374.083 617.386 373.857C617.799 373.617 618.173 373.237 618.506 372.717C618.386 371.597 618.106 370.783 617.666 370.277C617.239 369.77 616.719 369.517 616.106 369.517C615.586 369.517 615.139 369.723 614.766 370.137C614.393 370.55 614.206 371.143 614.206 371.917C614.206 372.677 614.379 373.25 614.726 373.637C615.086 374.01 615.586 374.197 616.226 374.197ZM615.686 380.957C614.926 380.957 614.266 380.817 613.706 380.537C613.146 380.257 612.673 379.917 612.286 379.517L613.526 378.117C613.766 378.397 614.066 378.63 614.426 378.817C614.799 378.99 615.179 379.077 615.566 379.077C615.966 379.077 616.339 378.997 616.686 378.837C617.046 378.677 617.359 378.417 617.626 378.057C617.893 377.683 618.106 377.197 618.266 376.597C618.439 375.997 618.539 375.257 618.566 374.377C618.193 374.843 617.753 375.21 617.246 375.477C616.739 375.73 616.253 375.857 615.786 375.857C615.239 375.857 614.739 375.777 614.286 375.617C613.833 375.457 613.439 375.217 613.106 374.897C612.786 374.563 612.533 374.15 612.346 373.657C612.173 373.163 612.086 372.583 612.086 371.917C612.086 371.277 612.193 370.703 612.406 370.197C612.619 369.677 612.906 369.237 613.266 368.877C613.626 368.517 614.046 368.243 614.526 368.057C615.019 367.857 615.539 367.757 616.086 367.757C616.699 367.757 617.286 367.883 617.846 368.137C618.406 368.377 618.893 368.75 619.306 369.257C619.733 369.763 620.066 370.41 620.306 371.197C620.559 371.97 620.686 372.89 620.686 373.957C620.686 375.197 620.546 376.257 620.266 377.137C619.999 378.017 619.633 378.743 619.166 379.317C618.713 379.877 618.179 380.29 617.566 380.557C616.966 380.823 616.339 380.957 615.686 380.957ZM628.34 380.717V377.437H622.72V375.877L627.76 367.997H630.5V375.657H632.1V377.437H630.5V380.717H628.34ZM625 375.657H628.34V372.777C628.34 372.403 628.347 371.963 628.36 371.457C628.387 370.95 628.413 370.51 628.44 370.137H628.36C628.2 370.47 628.033 370.797 627.86 371.117C627.687 371.437 627.507 371.77 627.32 372.117L625 375.657Z" fill="#0E1011"/>
<path d="M809.98 369.369C808.953 369.369 808.087 369.196 807.38 368.849C806.687 368.489 806.107 368.076 805.64 367.609L806.7 366.129C807.087 366.489 807.52 366.809 808 367.089C808.48 367.356 809.04 367.489 809.68 367.489C810.4 367.489 810.987 367.276 811.44 366.849C811.907 366.422 812.14 365.822 812.14 365.049C812.14 364.289 811.927 363.702 811.5 363.289C811.073 362.876 810.507 362.669 809.8 362.669C809.387 362.669 809.04 362.729 808.76 362.849C808.48 362.956 808.147 363.136 807.76 363.389L806.66 362.689L807.04 356.409H813.84V358.349H809.04L808.78 361.429C809.047 361.296 809.307 361.196 809.56 361.129C809.827 361.049 810.127 361.009 810.46 361.009C811.007 361.009 811.52 361.089 812 361.249C812.493 361.409 812.92 361.656 813.28 361.989C813.64 362.309 813.927 362.722 814.14 363.229C814.353 363.722 814.46 364.309 814.46 364.989C814.46 365.682 814.333 366.302 814.08 366.849C813.84 367.396 813.513 367.856 813.1 368.229C812.687 368.602 812.207 368.889 811.66 369.089C811.127 369.276 810.567 369.369 809.98 369.369ZM818.934 369.369C818.507 369.369 818.147 369.222 817.854 368.929C817.574 368.636 817.434 368.262 817.434 367.809C817.434 367.356 817.574 366.982 817.854 366.689C818.147 366.396 818.507 366.249 818.934 366.249C819.36 366.249 819.714 366.396 819.994 366.689C820.274 366.982 820.414 367.356 820.414 367.809C820.414 368.262 820.274 368.636 819.994 368.929C819.714 369.222 819.36 369.369 818.934 369.369ZM828.422 369.129V365.849H822.802V364.289L827.842 356.409H830.582V364.069H832.182V365.849H830.582V369.129H828.422ZM825.082 364.069H828.422V361.189C828.422 360.816 828.428 360.376 828.442 359.869C828.468 359.362 828.495 358.922 828.522 358.549H828.442C828.282 358.882 828.115 359.209 827.942 359.529C827.768 359.849 827.588 360.182 827.402 360.529L825.082 364.069ZM838.956 369.369C838.329 369.369 837.736 369.249 837.176 369.009C836.616 368.756 836.122 368.376 835.696 367.869C835.282 367.362 834.949 366.716 834.696 365.929C834.456 365.142 834.336 364.216 834.336 363.149C834.336 361.909 834.476 360.849 834.756 359.969C835.036 359.089 835.402 358.369 835.856 357.809C836.322 357.249 836.856 356.836 837.456 356.569C838.056 356.302 838.682 356.169 839.336 356.169C840.109 356.169 840.769 356.309 841.316 356.589C841.876 356.869 842.349 357.209 842.736 357.609L841.496 359.009C841.269 358.729 840.969 358.502 840.596 358.329C840.236 358.142 839.862 358.049 839.476 358.049C839.076 358.049 838.696 358.129 838.336 358.289C837.989 358.449 837.682 358.716 837.416 359.089C837.149 359.449 836.929 359.929 836.756 360.529C836.596 361.129 836.502 361.869 836.476 362.749C836.849 362.282 837.282 361.916 837.776 361.649C838.282 361.382 838.769 361.249 839.236 361.249C839.782 361.249 840.282 361.329 840.736 361.489C841.202 361.649 841.596 361.896 841.916 362.229C842.249 362.549 842.502 362.956 842.676 363.449C842.862 363.942 842.956 364.522 842.956 365.189C842.956 365.829 842.849 366.409 842.636 366.929C842.422 367.436 842.136 367.869 841.776 368.229C841.416 368.589 840.989 368.869 840.496 369.069C840.016 369.269 839.502 369.369 838.956 369.369ZM838.916 367.609C839.449 367.609 839.896 367.402 840.256 366.989C840.629 366.576 840.816 365.976 840.816 365.189C840.816 364.429 840.642 363.862 840.296 363.489C839.949 363.116 839.456 362.929 838.816 362.929C838.456 362.929 838.076 363.042 837.676 363.269C837.276 363.482 836.896 363.856 836.536 364.389C836.656 365.522 836.922 366.342 837.336 366.849C837.762 367.356 838.289 367.609 838.916 367.609ZM849.289 369.369C848.263 369.369 847.396 369.196 846.689 368.849C845.996 368.489 845.416 368.076 844.949 367.609L846.009 366.129C846.396 366.489 846.829 366.809 847.309 367.089C847.789 367.356 848.349 367.489 848.989 367.489C849.709 367.489 850.296 367.276 850.749 366.849C851.216 366.422 851.449 365.822 851.449 365.049C851.449 364.289 851.236 363.702 850.809 363.289C850.383 362.876 849.816 362.669 849.109 362.669C848.696 362.669 848.349 362.729 848.069 362.849C847.789 362.956 847.456 363.136 847.069 363.389L845.969 362.689L846.349 356.409H853.149V358.349H848.349L848.089 361.429C848.356 361.296 848.616 361.196 848.869 361.129C849.136 361.049 849.436 361.009 849.769 361.009C850.316 361.009 850.829 361.089 851.309 361.249C851.803 361.409 852.229 361.656 852.589 361.989C852.949 362.309 853.236 362.722 853.449 363.229C853.663 363.722 853.769 364.309 853.769 364.989C853.769 365.682 853.643 366.302 853.389 366.849C853.149 367.396 852.823 367.856 852.409 368.229C851.996 368.602 851.516 368.889 850.969 369.089C850.436 369.276 849.876 369.369 849.289 369.369Z" fill="#0E1011"/>
<path d="M140.879 40.9216C139.839 40.9216 138.973 40.7483 138.279 40.4016C137.586 40.055 137.013 39.6283 136.559 39.1216L137.659 37.6416C138.046 38.0283 138.486 38.3616 138.979 38.6416C139.473 38.9083 140.039 39.0416 140.679 39.0416C141.373 39.0416 141.933 38.875 142.359 38.5416C142.799 38.195 143.019 37.7216 143.019 37.1216C143.019 36.7883 142.959 36.4883 142.839 36.2216C142.719 35.955 142.513 35.7283 142.219 35.5416C141.939 35.355 141.559 35.215 141.079 35.1216C140.599 35.015 139.999 34.9616 139.279 34.9616V33.2816C139.906 33.2816 140.426 33.235 140.839 33.1416C141.266 33.035 141.606 32.895 141.859 32.7216C142.126 32.535 142.313 32.315 142.419 32.0616C142.539 31.8083 142.599 31.535 142.599 31.2416C142.599 30.7083 142.433 30.295 142.099 30.0016C141.766 29.695 141.306 29.5416 140.719 29.5416C140.213 29.5416 139.753 29.655 139.339 29.8816C138.939 30.095 138.546 30.3816 138.159 30.7416L136.979 29.3216C137.526 28.8416 138.106 28.455 138.719 28.1616C139.346 27.8683 140.039 27.7216 140.799 27.7216C141.413 27.7216 141.973 27.795 142.479 27.9416C142.986 28.0883 143.419 28.3083 143.779 28.6016C144.139 28.8816 144.419 29.235 144.619 29.6616C144.819 30.075 144.919 30.5483 144.919 31.0816C144.919 31.8016 144.719 32.4016 144.319 32.8816C143.933 33.3616 143.393 33.735 142.699 34.0016V34.0816C143.459 34.2816 144.086 34.6483 144.579 35.1816C145.086 35.715 145.339 36.4016 145.339 37.2416C145.339 37.8283 145.219 38.3483 144.979 38.8016C144.753 39.255 144.433 39.6416 144.019 39.9616C143.619 40.2683 143.146 40.5083 142.599 40.6816C142.066 40.8416 141.493 40.9216 140.879 40.9216ZM151.973 34.1616C152.346 34.1616 152.733 34.0483 153.133 33.8216C153.546 33.5816 153.92 33.2016 154.253 32.6816C154.133 31.5616 153.853 30.7483 153.413 30.2416C152.986 29.735 152.466 29.4816 151.853 29.4816C151.333 29.4816 150.886 29.6883 150.513 30.1016C150.14 30.515 149.953 31.1083 149.953 31.8816C149.953 32.6416 150.126 33.215 150.473 33.6016C150.833 33.975 151.333 34.1616 151.973 34.1616ZM151.433 40.9216C150.673 40.9216 150.013 40.7816 149.453 40.5016C148.893 40.2216 148.42 39.8816 148.033 39.4816L149.273 38.0816C149.513 38.3616 149.813 38.595 150.173 38.7816C150.546 38.955 150.926 39.0416 151.313 39.0416C151.713 39.0416 152.086 38.9616 152.433 38.8016C152.793 38.6416 153.106 38.3816 153.373 38.0216C153.64 37.6483 153.853 37.1616 154.013 36.5616C154.186 35.9616 154.286 35.2216 154.313 34.3416C153.94 34.8083 153.5 35.175 152.993 35.4416C152.486 35.695 152 35.8216 151.533 35.8216C150.986 35.8216 150.486 35.7416 150.033 35.5816C149.58 35.4216 149.186 35.1816 148.853 34.8616C148.533 34.5283 148.28 34.115 148.093 33.6216C147.92 33.1283 147.833 32.5483 147.833 31.8816C147.833 31.2416 147.94 30.6683 148.153 30.1616C148.366 29.6416 148.653 29.2016 149.013 28.8416C149.373 28.4816 149.793 28.2083 150.273 28.0216C150.766 27.8216 151.286 27.7216 151.833 27.7216C152.446 27.7216 153.033 27.8483 153.593 28.1016C154.153 28.3416 154.64 28.715 155.053 29.2216C155.48 29.7283 155.813 30.375 156.053 31.1616C156.306 31.935 156.433 32.855 156.433 33.9216C156.433 35.1616 156.293 36.2216 156.013 37.1016C155.746 37.9816 155.38 38.7083 154.913 39.2816C154.46 39.8416 153.926 40.255 153.313 40.5216C152.713 40.7883 152.086 40.9216 151.433 40.9216ZM160.867 40.9216C160.44 40.9216 160.08 40.775 159.787 40.4816C159.507 40.1883 159.367 39.815 159.367 39.3616C159.367 38.9083 159.507 38.535 159.787 38.2416C160.08 37.9483 160.44 37.8016 160.867 37.8016C161.294 37.8016 161.647 37.9483 161.927 38.2416C162.207 38.535 162.347 38.9083 162.347 39.3616C162.347 39.815 162.207 40.1883 161.927 40.4816C161.647 40.775 161.294 40.9216 160.867 40.9216ZM169.255 34.1616C169.628 34.1616 170.015 34.0483 170.415 33.8216C170.828 33.5816 171.201 33.2016 171.535 32.6816C171.415 31.5616 171.135 30.7483 170.695 30.2416C170.268 29.735 169.748 29.4816 169.135 29.4816C168.615 29.4816 168.168 29.6883 167.795 30.1016C167.421 30.515 167.235 31.1083 167.235 31.8816C167.235 32.6416 167.408 33.215 167.755 33.6016C168.115 33.975 168.615 34.1616 169.255 34.1616ZM168.715 40.9216C167.955 40.9216 167.295 40.7816 166.735 40.5016C166.175 40.2216 165.701 39.8816 165.315 39.4816L166.555 38.0816C166.795 38.3616 167.095 38.595 167.455 38.7816C167.828 38.955 168.208 39.0416 168.595 39.0416C168.995 39.0416 169.368 38.9616 169.715 38.8016C170.075 38.6416 170.388 38.3816 170.655 38.0216C170.921 37.6483 171.135 37.1616 171.295 36.5616C171.468 35.9616 171.568 35.2216 171.595 34.3416C171.221 34.8083 170.781 35.175 170.275 35.4416C169.768 35.695 169.281 35.8216 168.815 35.8216C168.268 35.8216 167.768 35.7416 167.315 35.5816C166.861 35.4216 166.468 35.1816 166.135 34.8616C165.815 34.5283 165.561 34.115 165.375 33.6216C165.201 33.1283 165.115 32.5483 165.115 31.8816C165.115 31.2416 165.221 30.6683 165.435 30.1616C165.648 29.6416 165.935 29.2016 166.295 28.8416C166.655 28.4816 167.075 28.2083 167.555 28.0216C168.048 27.8216 168.568 27.7216 169.115 27.7216C169.728 27.7216 170.315 27.8483 170.875 28.1016C171.435 28.3416 171.921 28.715 172.335 29.2216C172.761 29.7283 173.095 30.375 173.335 31.1616C173.588 31.935 173.715 32.855 173.715 33.9216C173.715 35.1616 173.575 36.2216 173.295 37.1016C173.028 37.9816 172.661 38.7083 172.195 39.2816C171.741 39.8416 171.208 40.255 170.595 40.5216C169.995 40.7883 169.368 40.9216 168.715 40.9216ZM181.369 40.6816V37.4016H175.749V35.8416L180.789 27.9616H183.529V35.6216H185.129V37.4016H183.529V40.6816H181.369ZM178.029 35.6216H181.369V32.7416C181.369 32.3683 181.375 31.9283 181.389 31.4216C181.415 30.915 181.442 30.475 181.469 30.1016H181.389C181.229 30.435 181.062 30.7616 180.889 31.0816C180.715 31.4016 180.535 31.735 180.349 32.0816L178.029 35.6216ZM191.203 40.9216C190.163 40.9216 189.296 40.7483 188.603 40.4016C187.909 40.055 187.336 39.6283 186.883 39.1216L187.983 37.6416C188.369 38.0283 188.809 38.3616 189.303 38.6416C189.796 38.9083 190.363 39.0416 191.003 39.0416C191.696 39.0416 192.256 38.875 192.683 38.5416C193.123 38.195 193.343 37.7216 193.343 37.1216C193.343 36.7883 193.283 36.4883 193.163 36.2216C193.043 35.955 192.836 35.7283 192.543 35.5416C192.263 35.355 191.883 35.215 191.403 35.1216C190.923 35.015 190.323 34.9616 189.603 34.9616V33.2816C190.229 33.2816 190.749 33.235 191.163 33.1416C191.589 33.035 191.929 32.895 192.183 32.7216C192.449 32.535 192.636 32.315 192.743 32.0616C192.863 31.8083 192.923 31.535 192.923 31.2416C192.923 30.7083 192.756 30.295 192.423 30.0016C192.089 29.695 191.629 29.5416 191.043 29.5416C190.536 29.5416 190.076 29.655 189.663 29.8816C189.263 30.095 188.869 30.3816 188.483 30.7416L187.303 29.3216C187.849 28.8416 188.429 28.455 189.043 28.1616C189.669 27.8683 190.363 27.7216 191.123 27.7216C191.736 27.7216 192.296 27.795 192.803 27.9416C193.309 28.0883 193.743 28.3083 194.103 28.6016C194.463 28.8816 194.743 29.235 194.943 29.6616C195.143 30.075 195.243 30.5483 195.243 31.0816C195.243 31.8016 195.043 32.4016 194.643 32.8816C194.256 33.3616 193.716 33.735 193.023 34.0016V34.0816C193.783 34.2816 194.409 34.6483 194.903 35.1816C195.409 35.715 195.663 36.4016 195.663 37.2416C195.663 37.8283 195.543 38.3483 195.303 38.8016C195.076 39.255 194.756 39.6416 194.343 39.9616C193.943 40.2683 193.469 40.5083 192.923 40.6816C192.389 40.8416 191.816 40.9216 191.203 40.9216Z" fill="#0E1011"/>
<path d="M1035 352.236C1033.97 352.236 1033.1 352.063 1032.4 351.716C1031.7 351.356 1031.12 350.943 1030.66 350.476L1031.72 348.996C1032.1 349.356 1032.54 349.676 1033.02 349.956C1033.5 350.223 1034.06 350.356 1034.7 350.356C1035.42 350.356 1036 350.143 1036.46 349.716C1036.92 349.289 1037.16 348.689 1037.16 347.916C1037.16 347.156 1036.94 346.569 1036.52 346.156C1036.09 345.743 1035.52 345.536 1034.82 345.536C1034.4 345.536 1034.06 345.596 1033.78 345.716C1033.5 345.823 1033.16 346.003 1032.78 346.256L1031.68 345.556L1032.06 339.276H1038.86V341.216H1034.06L1033.8 344.296C1034.06 344.163 1034.32 344.063 1034.58 343.996C1034.84 343.916 1035.14 343.876 1035.48 343.876C1036.02 343.876 1036.54 343.956 1037.02 344.116C1037.51 344.276 1037.94 344.523 1038.3 344.856C1038.66 345.176 1038.94 345.589 1039.16 346.096C1039.37 346.589 1039.48 347.176 1039.48 347.856C1039.48 348.549 1039.35 349.169 1039.1 349.716C1038.86 350.263 1038.53 350.723 1038.12 351.096C1037.7 351.469 1037.22 351.756 1036.68 351.956C1036.14 352.143 1035.58 352.236 1035 352.236ZM1043.95 352.236C1043.52 352.236 1043.16 352.089 1042.87 351.796C1042.59 351.503 1042.45 351.129 1042.45 350.676C1042.45 350.223 1042.59 349.849 1042.87 349.556C1043.16 349.263 1043.52 349.116 1043.95 349.116C1044.38 349.116 1044.73 349.263 1045.01 349.556C1045.29 349.849 1045.43 350.223 1045.43 350.676C1045.43 351.129 1045.29 351.503 1045.01 351.796C1044.73 352.089 1044.38 352.236 1043.95 352.236ZM1052.96 352.236C1052.33 352.236 1051.74 352.116 1051.18 351.876C1050.62 351.623 1050.12 351.243 1049.7 350.736C1049.28 350.229 1048.95 349.583 1048.7 348.796C1048.46 348.009 1048.34 347.083 1048.34 346.016C1048.34 344.776 1048.48 343.716 1048.76 342.836C1049.04 341.956 1049.4 341.236 1049.86 340.676C1050.32 340.116 1050.86 339.703 1051.46 339.436C1052.06 339.169 1052.68 339.036 1053.34 339.036C1054.11 339.036 1054.77 339.176 1055.32 339.456C1055.88 339.736 1056.35 340.076 1056.74 340.476L1055.5 341.876C1055.27 341.596 1054.97 341.369 1054.6 341.196C1054.24 341.009 1053.86 340.916 1053.48 340.916C1053.08 340.916 1052.7 340.996 1052.34 341.156C1051.99 341.316 1051.68 341.583 1051.42 341.956C1051.15 342.316 1050.93 342.796 1050.76 343.396C1050.6 343.996 1050.5 344.736 1050.48 345.616C1050.85 345.149 1051.28 344.783 1051.78 344.516C1052.28 344.249 1052.77 344.116 1053.24 344.116C1053.78 344.116 1054.28 344.196 1054.74 344.356C1055.2 344.516 1055.6 344.763 1055.92 345.096C1056.25 345.416 1056.5 345.823 1056.68 346.316C1056.86 346.809 1056.96 347.389 1056.96 348.056C1056.96 348.696 1056.85 349.276 1056.64 349.796C1056.42 350.303 1056.14 350.736 1055.78 351.096C1055.42 351.456 1054.99 351.736 1054.5 351.936C1054.02 352.136 1053.5 352.236 1052.96 352.236ZM1052.92 350.476C1053.45 350.476 1053.9 350.269 1054.26 349.856C1054.63 349.443 1054.82 348.843 1054.82 348.056C1054.82 347.296 1054.64 346.729 1054.3 346.356C1053.95 345.983 1053.46 345.796 1052.82 345.796C1052.46 345.796 1052.08 345.909 1051.68 346.136C1051.28 346.349 1050.9 346.723 1050.54 347.256C1050.66 348.389 1050.92 349.209 1051.34 349.716C1051.76 350.223 1052.29 350.476 1052.92 350.476ZM1061.83 351.996C1061.88 350.863 1061.98 349.829 1062.13 348.896C1062.28 347.949 1062.48 347.049 1062.75 346.196C1063.03 345.343 1063.38 344.516 1063.81 343.716C1064.24 342.903 1064.76 342.069 1065.37 341.216H1059.35V339.276H1067.89V340.676C1067.14 341.596 1066.54 342.476 1066.07 343.316C1065.62 344.143 1065.26 344.996 1064.99 345.876C1064.72 346.743 1064.53 347.669 1064.41 348.656C1064.3 349.643 1064.22 350.756 1064.17 351.996H1061.83ZM1070.97 351.996V350.116H1073.81V341.756H1071.47V340.316C1072.11 340.196 1072.65 340.056 1073.11 339.896C1073.57 339.723 1074.01 339.516 1074.41 339.276H1076.13V350.116H1078.63V351.996H1070.97Z" fill="#0E1011"/>
</svg>
