<svg width="502" height="103" viewBox="0 0 502 103" fill="none" xmlns="http://www.w3.org/2000/svg">
<path d="M457.62 87.9863V77.4285H463.703V78.5551H458.956V81.8705H462.963V83.0132H458.956V86.8436H463.864V87.9863H457.62ZM464.027 87.9863L466.586 83.8984L464.22 80.1645H465.652L466.698 81.8866C466.816 82.0904 466.94 82.305 467.069 82.5304C467.197 82.7557 467.331 82.9756 467.471 83.1902H467.535C467.653 82.9756 467.771 82.7557 467.889 82.5304C468.007 82.305 468.125 82.0904 468.244 81.8866L469.193 80.1645H470.577L468.211 84.0432L470.754 87.9863H469.322L468.179 86.1677C468.04 85.9316 467.9 85.6956 467.761 85.4595C467.621 85.2235 467.476 84.9928 467.326 84.7675H467.262C467.122 84.9928 466.988 85.2235 466.859 85.4595C466.731 85.6848 466.602 85.9209 466.473 86.1677L465.411 87.9863H464.027ZM474.019 88.1795C473.182 88.1795 472.598 87.938 472.265 87.4552C471.943 86.9724 471.782 86.3447 471.782 85.5722V81.2428H470.623V80.245L471.847 80.1645L472.008 77.9757H473.118V80.1645H475.226V81.2428H473.118V85.5883C473.118 86.0711 473.204 86.4466 473.376 86.7149C473.558 86.9724 473.874 87.1011 474.325 87.1011C474.465 87.1011 474.615 87.0797 474.776 87.0368C474.937 86.9831 475.082 86.9348 475.21 86.8919L475.468 87.8898C475.253 87.9649 475.017 88.0292 474.76 88.0829C474.513 88.1473 474.266 88.1795 474.019 88.1795ZM476.641 87.9863V80.1645H477.961V87.9863H476.641ZM477.317 78.5551C477.059 78.5551 476.845 78.48 476.673 78.3297C476.512 78.1688 476.432 77.9542 476.432 77.686C476.432 77.4285 476.512 77.2192 476.673 77.0583C476.845 76.8974 477.059 76.8169 477.317 76.8169C477.574 76.8169 477.784 76.8974 477.945 77.0583C478.116 77.2192 478.202 77.4285 478.202 77.686C478.202 77.9542 478.116 78.1688 477.945 78.3297C477.784 78.48 477.574 78.5551 477.317 78.5551ZM480.248 87.9863V80.1645H481.342L481.455 81.2911H481.503C481.878 80.9156 482.275 80.6044 482.694 80.3576C483.112 80.1001 483.59 79.9714 484.126 79.9714C484.952 79.9714 485.553 80.2342 485.929 80.76C486.315 81.275 486.508 82.0314 486.508 83.0293V87.9863H485.189V83.2063C485.189 82.4767 485.071 81.9456 484.834 81.613C484.598 81.2804 484.223 81.1141 483.708 81.1141C483.311 81.1141 482.951 81.216 482.63 81.4199C482.318 81.6237 481.964 81.9241 481.567 82.3211V87.9863H480.248ZM491.785 88.1795C491.099 88.1795 490.476 88.0185 489.918 87.6966C489.36 87.3747 488.92 86.908 488.599 86.2964C488.277 85.6848 488.116 84.9499 488.116 84.0915C488.116 83.2117 488.287 82.466 488.631 81.8544C488.985 81.2428 489.446 80.7761 490.015 80.4542C490.594 80.1323 491.217 79.9714 491.882 79.9714C492.397 79.9714 492.837 80.0626 493.201 80.245C493.577 80.4274 493.899 80.642 494.167 80.8887L493.491 81.7578C493.266 81.554 493.024 81.3877 492.767 81.2589C492.52 81.1302 492.241 81.0658 491.93 81.0658C491.458 81.0658 491.034 81.1945 490.659 81.452C490.294 81.6988 490.004 82.0529 489.789 82.5143C489.586 82.9649 489.484 83.4907 489.484 84.0915C489.484 84.9821 489.704 85.7063 490.144 86.2642C490.594 86.8114 491.179 87.085 491.898 87.085C492.263 87.085 492.601 87.0099 492.912 86.8597C493.223 86.6988 493.497 86.511 493.733 86.2964L494.312 87.1816C493.958 87.4928 493.566 87.7395 493.137 87.922C492.708 88.0936 492.257 88.1795 491.785 88.1795ZM497.986 88.1795C497.149 88.1795 496.564 87.938 496.232 87.4552C495.91 86.9724 495.749 86.3447 495.749 85.5722V81.2428H494.59V80.245L495.813 80.1645L495.974 77.9757H497.085V80.1645H499.193V81.2428H497.085V85.5883C497.085 86.0711 497.171 86.4466 497.342 86.7149C497.525 86.9724 497.841 87.1011 498.292 87.1011C498.431 87.1011 498.582 87.0797 498.743 87.0368C498.904 86.9831 499.048 86.9348 499.177 86.8919L499.435 87.8898C499.22 87.9649 498.984 88.0292 498.726 88.0829C498.48 88.1473 498.233 88.1795 497.986 88.1795Z" fill="#0E1011"/>
<path d="M46.5947 25.6602L496.127 25.8625" stroke="#E5E8EE" stroke-width="1.76031"/>
<ellipse cx="342.13" cy="26.0678" rx="27.6117" ry="25.8022" fill="#D64741"/>
<path d="M336.837 34.4975C335.629 34.4975 334.517 34.2177 333.501 33.6581C332.485 33.0985 331.667 32.2738 331.049 31.184C330.445 30.0795 330.143 28.7246 330.143 27.1194C330.143 25.5289 330.452 24.174 331.071 23.0548C331.704 21.9208 332.536 21.0593 333.567 20.4702C334.613 19.8664 335.739 19.5645 336.947 19.5645C337.875 19.5645 338.707 19.756 339.443 20.1389C340.179 20.5071 340.791 20.9415 341.277 21.4422L339.554 23.5187C339.185 23.18 338.795 22.9075 338.383 22.7013C337.985 22.4804 337.529 22.37 337.013 22.37C336.365 22.37 335.769 22.5541 335.224 22.9222C334.694 23.2904 334.267 23.8206 333.943 24.5127C333.633 25.2049 333.479 26.037 333.479 27.0089C333.479 28.4816 333.795 29.6303 334.429 30.455C335.062 31.2797 335.909 31.6921 336.969 31.6921C337.558 31.6921 338.081 31.5595 338.537 31.2944C339.009 31.0293 339.421 30.7127 339.775 30.3445L341.498 32.3768C340.29 33.7906 338.736 34.4975 336.837 34.4975ZM343.199 34.2324V19.8296H348.39C349.407 19.8296 350.334 19.9695 351.174 20.2493C352.013 20.5144 352.683 20.9709 353.184 21.6189C353.685 22.2669 353.935 23.1652 353.935 24.3139C353.935 25.3743 353.699 26.2505 353.228 26.9427C352.772 27.6201 352.153 28.1282 351.373 28.4669L354.642 34.2324H350.997L348.236 29.0412H346.446V34.2324H343.199ZM346.446 26.4567H348.125C348.979 26.4567 349.627 26.28 350.069 25.9265C350.526 25.5583 350.754 25.0208 350.754 24.3139C350.754 23.607 350.526 23.1137 350.069 22.8339C349.627 22.5541 348.979 22.4142 348.125 22.4142H346.446V26.4567Z" fill="white"/>
<path d="M435.101 25.2615C435.101 38.5164 423.583 49.3632 409.246 49.3632C394.909 49.3632 383.391 38.5164 383.391 25.2615C383.391 12.0066 394.909 1.15975 409.246 1.15975C423.583 1.15975 435.101 12.0066 435.101 25.2615Z" fill="white" stroke="#E5E8EE" stroke-width="1.78826"/>
<path d="M398.3 32.0352V19.8895H405.901V22.1994H401.039V24.6397H405.174V26.931H401.039V29.7252H406.087V32.0352H398.3ZM409.177 32.0352L406.923 19.8895H409.735L410.574 25.5711C410.648 26.2045 410.729 26.8441 410.816 27.4899C410.903 28.1232 410.984 28.7628 411.058 29.4086H411.133C411.257 28.7628 411.375 28.1232 411.486 27.4899C411.611 26.8441 411.735 26.2045 411.859 25.5711L413.163 19.8895H415.492L416.796 25.5711C416.92 26.1797 417.038 26.8068 417.149 27.4526C417.274 28.0984 417.398 28.7504 417.522 29.4086H417.597C417.683 28.7504 417.764 28.1046 417.839 27.4712C417.926 26.8254 418.013 26.1921 418.1 25.5711L418.938 19.8895H421.564L419.403 32.0352H415.957L414.765 26.5212C414.666 26.0493 414.573 25.5773 414.486 25.1054C414.411 24.6211 414.343 24.1554 414.281 23.7083H414.206C414.132 24.1554 414.051 24.6211 413.964 25.1054C413.89 25.5773 413.803 26.0493 413.703 26.5212L412.567 32.0352H409.177Z" fill="#0E1011"/>
<path d="M301.11 25.6619C301.11 38.9168 289.592 49.7636 275.255 49.7636C260.918 49.7636 249.4 38.9168 249.4 25.6619C249.4 12.407 260.918 1.56014 275.255 1.56014C289.592 1.56014 301.11 12.407 301.11 25.6619Z" fill="white" stroke="#E5E8EE" stroke-width="1.78826"/>
<path d="M265.596 32.4355V20.2899H273.196V22.5998H268.334V25.0401H272.47V27.3314H268.334V30.1256H273.383V32.4355H265.596ZM275.392 32.4355V20.2899H278.205L281.372 26.3255L282.564 29.0079H282.638C282.576 28.3622 282.502 27.6419 282.415 26.8471C282.34 26.0523 282.303 25.2947 282.303 24.5744V20.2899H284.911V32.4355H282.098L278.931 26.3814L277.739 23.7361H277.664C277.727 24.4068 277.795 25.127 277.869 25.897C277.956 26.667 278 27.4121 278 28.1324V32.4355H275.392Z" fill="#0E1011"/>
<path d="M238.98 25.6619C238.98 38.9168 227.462 49.7636 213.125 49.7636C198.788 49.7636 187.27 38.9168 187.27 25.6619C187.27 12.407 198.788 1.56014 213.125 1.56014C227.462 1.56014 238.98 12.407 238.98 25.6619Z" fill="white" stroke="#E5E8EE" stroke-width="1.78826"/>
<path d="M205.972 32.4355L202.302 20.2899H205.208L206.661 25.9529C206.848 26.6111 207.009 27.2569 207.146 27.8902C207.295 28.5236 207.463 29.1756 207.649 29.8462H207.723C207.897 29.1756 208.059 28.5236 208.208 27.8902C208.357 27.2569 208.518 26.6111 208.692 25.9529L210.126 20.2899H212.921L209.269 32.4355H205.972ZM218.414 32.6591C216.837 32.6591 215.632 32.1934 214.8 31.262C213.968 30.3305 213.552 28.8465 213.552 26.8098V20.2899H216.309V27.0892C216.309 28.2814 216.489 29.1135 216.849 29.5854C217.209 30.0573 217.731 30.2933 218.414 30.2933C219.097 30.2933 219.625 30.0573 219.997 29.5854C220.37 29.1135 220.556 28.2814 220.556 27.0892V20.2899H223.202V26.8098C223.202 28.8465 222.792 30.3305 221.972 31.262C221.165 32.1934 219.979 32.6591 218.414 32.6591Z" fill="#0E1011"/>
<path d="M176.853 25.6619C176.853 38.9168 165.335 49.7636 150.998 49.7636C136.661 49.7636 125.143 38.9168 125.143 25.6619C125.143 12.407 136.661 1.56014 150.998 1.56014C165.335 1.56014 176.853 12.407 176.853 25.6619Z" fill="white" stroke="#E5E8EE" stroke-width="1.78826"/>
<path d="M141.266 32.4355V20.2899H144.078L147.245 26.3255L148.437 29.0079H148.512C148.462 28.3622 148.394 27.6419 148.307 26.8471C148.22 26.0523 148.177 25.2947 148.177 24.5744V20.2899H150.785V32.4355H147.972L144.805 26.3814L143.613 23.7361H143.538C143.6 24.4068 143.669 25.127 143.743 25.897C143.83 26.667 143.874 27.4121 143.874 28.1324V32.4355H141.266ZM155.61 32.4355V22.5998H152.276V20.2899H161.702V22.5998H158.367V32.4355H155.61Z" fill="#0E1011"/>
<path d="M114.73 25.6619C114.73 38.9168 103.212 49.7636 88.8749 49.7636C74.5376 49.7636 63.0201 38.9168 63.0201 25.6619C63.0201 12.407 74.5376 1.56014 88.8749 1.56014C103.212 1.56014 114.73 12.407 114.73 25.6619Z" fill="white" stroke="#E5E8EE" stroke-width="1.78826"/>
<path d="M80.6079 32.4355V20.2899H83.3463V30.1256H88.1524V32.4355H80.6079ZM94.2335 32.6591C93.4635 32.6591 92.737 32.5287 92.054 32.2679C91.3709 31.9947 90.7686 31.5973 90.247 31.0757C89.7379 30.5541 89.3342 29.9083 89.0362 29.1383C88.7381 28.356 88.5891 27.4556 88.5891 26.4372C88.5891 25.4313 88.7443 24.5372 89.0548 23.7548C89.3653 22.96 89.7813 22.2893 90.3029 21.7429C90.8245 21.1965 91.433 20.7804 92.1285 20.4948C92.8239 20.2092 93.5567 20.0664 94.3266 20.0664C95.109 20.0664 95.8107 20.2278 96.4316 20.5507C97.0526 20.8612 97.5679 21.2275 97.9778 21.6498L96.5248 23.4008C96.2143 23.1152 95.8852 22.8854 95.5375 22.7116C95.2022 22.5253 94.8172 22.4322 94.3825 22.4322C93.9727 22.4322 93.5815 22.5253 93.2089 22.7116C92.8488 22.8854 92.5321 23.14 92.2589 23.4753C91.9981 23.8106 91.787 24.2205 91.6255 24.7048C91.4765 25.1891 91.402 25.7356 91.402 26.3441C91.402 27.5984 91.669 28.5733 92.203 29.2687C92.737 29.9518 93.4511 30.2933 94.3453 30.2933C94.842 30.2933 95.2829 30.1877 95.6679 29.9766C96.0653 29.7531 96.413 29.4799 96.711 29.157L98.1641 30.8708C97.1457 32.063 95.8355 32.6591 94.2335 32.6591Z" fill="#0E1011"/>
<path d="M52.6037 25.6619C52.6037 38.9168 41.0861 49.7636 26.7489 49.7636C12.4116 49.7636 0.894128 38.9168 0.894128 25.6619C0.894128 12.407 12.4116 1.56014 26.7489 1.56014C41.0861 1.56014 52.6037 12.407 52.6037 25.6619Z" fill="white" stroke="#E5E8EE" stroke-width="1.78826"/>
<path d="M16.5617 32.4355V20.2899H19.9893C20.9208 20.2899 21.759 20.4079 22.5042 20.6438C23.2493 20.8798 23.8889 21.2462 24.4229 21.7429C24.9569 22.2272 25.3667 22.8482 25.6523 23.6057C25.938 24.3633 26.0808 25.2637 26.0808 26.3068C26.0808 27.35 25.938 28.2566 25.6523 29.0266C25.3667 29.7965 24.9631 30.4361 24.4415 30.9453C23.9199 31.442 23.2928 31.8146 22.56 32.063C21.8397 32.3114 21.0325 32.4355 20.1384 32.4355H16.5617ZM19.3001 30.2188H19.8217C20.3433 30.2188 20.8152 30.1505 21.2374 30.0139C21.6597 29.8773 22.0198 29.6599 22.3179 29.3619C22.6159 29.0514 22.8457 28.6478 23.0071 28.151C23.181 27.6543 23.2679 27.0396 23.2679 26.3068C23.2679 25.5865 23.181 24.9842 23.0071 24.4999C22.8457 24.0031 22.6159 23.6119 22.3179 23.3263C22.0198 23.0283 21.6597 22.8171 21.2374 22.693C20.8152 22.5688 20.3433 22.5067 19.8217 22.5067H19.3001V30.2188ZM27.9765 32.4355V20.2899H31.4041C32.3355 20.2899 33.1738 20.4079 33.9189 20.6438C34.6641 20.8798 35.3036 21.2462 35.8376 21.7429C36.3717 22.2272 36.7815 22.8482 37.0671 23.6057C37.3527 24.3633 37.4956 25.2637 37.4956 26.3068C37.4956 27.35 37.3527 28.2566 37.0671 29.0266C36.7815 29.7965 36.3779 30.4361 35.8563 30.9453C35.3347 31.442 34.7075 31.8146 33.9748 32.063C33.2545 32.3114 32.4473 32.4355 31.5531 32.4355H27.9765ZM30.7149 30.2188H31.2365C31.7581 30.2188 32.23 30.1505 32.6522 30.0139C33.0745 29.8773 33.4346 29.6599 33.7327 29.3619C34.0307 29.0514 34.2605 28.6478 34.4219 28.151C34.5958 27.6543 34.6827 27.0396 34.6827 26.3068C34.6827 25.5865 34.5958 24.9842 34.4219 24.4999C34.2605 24.0031 34.0307 23.6119 33.7327 23.3263C33.4346 23.0283 33.0745 22.8171 32.6522 22.693C32.23 22.5688 31.7581 22.5067 31.2365 22.5067H30.7149V30.2188Z" fill="#0E1011"/>
<path d="M1.44849 88.8047V78.2468H2.78431V87.662H7.40338V88.8047H1.44849ZM11.7747 88.9978C11.249 88.9978 10.7554 88.9066 10.2941 88.7242C9.84343 88.5311 9.44644 88.2628 9.10309 87.9195C8.77047 87.5654 8.5076 87.1362 8.31447 86.632C8.12134 86.1277 8.02477 85.5536 8.02477 84.9099C8.02477 84.2661 8.12134 83.6921 8.31447 83.1878C8.51833 82.6728 8.7812 82.2382 9.10309 81.8841C9.43571 81.5301 9.81124 81.2618 10.2297 81.0794C10.6481 80.8863 11.0827 80.7897 11.5333 80.7897C12.0269 80.7897 12.4668 80.8756 12.8531 81.0472C13.2501 81.2189 13.5773 81.4657 13.8348 81.7876C14.1031 82.1095 14.3069 82.4957 14.4464 82.9464C14.5859 83.397 14.6556 83.9013 14.6556 84.4592C14.6556 84.5987 14.6503 84.7382 14.6395 84.8777C14.6395 85.0064 14.6288 85.1191 14.6073 85.2157H9.32841C9.38206 86.0526 9.63957 86.7178 10.1009 87.2114C10.573 87.6942 11.1846 87.9356 11.9357 87.9356C12.3112 87.9356 12.6546 87.8819 12.9657 87.7747C13.2876 87.6566 13.5934 87.5064 13.8831 87.324L14.3498 88.1931C14.0065 88.4077 13.6256 88.5955 13.2071 88.7564C12.7887 88.9173 12.3112 88.9978 11.7747 88.9978ZM9.31232 84.2661H13.4968C13.4968 83.4721 13.3252 82.8713 12.9818 82.4635C12.6492 82.0451 12.1771 81.8359 11.5655 81.8359C11.2866 81.8359 11.0183 81.8895 10.7608 81.9968C10.514 82.1041 10.2887 82.265 10.0848 82.4796C9.88098 82.6835 9.70931 82.9356 9.56982 83.2361C9.44107 83.5365 9.35523 83.8798 9.31232 84.2661ZM17.8169 88.9978C17.1624 88.9978 16.6152 88.8047 16.1753 88.4184C15.7461 88.0322 15.5315 87.485 15.5315 86.7768C15.5315 85.9184 15.9124 85.2639 16.6742 84.8133C17.436 84.3519 18.6538 84.03 20.3276 83.8476C20.3276 83.6009 20.3008 83.3594 20.2471 83.1234C20.2042 82.8873 20.1237 82.6781 20.0057 82.4957C19.8877 82.3133 19.7214 82.1685 19.5068 82.0612C19.3029 81.9431 19.0401 81.8841 18.7182 81.8841C18.2675 81.8841 17.8437 81.97 17.4467 82.1416C17.0497 82.3133 16.6957 82.5064 16.3845 82.721L15.8695 81.8037C16.2343 81.5676 16.6796 81.3423 17.2053 81.1277C17.7311 80.9024 18.3105 80.7897 18.9435 80.7897C19.8984 80.7897 20.5905 81.0848 21.0197 81.6749C21.4488 82.2543 21.6634 83.0322 21.6634 84.0086V88.8047H20.569L20.4564 87.8712H20.4081C20.0325 88.1824 19.6302 88.4506 19.201 88.6759C18.7718 88.8905 18.3105 88.9978 17.8169 88.9978ZM18.2032 87.9356C18.5787 87.9356 18.9328 87.8498 19.2654 87.6781C19.598 87.4957 19.9521 87.2328 20.3276 86.8895V84.7167C19.6731 84.8026 19.1205 84.9045 18.6699 85.0225C18.23 85.1406 17.8705 85.28 17.5916 85.441C17.3233 85.6019 17.1248 85.7897 16.9961 86.0043C16.8781 86.2081 16.8191 86.4335 16.8191 86.6802C16.8191 87.1309 16.9532 87.4528 17.2214 87.6459C17.4896 87.839 17.8169 87.9356 18.2032 87.9356ZM25.8143 88.9978C25.2563 88.9978 24.7252 88.8959 24.2209 88.692C23.7166 88.4882 23.2767 88.2307 22.9012 87.9195L23.5611 87.0343C23.9044 87.3133 24.2531 87.5386 24.6072 87.7103C24.972 87.8819 25.3904 87.9678 25.8625 87.9678C26.3776 87.9678 26.7638 87.8498 27.0213 87.6137C27.2788 87.3777 27.4076 87.088 27.4076 86.7446C27.4076 86.5408 27.3539 86.3637 27.2467 86.2135C27.1394 86.0633 26.9999 85.9345 26.8282 85.8272C26.6673 85.7092 26.4795 85.6073 26.2649 85.5214C26.0503 85.4356 25.8357 85.3498 25.6211 85.2639C25.3422 85.1674 25.0632 85.0601 24.7842 84.9421C24.5053 84.8133 24.2531 84.6631 24.0278 84.4914C23.8132 84.309 23.6362 84.0998 23.4967 83.8637C23.3572 83.6277 23.2875 83.3434 23.2875 83.0107C23.2875 82.6996 23.3465 82.4099 23.4645 82.1416C23.5932 81.8627 23.7703 81.6266 23.9956 81.4335C24.2317 81.2296 24.516 81.0741 24.8486 80.9668C25.1812 80.8487 25.5568 80.7897 25.9752 80.7897C26.4688 80.7897 26.9194 80.8756 27.3271 81.0472C27.7456 81.2189 28.105 81.4281 28.4054 81.6749L27.7778 82.5118C27.5095 82.308 27.2306 82.1416 26.9409 82.0129C26.6512 81.8841 26.3346 81.8198 25.9913 81.8198C25.4977 81.8198 25.1329 81.9324 24.8969 82.1577C24.6716 82.3831 24.5589 82.6459 24.5589 82.9464C24.5589 83.1288 24.6072 83.2897 24.7038 83.4292C24.8003 83.5579 24.9291 83.676 25.09 83.7833C25.251 83.8798 25.4334 83.971 25.6372 84.0569C25.8518 84.132 26.0718 84.2124 26.2971 84.2983C26.5761 84.4056 26.855 84.5182 27.134 84.6363C27.4237 84.7543 27.6812 84.9045 27.9065 85.0869C28.1318 85.2586 28.3142 85.4732 28.4537 85.7307C28.6039 85.9882 28.679 86.2993 28.679 86.6641C28.679 86.986 28.6147 87.2865 28.4859 87.5654C28.3679 87.8444 28.1855 88.0912 27.9387 88.3058C27.7027 88.5204 27.4022 88.6867 27.0374 88.8047C26.6834 88.9334 26.2756 88.9978 25.8143 88.9978ZM32.3069 88.9978C31.8885 88.9978 31.5344 88.9334 31.2447 88.8047C30.9657 88.6759 30.7351 88.4989 30.5526 88.2736C30.381 88.0483 30.2576 87.7747 30.1825 87.4528C30.1074 87.1309 30.0698 86.7768 30.0698 86.3905V82.0612H28.911V81.0633L30.1342 80.9829L30.2951 78.794H31.4056V80.9829H33.514V82.0612H31.4056V86.4066C31.4056 86.8895 31.4915 87.265 31.6632 87.5332C31.8456 87.7907 32.1621 87.9195 32.6127 87.9195C32.7522 87.9195 32.9024 87.898 33.0634 87.8551C33.2243 87.8122 33.3692 87.7639 33.4979 87.7103L33.7554 88.7081C33.5408 88.7832 33.3048 88.8476 33.0473 88.9013C32.8005 88.9656 32.5537 88.9978 32.3069 88.9978ZM41.9166 88.9978C41.2514 88.9978 40.6398 88.8744 40.0819 88.6277C39.5239 88.3809 39.0357 88.0268 38.6173 87.5654C38.2096 87.0933 37.8877 86.5193 37.6516 85.8433C37.4263 85.1566 37.3136 84.3841 37.3136 83.5258C37.3136 82.6781 37.4317 81.9163 37.6677 81.2404C37.9038 80.5644 38.231 79.9904 38.6495 79.5183C39.0679 79.0462 39.5615 78.6867 40.1301 78.44C40.6988 78.1824 41.3211 78.0537 41.9971 78.0537C42.6409 78.0537 43.2042 78.1878 43.687 78.456C44.1805 78.7136 44.5829 79.014 44.8941 79.3573L44.1698 80.2264C43.8908 79.926 43.5743 79.6846 43.2203 79.5022C42.8662 79.3198 42.4638 79.2286 42.0132 79.2286C41.5089 79.2286 41.0529 79.3305 40.6452 79.5344C40.2374 79.7275 39.8887 80.0118 39.599 80.3874C39.3093 80.7522 39.084 81.1974 38.9231 81.7232C38.7729 82.2489 38.6978 82.8391 38.6978 83.4936C38.6978 84.1588 38.7729 84.7597 38.9231 85.2961C39.084 85.8219 39.304 86.2725 39.5829 86.6481C39.8619 87.0236 40.1999 87.3133 40.5969 87.5171C41.0046 87.721 41.4606 87.8229 41.9649 87.8229C42.4799 87.8229 42.9306 87.721 43.3168 87.5171C43.7031 87.3026 44.0679 87.0075 44.4112 86.632L45.1516 87.4689C44.7331 87.9517 44.261 88.3272 43.7353 88.5955C43.2095 88.8637 42.6033 88.9978 41.9166 88.9978ZM49.6787 88.9978C49.1959 88.9978 48.7345 88.9066 48.2946 88.7242C47.8654 88.5418 47.4845 88.2789 47.1519 87.9356C46.8193 87.5815 46.5511 87.1523 46.3472 86.6481C46.1541 86.133 46.0575 85.5536 46.0575 84.9099C46.0575 84.2554 46.1541 83.676 46.3472 83.1717C46.5511 82.6567 46.8193 82.2221 47.1519 81.868C47.4845 81.514 47.8654 81.2457 48.2946 81.0633C48.7345 80.8809 49.1959 80.7897 49.6787 80.7897C50.1615 80.7897 50.6176 80.8809 51.0467 81.0633C51.4866 81.2457 51.8729 81.514 52.2055 81.868C52.5381 82.2221 52.801 82.6567 52.9941 83.1717C53.198 83.676 53.2999 84.2554 53.2999 84.9099C53.2999 85.5536 53.198 86.133 52.9941 86.6481C52.801 87.1523 52.5381 87.5815 52.2055 87.9356C51.8729 88.2789 51.4866 88.5418 51.0467 88.7242C50.6176 88.9066 50.1615 88.9978 49.6787 88.9978ZM49.6787 87.9034C50.0113 87.9034 50.3171 87.8337 50.5961 87.6942C50.8751 87.544 51.1111 87.3401 51.3042 87.0826C51.5081 86.8144 51.6637 86.4978 51.771 86.133C51.8783 85.7682 51.9319 85.3605 51.9319 84.9099C51.9319 84.4592 51.8783 84.0515 51.771 83.6867C51.6637 83.3112 51.5081 82.9893 51.3042 82.721C51.1111 82.4528 50.8751 82.2489 50.5961 82.1095C50.3171 81.9592 50.0113 81.8841 49.6787 81.8841C49.3461 81.8841 49.0403 81.9592 48.7613 82.1095C48.4824 82.2489 48.241 82.4528 48.0371 82.721C47.844 82.9893 47.6938 83.3112 47.5865 83.6867C47.4792 84.0515 47.4255 84.4592 47.4255 84.9099C47.4255 85.3605 47.4792 85.7682 47.5865 86.133C47.6938 86.4978 47.844 86.8144 48.0371 87.0826C48.241 87.3401 48.4824 87.544 48.7613 87.6942C49.0403 87.8337 49.3461 87.9034 49.6787 87.9034ZM55.0058 88.8047V80.9829H56.1002L56.2129 82.1095H56.2612C56.6367 81.7339 57.0283 81.4228 57.436 81.176C57.8545 80.9185 58.3373 80.7897 58.8845 80.7897C59.7107 80.7897 60.3116 81.0472 60.6871 81.5622C61.0734 82.0773 61.2665 82.8391 61.2665 83.8476V88.8047H59.9468V84.0247C59.9468 83.2843 59.8287 82.7532 59.5927 82.4313C59.3566 82.0987 58.9811 81.9324 58.4661 81.9324C58.0584 81.9324 57.6989 82.0343 57.3878 82.2382C57.0766 82.4421 56.7225 82.7425 56.3255 83.1395V88.8047H55.0058ZM66.5434 88.9978C66.0284 88.9978 65.5456 88.9066 65.0949 88.7242C64.6443 88.5418 64.2527 88.2789 63.92 87.9356C63.5982 87.5815 63.3406 87.1523 63.1475 86.6481C62.9651 86.133 62.8739 85.5536 62.8739 84.9099C62.8739 84.2554 62.9758 83.676 63.1797 83.1717C63.3836 82.6567 63.6572 82.2221 64.0005 81.868C64.3439 81.514 64.7408 81.2457 65.1915 81.0633C65.6529 80.8809 66.1357 80.7897 66.64 80.7897C67.155 80.7897 67.5949 80.8809 67.9597 81.0633C68.3245 81.2457 68.6464 81.4603 68.9254 81.7071L68.2494 82.5762C68.0241 82.3723 67.7827 82.206 67.5252 82.0773C67.2784 81.9485 66.9994 81.8841 66.6883 81.8841C66.3342 81.8841 66.0069 81.9592 65.7065 82.1095C65.4061 82.2489 65.1486 82.4528 64.934 82.721C64.7194 82.9893 64.5477 83.3112 64.419 83.6867C64.3009 84.0515 64.2419 84.4592 64.2419 84.9099C64.2419 85.3605 64.3009 85.7682 64.419 86.133C64.537 86.4978 64.6979 86.8144 64.9018 87.0826C65.1164 87.3401 65.3739 87.544 65.6743 87.6942C65.9747 87.8337 66.302 87.9034 66.6561 87.9034C67.0209 87.9034 67.3535 87.8283 67.6539 87.6781C67.9651 87.5171 68.244 87.3294 68.4908 87.1148L69.0702 88C68.7161 88.3111 68.3245 88.5579 67.8953 88.7403C67.4662 88.912 67.0155 88.9978 66.5434 88.9978ZM73.2639 88.9978C72.7382 88.9978 72.2446 88.9066 71.7832 88.7242C71.3326 88.5311 70.9356 88.2628 70.5923 87.9195C70.2596 87.5654 69.9968 87.1362 69.8036 86.632C69.6105 86.1277 69.5139 85.5536 69.5139 84.9099C69.5139 84.2661 69.6105 83.6921 69.8036 83.1878C70.0075 82.6728 70.2704 82.2382 70.5923 81.8841C70.9249 81.5301 71.3004 81.2618 71.7189 81.0794C72.1373 80.8863 72.5719 80.7897 73.0225 80.7897C73.5161 80.7897 73.956 80.8756 74.3422 81.0472C74.7392 81.2189 75.0665 81.4657 75.324 81.7876C75.5922 82.1095 75.7961 82.4957 75.9356 82.9464C76.0751 83.397 76.1448 83.9013 76.1448 84.4592C76.1448 84.5987 76.1394 84.7382 76.1287 84.8777C76.1287 85.0064 76.118 85.1191 76.0965 85.2157H70.8176C70.8712 86.0526 71.1287 86.7178 71.5901 87.2114C72.0622 87.6942 72.6738 87.9356 73.4249 87.9356C73.8004 87.9356 74.1437 87.8819 74.4549 87.7747C74.7768 87.6566 75.0826 87.5064 75.3723 87.324L75.839 88.1931C75.4957 88.4077 75.1148 88.5955 74.6963 88.7564C74.2779 88.9173 73.8004 88.9978 73.2639 88.9978ZM70.8015 84.2661H74.986C74.986 83.4721 74.8143 82.8713 74.471 82.4635C74.1384 82.0451 73.6663 81.8359 73.0547 81.8359C72.7757 81.8359 72.5075 81.8895 72.25 81.9968C72.0032 82.1041 71.7779 82.265 71.574 82.4796C71.3702 82.6835 71.1985 82.9356 71.059 83.2361C70.9302 83.5365 70.8444 83.8798 70.8015 84.2661ZM77.7235 88.8047V80.9829H78.818L78.9306 82.3992H78.9789C79.2471 81.9056 79.569 81.514 79.9446 81.2243C80.3308 80.9346 80.7493 80.7897 81.1999 80.7897C81.5111 80.7897 81.79 80.8434 82.0368 80.9507L81.7793 82.1095C81.6506 82.0665 81.5325 82.0343 81.4252 82.0129C81.3179 81.9914 81.1838 81.9807 81.0229 81.9807C80.6903 81.9807 80.3416 82.1148 79.9768 82.3831C79.6227 82.6513 79.3115 83.118 79.0433 83.7833V88.8047H77.7235ZM82.949 88.8047V80.9829H84.0435L84.1561 82.1095H84.2044C84.5799 81.7339 84.9716 81.4228 85.3793 81.176C85.7977 80.9185 86.2806 80.7897 86.8278 80.7897C87.6539 80.7897 88.2548 81.0472 88.6303 81.5622C89.0166 82.0773 89.2097 82.8391 89.2097 83.8476V88.8047H87.89V84.0247C87.89 83.2843 87.772 82.7532 87.5359 82.4313C87.2999 82.0987 86.9243 81.9324 86.4093 81.9324C86.0016 81.9324 85.6422 82.0343 85.331 82.2382C85.0198 82.4421 84.6658 82.7425 84.2688 83.1395V88.8047H82.949Z" fill="#0E1011"/>
<path d="M501.048 26.2107C501.048 39.4656 489.53 50.3124 475.193 50.3124C460.856 50.3124 449.338 39.4656 449.338 26.2107C449.338 12.9558 460.856 2.10897 475.193 2.10897C489.53 2.10897 501.048 12.9558 501.048 26.2107Z" fill="white" stroke="#E5E8EE" stroke-width="1.78826"/>
<path d="M466.443 32.9844V20.8387H474.044V23.1486H469.182V25.5889H473.317V27.8802H469.182V30.6745H474.23V32.9844H466.443ZM475.009 32.9844L478.381 26.7439L475.214 20.8387H478.269L479.331 23.13C479.468 23.4032 479.604 23.7013 479.741 24.0242C479.89 24.3471 480.045 24.701 480.207 25.086H480.281C480.418 24.701 480.548 24.3471 480.672 24.0242C480.809 23.7013 480.939 23.4032 481.064 23.13L482.032 20.8387H484.957L481.809 26.8743L485.162 32.9844H482.107L480.896 30.5068C480.747 30.1839 480.598 29.8672 480.449 29.5568C480.312 29.2339 480.157 28.8862 479.983 28.5136H479.909C479.772 28.8862 479.635 29.2339 479.499 29.5568C479.362 29.8672 479.226 30.1839 479.089 30.5068L477.953 32.9844H475.009Z" fill="#0E1011"/>
</svg>
