<svg width="28" height="19" viewBox="0 0 28 19" fill="none" xmlns="http://www.w3.org/2000/svg">
<line x1="1" y1="9" x2="1" y2="19" stroke="#0E1011" stroke-width="2"/>
<line x1="27" y1="19" x2="27" y2="7" stroke="#0E1011" stroke-width="2"/>
<line y1="18" x2="28" y2="18" stroke="#0E1011" stroke-width="2"/>
<path d="M0.5 10C2.5931 9.19496 5.21503 5.65241 8.63627 1.44592C8.82798 1.21022 9.1838 1.19808 9.40292 1.40854C11.7908 3.70205 17.989 7.87088 21 9C22 9.5 25.9 11.1 27.5 11.5" stroke="#0E1011" stroke-width="2"/>
<path d="M10.5 10L11.332 9.4453L10.5 10ZM8.04554 0.701725C7.11994 3.66364 7.50457 7.30963 9.66792 10.5547L11.332 9.4453C9.49543 6.69037 9.21343 3.66969 9.9545 1.29827L8.04554 0.701725ZM9.66792 10.5547C10.225 11.3903 10.7222 12.1055 11.1374 12.7886C11.5506 13.4686 11.8331 14.0396 11.9734 14.5474C12.1084 15.0356 12.1051 15.4387 11.9708 15.8199C11.832 16.2138 11.5182 16.6831 10.8598 17.2318L12.1401 18.7682C12.9818 18.0669 13.5637 17.3174 13.8571 16.4846C14.155 15.6391 14.1204 14.8077 13.9011 14.0145C13.6873 13.241 13.2926 12.4839 12.8465 11.7499C12.4023 11.019 11.8581 10.2344 11.332 9.4453L9.66792 10.5547Z" fill="#0E1011"/>
<path d="M27.5 8C26.2521 7.37606 23.7488 5.46745 21.4655 2.60206C21.2414 2.32078 20.789 2.34182 20.5636 2.62216C19.5998 3.82145 17.682 5.49079 16 6.5" stroke="#0E1011" stroke-width="2"/>
<path d="M21.5 7L22.4487 6.68373L21.5 7ZM20.03 2.25742C19.7477 3.3864 19.7391 4.28022 19.8911 5.11636C20.033 5.89668 20.3255 6.63886 20.5513 7.31627L22.4487 6.68373C22.1744 5.86114 21.967 5.35332 21.8589 4.75864C21.7609 4.21978 21.7524 3.6136 21.9702 2.74258L20.03 2.25742ZM20.5513 7.31627C20.8728 8.28046 21.0565 8.87887 21.1291 9.26932C21.2139 9.7256 21.0691 9.51679 21.2929 9.29292L22.7072 10.7071C23.2644 10.1499 23.1858 9.38974 23.0954 8.90368C22.9928 8.3518 22.7598 7.61688 22.4487 6.68373L20.5513 7.31627Z" fill="#0E1011"/>
</svg>
