<svg width="28" height="24" viewBox="0 0 28 24" fill="none" xmlns="http://www.w3.org/2000/svg">
<line y1="23" x2="28" y2="23" stroke="#0E1011" stroke-width="2"/>
<path d="M8.45687 22.5004L8.45686 15.2731C8.45686 13.9836 8.04142 12.7284 7.27212 11.6935L4.96538 8.59049" stroke="#0E1011" stroke-width="2"/>
<path d="M12.5 22.5L12.5 13.1869C12.5 12.4032 12.3465 11.6271 12.0481 10.9025L9 3.5" stroke="#0E1011" stroke-width="2"/>
<path d="M24 3.5L25.5 1.5" stroke="#0E1011" stroke-width="2"/>
<path d="M4.50024 22.4995L4.60366 19.746C4.63605 18.8836 4.44465 18.0274 4.04807 17.2609L2.98047 15.1973" stroke="#0E1011" stroke-width="2"/>
<path d="M24.5393 6.23182L21.8282 10.433C21.2293 11.3611 19.9914 11.6279 19.0633 11.029C18.1352 10.4301 17.8684 9.1922 18.4673 8.2641L21.1784 4.06293C21.7773 3.13483 23.0152 2.86798 23.9433 3.4669C24.8714 4.06583 25.1383 5.30372 24.5393 6.23182Z" stroke="#0E1011" stroke-width="2"/>
<path d="M20 22V21.2828C20 19.5179 20.777 17.8425 22.1243 16.7025L26.5 13M16 22.5V18.8178C16 17.9496 16.1884 17.0918 16.5522 16.3035L19 11" stroke="#0E1011" stroke-width="2" stroke-linejoin="round"/>
</svg>
