<svg width="28" height="14" viewBox="0 0 28 14" fill="none" xmlns="http://www.w3.org/2000/svg">
<path d="M0 7C0.519852 7 0.936712 6.72834 1.65477 6.19644C2.28671 5.72834 3.21985 5 4.5 5V7C3.98015 7 3.56329 7.27166 2.84523 7.80356C2.21329 8.27166 1.28015 9 0 9V7ZM4.5 5C5.78015 5 6.71329 5.72834 7.34523 6.19644C8.06329 6.72834 8.48015 7 9 7V9C7.71985 9 6.78671 8.27166 6.15477 7.80356C5.43671 7.27166 5.01985 7 4.5 7V5Z" fill="#0E1011"/>
<path d="M9 7C9.65437 7 10.163 6.68946 10.9453 6.16795C11.663 5.68946 12.6544 5 14 5V7C13.3456 7 12.837 7.31054 12.0547 7.83205C11.337 8.31054 10.3456 9 9 9V7ZM14 5C15.3456 5 16.337 5.68946 17.0547 6.16795C17.837 6.68946 18.3456 7 19 7V9C17.6544 9 16.663 8.31054 15.9453 7.83205C15.163 7.31054 14.6544 7 14 7V5Z" fill="#0E1011"/>
<path d="M19 7C19.5199 7 19.9367 6.72834 20.6548 6.19644C21.2867 5.72834 22.2199 5 23.5 5V7C22.9801 7 22.5633 7.27166 21.8452 7.80356C21.2133 8.27166 20.2801 9 19 9V7ZM23.5 5C24.7801 5 25.7133 5.72834 26.3452 6.19644C27.0633 6.72834 27.4801 7 28 7V9C26.7199 9 25.7867 8.27166 25.1548 7.80356C24.4367 7.27166 24.0199 7 23.5 7V5Z" fill="#0E1011"/>
<path d="M0 2C0.519852 2 0.936712 1.72834 1.65477 1.19644C2.28671 0.728339 3.21985 0 4.5 0V2C3.98015 2 3.56329 2.27166 2.84523 2.80356C2.21329 3.27166 1.28015 4 0 4V2ZM4.5 0C5.78015 0 6.71329 0.728339 7.34523 1.19644C8.06329 1.72834 8.48015 2 9 2V4C7.71985 4 6.78671 3.27166 6.15477 2.80356C5.43671 2.27166 5.01985 2 4.5 2V0Z" fill="#0E1011"/>
<path d="M9 2C9.65437 2 10.163 1.68946 10.9453 1.16795C11.663 0.689458 12.6544 0 14 0V2C13.3456 2 12.837 2.31054 12.0547 2.83205C11.337 3.31054 10.3456 4 9 4V2ZM14 0C15.3456 0 16.337 0.689458 17.0547 1.16795C17.837 1.68946 18.3456 2 19 2V4C17.6544 4 16.663 3.31054 15.9453 2.83205C15.163 2.31054 14.6544 2 14 2V0Z" fill="#0E1011"/>
<path d="M19 2C19.5199 2 19.9367 1.72834 20.6548 1.19644C21.2867 0.728339 22.2199 0 23.5 0V2C22.9801 2 22.5633 2.27166 21.8452 2.80356C21.2133 3.27166 20.2801 4 19 4V2ZM23.5 0C24.7801 0 25.7133 0.728339 26.3452 1.19644C27.0633 1.72834 27.4801 2 28 2V4C26.7199 4 25.7867 3.27166 25.1548 2.80356C24.4367 2.27166 24.0199 2 23.5 2V0Z" fill="#0E1011"/>
<path d="M0 12C0.519852 12 0.936712 11.7283 1.65477 11.1964C2.28671 10.7283 3.21985 10 4.5 10V12C3.98015 12 3.56329 12.2717 2.84523 12.8036C2.21329 13.2717 1.28015 14 0 14V12ZM4.5 10C5.78015 10 6.71329 10.7283 7.34523 11.1964C8.06329 11.7283 8.48015 12 9 12V14C7.71985 14 6.78671 13.2717 6.15477 12.8036C5.43671 12.2717 5.01985 12 4.5 12V10Z" fill="#0E1011"/>
<path d="M9 12C9.65437 12 10.163 11.6895 10.9453 11.1679C11.663 10.6895 12.6544 10 14 10V12C13.3456 12 12.837 12.3105 12.0547 12.8321C11.337 13.3105 10.3456 14 9 14V12ZM14 10C15.3456 10 16.337 10.6895 17.0547 11.1679C17.837 11.6895 18.3456 12 19 12V14C17.6544 14 16.663 13.3105 15.9453 12.8321C15.163 12.3105 14.6544 12 14 12V10Z" fill="#0E1011"/>
<path d="M19 12C19.5199 12 19.9367 11.7283 20.6548 11.1964C21.2867 10.7283 22.2199 10 23.5 10V12C22.9801 12 22.5633 12.2717 21.8452 12.8036C21.2133 13.2717 20.2801 14 19 14V12ZM23.5 10C24.7801 10 25.7133 10.7283 26.3452 11.1964C27.0633 11.7283 27.4801 12 28 12V14C26.7199 14 25.7867 13.2717 25.1548 12.8036C24.4367 12.2717 24.0199 12 23.5 12V10Z" fill="#0E1011"/>
</svg>
