<svg width="32" height="23" viewBox="0 0 32 23" fill="none" xmlns="http://www.w3.org/2000/svg">
<line x1="2" y1="22" x2="30" y2="22" stroke="#0E1011" stroke-width="2"/>
<rect x="1" y="8" width="12" height="4" rx="2" stroke="#0E1011" stroke-width="2"/>
<rect x="10" y="1" width="13" height="4" rx="2" stroke="#0E1011" stroke-width="2"/>
<path d="M20 12C20 10.8954 20.8954 10 22 10H29C30.1046 10 31 10.8954 31 12C31 13.1046 30.1046 14 29 14H22C20.8954 14 20 13.1046 20 12Z" stroke="#0E1011" stroke-width="2"/>
<path d="M15.8455 14.8065L14.8893 14.5136L15.8455 14.8065ZM13.4386 22.345C13.4953 22.1907 13.6854 21.7861 13.9871 21.1714C14.2816 20.5714 14.6343 19.8669 15.0105 19.1032C15.7313 17.64 16.5351 15.9696 16.8017 15.0993L14.8893 14.5136C14.6817 15.1917 13.9708 16.6879 13.2164 18.2194C12.855 18.953 12.4801 19.7028 12.1917 20.2903C11.9106 20.8631 11.6628 21.3792 11.5614 21.655L13.4386 22.345ZM16.8017 15.0993C17.5584 12.6286 18.8069 9.14855 17.2652 4.67422L15.3743 5.32578C16.6781 9.10951 15.662 11.9909 14.8893 14.5136L16.8017 15.0993Z" fill="#0E1011"/>
<path d="M15 17.5C15 17.5 25.5 19 25.5 14.5" stroke="#0E1011" stroke-width="2"/>
<path d="M15.5 15C12.5833 15 8.16667 15.675 7 12" stroke="#0E1011" stroke-width="2"/>
</svg>
