<svg width="28" height="24" viewBox="0 0 28 24" fill="none" xmlns="http://www.w3.org/2000/svg">
<line y1="23" x2="28" y2="23" stroke="#0E1011" stroke-width="2"/>
<mask id="path-2-inside-1_710_3102" fill="white">
<path d="M11 3C11 1.34315 12.3431 0 14 0C15.6569 0 17 1.34315 17 3V24H11V3Z"/>
</mask>
<path d="M17 24V26H19V24H17ZM11 24H9V26H11V24ZM13 3C13 2.44772 13.4477 2 14 2V-2C11.2386 -2 9 0.238576 9 3H13ZM14 2C14.5523 2 15 2.44772 15 3H19C19 0.238576 16.7614 -2 14 -2V2ZM15 3V24H19V3H15ZM17 22H11V26H17V22ZM13 24V3H9V24H13Z" fill="#0E1011" mask="url(#path-2-inside-1_710_3102)"/>
<mask id="path-4-inside-2_710_3102" fill="white">
<path fill-rule="evenodd" clip-rule="evenodd" d="M13 9V13V14V17H10C8.34315 17 7 15.6569 7 14V9C7 7.34315 8.34315 6 10 6C11.6569 6 13 7.34315 13 9Z"/>
</mask>
<path d="M13 17V19H15V17H13ZM15 13V9H11V13H15ZM15 14V13H11V14H15ZM15 17V14H11V17H15ZM10 19H13V15H10V19ZM5 14C5 16.7614 7.23858 19 10 19V15C9.44772 15 9 14.5523 9 14H5ZM5 9V14H9V9H5ZM10 4C7.23858 4 5 6.23858 5 9H9C9 8.44772 9.44772 8 10 8V4ZM15 9C15 6.23858 12.7614 4 10 4V8C10.5523 8 11 8.44772 11 9H15Z" fill="#0E1011" mask="url(#path-4-inside-2_710_3102)"/>
<line x1="12" y1="13" x2="12" y2="7" stroke="#0E1011" stroke-width="2"/>
<line x1="11" y1="14" x2="15" y2="14" stroke="white" stroke-width="2"/>
<mask id="path-8-inside-3_710_3102" fill="white">
<path fill-rule="evenodd" clip-rule="evenodd" d="M15 12V16V17V20H18C19.6569 20 21 18.6569 21 17V12C21 10.3431 19.6569 9 18 9C16.3431 9 15 10.3431 15 12Z"/>
</mask>
<path d="M15 20V22H13V20H15ZM13 16V12H17V16H13ZM13 17V16H17V17H13ZM13 20V17H17V20H13ZM18 22H15V18H18V22ZM23 17C23 19.7614 20.7614 22 18 22V18C18.5523 18 19 17.5523 19 17H23ZM23 12V17H19V12H23ZM18 7C20.7614 7 23 9.23858 23 12H19C19 11.4477 18.5523 11 18 11V7ZM13 12C13 9.23858 15.2386 7 18 7V11C17.4477 11 17 11.4477 17 12H13Z" fill="#0E1011" mask="url(#path-8-inside-3_710_3102)"/>
<line y1="-1" x2="6" y2="-1" transform="matrix(-1.19249e-08 -1 -1 2.11998e-08 15 16)" stroke="#0E1011" stroke-width="2"/>
<line y1="-1" x2="4" y2="-1" transform="matrix(-1 -3.09534e-09 -2.36987e-09 1 17 18)" stroke="white" stroke-width="2"/>
</svg>
